<svg xmlns="http://www.w3.org/2000/svg" viewBox="0 0 512.15 501.9"><defs><style>.cls-1{fill:#545255;}.cls-2{fill:#545152;}.cls-3{fill:#524e4f;}.cls-4{fill:#4d4a4a;}.cls-5{fill:#3b393b;}.cls-6{fill:#383535;}.cls-7{fill:#efe4e3;}.cls-8{fill:#161626;stroke:#000;stroke-miterlimit:10;}.cls-9{fill:#221e1c;}.cls-10{fill:#e3b299;}.cls-11{fill:#ce917b;}.cls-12{fill:#ebb89c;}.cls-13{fill:#fefefe;}.cls-14{fill:#0d0d19;}</style></defs><g id="Capa_2" data-name="Capa 2"><g id="Capa_1-2" data-name="Capa 1"><path class="cls-1" d="M208.08,501.8h-143c.18-7.64-2.29-15.31-.78-22.81a58.5,58.5,0,0,0,.89-20.64A38.52,38.52,0,0,0,58,440.82l-.09-7c1.65-19.42,4.12-38.83.26-58.28-.38-1.92.59-2.61,2.42-2.85,4.42-.57,8.93-.88,13.18-2.11,4.07-1.17,8.8.73,12.29-2.76,3.09-1,5-3.39,7.07-5.67,7.2-2.72,14.52-4.63,22.23-2.57A22.38,22.38,0,0,0,132.16,358c2.27-1.15,4.92-.78,7,2,2.63,3.55,5.9,6.64,8.9,9.92.1,1.65.12,3.2,1.31,4.66,6.63,8.14,14.48,15,22.51,21.66a33.69,33.69,0,0,0,5.5,4.22c10.54,5.59,21.1,11.11,32.11,15.75a7.31,7.31,0,0,1,4.68,6.51c.84,13.49-1.43,26.8-2.48,40.15C210.62,475.83,208,488.69,208.08,501.8ZM138.21,368.58c-3.81-3.61-7.12-6-11.73-5.8C130.23,364.33,132.16,369.09,138.21,368.58Z"/><path class="cls-2" d="M469.08,501.8h-85c.25-3.13,2.62-2.66,4.75-3.1,4.12-.84,5.1-4.09,5.27-7.82.18-3.95-2.32-4.3-5.25-4.07s-4.38-.85-5.07-4-.27-7.51-2.95-9.21c-5.14-3.27-1.62-4.43.8-6,1.5-1,3.12-1.64,1.12-3.63-.81-.8-2-1.73-1.4-2.95,1.13-2.21,2.1.35,3.19.31.42,0,1.17-.25,1.2-.47.5-3.69-3.75-7.48.22-11.19a2.28,2.28,0,0,0-.86-1.55c-5.67-2.23-2.34-6.37-.89-8.47,2.29-3.3,3.3-6.51,2.82-10.22-.43-3.32.62-6.5.65-9.8,0-3.08,1.76-7,6.47-6.79,4.25.22,5.74-1.7,6.09-5.91.31-3.77,3.07-8.16,6.11-8.5,3.31-.37,4.54-1.16,5.6-3.81a2.15,2.15,0,0,1,2.41-1.4,2.12,2.12,0,0,1,1.65,2.22c0,6.08,5.31,8.48,8.58,12.29.69.8,2.53.9,2.2-.13-1.16-3.55,1.11-8-2.7-10.79a23.4,23.4,0,0,1-2-9,9.85,9.85,0,0,0,8.59-3.94c2.77-3.36.71-6.37-.3-9.69a29.43,29.43,0,0,0,4.86.61c1.56-.09,3.81,2.58,4.55-.45.53-2.2-2.13-2.54-3.66-3.42-2.3-1.31-5.35-.35-8.05-2.55,1.27-.28,1.89-.46,2.52-.54,5.31-.65,6.61-2.36,5.88-7.78-.4-3,3.47-5.78,6.53-4.61,1,.39,1.69,1.41,3.11.75,4.69-2.21,6.84-6.12,6-11.27,9.16-.69,18,2.17,27,2.79a32.74,32.74,0,0,0,5.59,1.66c5.32.62,10.65,1.08,15.61,3.36a2.07,2.07,0,0,0-1.2,2.07c-2.38,2.87-4.28,5.93-4.06,9.87-3.32,8.08-3.23,16.3-1.27,24.69,2.6,11.11,5,22.27,7.49,33.42-6.82,1-8.47,6.87-11.11,11.77-2.3,4.27-4.92,8.18-9.86,9.66-2.27.68-3.62,1.44-2,4.06,1.78,2.91.54,5-2.17,6.54-2.35,1.31-3.36,2.64-1.5,5.47,1.46,2.24,1.5,4.78.32,7.88-1.1,2.88-2.49,7.67,3.27,9.35,2.7.79,3.41,3.37,2.46,6.15s-2.77,3.57-5.44,3c-1.05-.21-2.12-1.26-3.11.12-2.8.63-2.7,3.16-2.89,5.1C468.86,495.17,469.09,498.49,469.08,501.8ZM407.45,500c3.75-2.42,6.14-5.87,8.23-9.55.56-1,.83-2.45-.34-3.08-.61-.32-2,.17-2.67.71C408.8,491.1,408.19,495.57,407.45,500Z"/><path class="cls-3" d="M424.09,396.79c3.81,2.82,1.54,7.24,2.7,10.79.33,1-1.51.93-2.2.13-3.27-3.81-8.55-6.21-8.58-12.29a2.12,2.12,0,0,0-1.65-2.22,2.15,2.15,0,0,0-2.41,1.4c-1.06,2.65-2.29,3.44-5.6,3.81-3,.34-5.8,4.73-6.11,8.5-.35,4.21-1.84,6.13-6.09,5.91-4.71-.25-6.44,3.71-6.47,6.79,0,3.3-1.08,6.48-.65,9.8.48,3.71-.53,6.92-2.82,10.22-1.45,2.1-4.78,6.24.89,8.47a2.28,2.28,0,0,1,.86,1.55c-4,3.71.28,7.5-.22,11.19,0,.22-.78.45-1.2.47-1.09,0-2.06-2.52-3.19-.31-.63,1.22.59,2.15,1.4,2.95,2,2,.38,2.65-1.12,3.63-2.42,1.59-5.94,2.75-.8,6,2.68,1.7,2.26,6,2.95,9.21s2.08,4.24,5.07,4,5.43.12,5.25,4.07c-.17,3.73-1.15,7-5.27,7.82-2.13.44-4.5,0-4.75,3.1h-5c-.07-1.23-.41-2.48-1.75-2.62-1.73-.18-2.1,1.22-2.25,2.62h-3c1.21-6.85-2.48-13.21-2-20a25.59,25.59,0,0,1-1-7.35c.18-4.22-1.47-7.38-5.81-8.64-.13-1.67-.26-3.33-.38-5,3.56.17,3.64-2,2.89-4.49-.56-1.85-1.9-3.46-1.66-5.55,1.69-1.64.92-3.75,1-5.66.79-21.88-1.51-43.71-.92-65.58a9.24,9.24,0,0,0-2.2-5.87l7-4c2.43.12,3.34,5.25,6.95,1.85,6.19-5.83,10.64-12.77,14.31-20.36,2.08-4.32,2-9.78,6.67-12.79,1.94-1.25.08-3,.17-4.55a37.89,37.89,0,0,1,5.36.85A163.49,163.49,0,0,0,430,340.87c.39.59.8.6,1.24.05,7.16.24,13.82,3.08,20.86,4,.87,5.15-1.28,9.06-6,11.27-1.42.66-2.08-.36-3.11-.75-3.06-1.17-6.93,1.64-6.53,4.61.73,5.42-.57,7.13-5.88,7.78-.63.08-1.25.26-2.52.54,2.7,2.2,5.75,1.24,8.05,2.55,1.53.88,4.19,1.22,3.66,3.42-.74,3-3,.36-4.55.45a29.43,29.43,0,0,1-4.86-.61c1,3.32,3.07,6.33.3,9.69a9.85,9.85,0,0,1-8.59,3.94c-2.38-3.91-4.74-7.82-7.14-11.71-.48-.8-.76-1.52.17-2.1,3.21-2,2.34-4.56,1-7.19a37.6,37.6,0,0,0-10.33-19.88c-.92-1-1.13-3.44-3.05-2.38-1.32.73-.73,2.76-.46,4.18a15.77,15.77,0,0,0,1.36,3.19l6.45,14.88c.47,3.59,0,7.71,1.62,10.66,3.5,6.34,4.56,13.39,7.09,20,.86,2.26,1.92,5.08,4.25,4.66C425.15,401.71,423.7,398.63,424.09,396.79Z"/><path class="cls-4" d="M28.07,382.86l3.57-1.77c.93,2.3,2.38,1.69,3.89.69l10.55-7c5.1,7.39,4.79,15.89,3.62,24-1,6.57-2.3,13.65-7.09,18.83-3.77,4.06-5,8.64-5.63,13.88-.72,6,.38,11.83.21,17.75-.1,3.37-1.89,5.25-4.18,6.89s-3.62-.51-5.49-1.53c-2.4-1.32-5.61-2.6-8.31-.17-2.41,2.17-2.45,4.86-1.19,7.75,1.19,2.72,1.63,5.69,2.41,8.52,1.36,4.95-.74,10.38,2.57,15,3.51,4.91,3.87,10.41,2.08,16.1-7.16,0-14.34-.19-21.49.09C.59,502,0,501.28,0,498.3c.14-32.5.08-65,.08-97.5a144.46,144.46,0,0,1,25.65-14.18C27.18,386,28.78,385,28.07,382.86Z"/><path class="cls-2" d="M356.08,501.8h-40c0-1.7,1.18-2.67,2.22-3.72a9.46,9.46,0,0,0,2.71-7.23c-.25-6.48-.41-13.11-4.33-18.67-3.8-5.38-4.56-12.42-9.4-17.11-4.42-4.3-3.66-10.77-7-15.5-.57-.82.53-1.79,1-2.63,3-4.86,6.21-9.76,6.58-15.62.22-3.63,1.18-4.91,4.61-2.72a3.54,3.54,0,0,0-1.44-3.8l-.06-2c4.58-4,5.79-11.43,13.08-12.78,1.22-.23,2-1.74,2-3.22l2-.05c3.61,4.33,4.17.83,5-1.95.32,0,.65-.05,1-.06,1.32,2.36,3.51,3,6,3.05-.12,8.09-.61,16.2-.29,24.28.57,14.3,5.25,27.79,8.63,41.55C351.51,476.23,356.55,488.47,356.08,501.8Z"/><path class="cls-5" d="M208.08,501.8c0-13.11,2.54-26,3.56-38.94,1.05-13.35,3.32-26.66,2.48-40.15a7.31,7.31,0,0,0-4.68-6.51c-11-4.64-21.57-10.16-32.11-15.75a33.69,33.69,0,0,1-5.5-4.22c-8-6.67-15.88-13.52-22.51-21.66-1.19-1.46-1.21-3-1.31-4.66l8.51,6.81c13.69,11,28.4,20.09,45.43,25.06,12.93,3.77,26.24,5.43,39.54,6.85,9.53,1,18.85,4,28.58,3.15l2,0c2.71,3.17,3.65,7,4,11,.3,1.63.6,3.27.91,4.9-.6.39-.6.78,0,1.15-.08,7.05,1.06,14,2.07,20.9-2.14.11-4.37-.1-6.42.41-2.53.63-3.39-.3-3.59-2.57-.33-3.77-.79-7.54-1-11.32-.49-8.91-4.19-14.09-12.79-16.46-5.36-1.48-11-2.09-16.2-4.05-2.08-.78-4.2-1.79-6.06-.1s-1.85,4.22-1.69,6.87c.37,6,5.15,9.9,6.72,15.25.73,2.68-1.23,5.34-.06,8-1.89,3.91.23,7.81,0,11.72-.79,14.77-3.86,29.38-3,44.27h-12c.36-4,.48-7.95,1.1-11.86,3.52-21.92,3.1-44,2.82-66.08-.05-4.54-.93-9.07-1.43-13.61-2.4,7.3-1.95,14.45-1.69,21.72.83,23.41-1.62,46.66-4.8,69.83Z"/><path class="cls-3" d="M472.08,486.8c1-1.38,2.06-.33,3.11-.12,2.67.54,4.53-.37,5.44-3s.24-5.36-2.46-6.15c-5.76-1.68-4.37-6.47-3.27-9.35,1.18-3.1,1.14-5.64-.32-7.88-1.86-2.83-.85-4.16,1.5-5.47,2.71-1.52,3.95-3.63,2.17-6.54-1.6-2.62-.25-3.38,2-4.06,4.94-1.48,7.56-5.39,9.86-9.66,2.64-4.9,4.29-10.79,11.11-11.77,2.66,7.3,5.28,14.63,8,21.9.58,1.54.3,3.84,2.8,4.13,0,16.66-.06,33.33.07,50,0,2.5-.56,3.14-3.07,3.07-6.66-.21-13.33-.07-20-.07-.57-4.76-2.62-5.86-6.43-3.21-1.66,1.16-2.43,1-2.52-1-.22-4.57-3.16-6.59-7.05-7.81C471.91,489.08,472.12,487.9,472.08,486.8Z"/><path class="cls-6" d="M25.08,501.8c1.79-5.69,1.43-11.19-2.08-16.1-3.31-4.64-1.21-10.07-2.57-15-.78-2.83-1.22-5.8-2.41-8.52-1.26-2.89-1.22-5.58,1.19-7.75,2.7-2.43,5.91-1.15,8.31.17,1.87,1,3.19,3.18,5.49,1.53s4.08-3.52,4.18-6.89c.17-5.92-.93-11.79-.21-17.75.63-5.24,1.86-9.82,5.63-13.88,4.79-5.18,6.14-12.26,7.09-18.83,1.17-8.09,1.48-16.59-3.62-24,7.91-2.82,10.07-1.43,10,6.75-.15,17.43.65,34.88-1,52.28-.33,2.45-.84,4.89-1,7.35C53.63,453.23,51,465,49.53,477c-1.05,8.35-3.85,16.39-4.45,24.82Z"/><path class="cls-1" d="M280.08,501.8h-25l0-30c0-.69,0-1.38,0-2.07,0-1.47,0-2.93-2.05-3,.05-.68.1-1.36.14-2.05,3.64-2.54,2.47-4.87-.32-7.13l.3-1.87c2.77-.19,1.72-2.38,2-3.86,1.91-.63,4.8,1.19,5.7-1.59s-1.9-4-3.45-5.57a7.35,7.35,0,0,0-2.2-1.05,24.17,24.17,0,0,0,.85-8.87c-.28-3.42-1.06-6.57-4.26-8.66-1,1.67-.57,3.17-.63,4.61-2.64,1.65-5.1,3.69-8.36,4.07a2.81,2.81,0,0,0-2.71,3h-2c-1.58-5.36-6.36-9.24-6.72-15.26-.16-2.65-.3-5.08,1.69-6.87s4-.68,6.05.1c5.24,2,10.85,2.57,16.2,4.05,8.61,2.38,12.31,7.56,12.79,16.46.21,3.78.68,7.55,1,11.32.2,2.27,1.06,3.2,3.59,2.57,2-.51,4.27-.3,6.42-.4.22,3,1.3,5.88.72,8.92-3.51-.24-3,4.6-4.78,4.65-4.34.12-4.72,3.15-6,5.89-.59,1.27-1.3,2.36-.21,3.58s3.17,1.56,4.07.75c2.66-2.4,4.78-.42,7.1.27A132.08,132.08,0,0,0,280.08,501.8Z"/><path class="cls-3" d="M311.09,414.8a3.54,3.54,0,0,1,1.44,3.8c-3.43-2.19-4.39-.91-4.61,2.72-.37,5.86-3.56,10.76-6.58,15.62-.52.84-1.62,1.81-1,2.63,3.33,4.73,2.57,11.2,7,15.5,4.84,4.69,5.6,11.73,9.4,17.11,3.92,5.56,4.08,12.19,4.33,18.67a9.46,9.46,0,0,1-2.71,7.23c-1,1.05-2.25,2-2.22,3.72h-20c-.05-4,.45-8.09-.26-12-2.5-13.57-4.29-27.15-3.8-41,.23-6.28-.66-12.66,3.84-18.08.95-1.14.85-3.15,1.22-4.76,1.4-6.06.93-12.23,1-18.36l5,.43,2,.71,0,0C306.63,414.22,307.27,414.87,311.09,414.8Z"/><path class="cls-5" d="M334.07,394.75c-.33,0-.66,0-1,.06-1.77.41-3.6.64-5,1.95l-2,.05c-2.06,0-4.1,2.18-6.44,0l19.44-11c1.8-1.48,4.32-2.29,3.28-5.71-1.81-6-2.24-12.19-2.31-18.42l1.18-2.67,1.83-.22,0,0c.7,8.94,3.45,17.5,4.87,26.29,1.76,10.94,2.68,22,4.11,33,1.87,14.28,3.49,28.6,5.93,42.78,2.33,13.57,4.65,27.11,5.06,40.9h-7c.47-13.33-4.57-25.57-7.67-38.17-3.38-13.76-8.06-27.25-8.63-41.55-.32-8.08.17-16.19.29-24.28-.42-1.92,1.24-4.68-1.26-5.63C337,391.49,335.15,392.94,334.07,394.75Z"/><path d="M363.08,501.8c-.41-13.79-2.73-27.33-5.06-40.9-2.44-14.18-4.06-28.5-5.93-42.78-1.43-11-2.35-22.07-4.11-33-1.42-8.79-4.17-17.35-4.87-26.29.13-.15.27-.29.41-.43l-.45.39-1.83.22a2.53,2.53,0,0,1-1.19-2.32q3.27-3.56,6.53-7.13c2.56-1.14,2.08-3.89,3-5.87,1.09-2.28,1.58-.28,2.31.14-.86,4.13-3.07,8.23,3.65,10.29,3.85,1.18,6.57,9.25,5.33,12.25-.71,1.71-1.89,3.82-.17,4.92s2.73-1.34,3.86-2.39c11-10.18,17.44-23.26,23.87-36.44,1.88-3.84,1.3-6.7-1.51-9.34A80.09,80.09,0,0,0,364.35,308l-3.51,0A13,13,0,0,1,352,304c.42-.42.83-.84,1.24-1.27,3.34,3.13,7.91,1.38,11.67,3,11.41,4.84,22.29,10.36,28.16,22.15.9,1.81,1.73,3.18,3.85,3.25,7.64.24,14.54,3.61,21.84,5.3a254.33,254.33,0,0,0,34.18,5.26c9.17.84,18.18,2.55,27.27,3.84l-1.09,2.17c-9-.61-17.83-3.47-27-2.78-7-.91-13.7-3.75-20.87-4l-1.23-.05a163.49,163.49,0,0,1-27.54-6.21,37.89,37.89,0,0,0-5.36-.85c-3.81-1.72-6-.66-7.46,3.44-4.51,12.27-11.79,22.86-20.64,32.41q-3.51,2-7,4c-3.1.17-5.44,2.26-8.17,3.34-2.22.87-2.73,2.81-2.44,5.35,1.39,12.12,2.27,24.31,3.85,36.41,1.4,10.77,2.75,21.59,6,32a21.07,21.07,0,0,0,1.7,10c.12,1.66.25,3.32.37,5q1.41,8,2.8,16c-.91,6.82,1.71,13.28,2.05,20ZM350.4,375c4.68-.74,6.58-3.58,6.68-7.89.08-3.84.32-7.74-3.63-10.09-1.24-.74-2.59-1.66-4.14-.68s-2.62,2.29-2.19,4.09C348.28,365.3,348.57,370.41,350.4,375Z"/><path class="cls-6" d="M298.08,407.65c-.07,6.13.4,12.3-1,18.36-.37,1.61-.27,3.62-1.22,4.76-4.5,5.42-3.61,11.8-3.84,18.08-.49,13.84,1.3,27.42,3.8,41,.71,3.87.21,8,.26,12h-12c0-11.81.2-23.62-.13-35.41-.2-7.21-3.46-14.66,2.73-21,.48-.49.32-1.59.45-2.41.49-3.09,1-6.19,1.49-9.29q2.19-13.43,4.41-26.86C295.07,405,296.69,405.64,298.08,407.65Z"/><path class="cls-5" d="M58,440.82a38.52,38.52,0,0,1,7.15,17.53A58.5,58.5,0,0,1,64.3,479c-1.51,7.5,1,15.17.78,22.81h-17a10.61,10.61,0,0,1,.18-2c4.3-15.25,6.56-30.84,7.92-46.6C56.54,449.08,55.51,444.66,58,440.82Z"/><path class="cls-4" d="M499.08,354.79a2.07,2.07,0,0,1,1.2-2.07c4.18-.73,7.8,1.8,11.8,2.08v54a6.67,6.67,0,0,1-5.73-6.11c-.71-11.69-5.37-22.9-4.25-34.79A20.69,20.69,0,0,0,499.08,354.79Z"/><path class="cls-6" d="M499.08,354.79a20.69,20.69,0,0,1,3,13.11c-1.12,11.89,3.54,23.1,4.25,34.79a6.67,6.67,0,0,0,5.73,6.11v8c-3.37,1.29-.69,5.48-3.38,7.1-1.89-.6-2.22-2.3-2.68-3.87-2.34-7.87-4.54-15.79-7-23.63-2.84-9-5.42-18-3-27.62.34-1.36.46-3-1-4.12C494.8,360.72,496.7,357.66,499.08,354.79Z"/><path d="M293,406.8q-2.2,13.43-4.41,26.86c-.51,3.1-1,6.2-1.49,9.29-.13.82,0,1.92-.45,2.41-6.19,6.37-2.93,13.82-2.73,21,.33,11.79.12,23.6.13,35.41h-4a132.17,132.17,0,0,1-.05-28q-.09-7.56-.19-15.13c.59-3-.5-5.95-.72-8.93-1-6.93-2.15-13.85-2.07-20.9,0-.38,0-.77,0-1.15-.31-1.63-.61-3.27-.91-4.9,1.52.13,1.92-1.41,2.95-2,.25,3.43-.26,6.94,1.2,10.23.27,3.81.57,7.61.79,11.42.07,1.22.09,2.66,1.51,2.71,1.58.06,1.58-1.43,1.45-2.61-.31-3,.54-5.85,1.05-8.75,2.69-6,2.77-12.7,4.72-18.92.38-1.23-.37-1.81-1.55-1.9-.05-1.58-.1-3.16-.14-4.73l.93-.47,1.09-.9.06-.05Z"/><path d="M495,364.66c1.43,1.11,1.31,2.76,1,4.12-2.4,9.6.18,18.59,3,27.62,2.47,7.84,4.67,15.76,7,23.63.46,1.57.79,3.27,2.68,3.87.3,3.89-.31,8.06,3.38,10.9v14c-2.5-.29-2.22-2.59-2.8-4.13-2.76-7.27-5.38-14.6-8-21.9-2.49-11.15-4.89-22.31-7.49-33.42C491.79,381,491.7,372.74,495,364.66Z"/><path class="cls-5" d="M251,483.54c-2,1.59-5.46-1-6.53,1.44a6.28,6.28,0,0,0-.51,3,3.44,3.44,0,0,0,0,.45,5.61,5.61,0,0,0,.13.59,1.71,1.71,0,0,0,.09.3,5.93,5.93,0,0,0,.38.86,6.22,6.22,0,0,0,.35.54,5.27,5.27,0,0,0,.44.52l.38.36a5.12,5.12,0,0,0,.44.34h0c-.16.11-.31.21-.45.32a.32.32,0,0,0-.09.08.67.67,0,0,0-.2.18.22.22,0,0,0-.09.08c-.11.11-.22.23-.32.35a3.3,3.3,0,0,0-.45.76,2,2,0,0,0-.13.41,2,2,0,0,0-.08.43,3.4,3.4,0,0,0,0,.45,4,4,0,0,0,.08.9,7.94,7.94,0,0,0,.23,1c.48,1.62,1.9,3,1.38,4.94h-4c1.07-11.31-2.79-22.3-2.08-33.62.33-5.27,1.76-10.48,1.06-15.81-.32-2.48.33-5.46-3-6.56-1.18-2.68.79-5.34.06-8h2c2.34,3.2.91,10.22,8.63,7.52-.58,1.48-1.3,1.37-1.92,1.45-1.51.21-3.7-.44-3.55,2.16s2.32,1.73,3.81,1.85c1.33.1,2.71,0,3,1.77a19.11,19.11,0,0,1-1.67,1c-1.47.76-4.27.16-4,2.65s2.87,1.19,4.4,1.68a13.55,13.55,0,0,0,1.44.27c0,.74,0,1.48,0,2.21a17.58,17.58,0,0,1-1.71.91c-1.93.81-4.33.37-4.5,4s2.74,3,4.2,4.26c.24,2.17-1.38,5.39,2.95,5.26a1.53,1.53,0,0,1-.47,2.07L249,478c-1.35,1.47-4.41-2.34-4.74,1.24s2.75,1.8,4.39,2S251.23,481.69,251,483.54Z"/><path d="M219.08,501.8c3.18-23.17,5.63-46.42,4.8-69.83-.26-7.27-.71-14.42,1.69-21.72.5,4.54,1.38,9.07,1.43,13.61.28,22.07.7,44.16-2.82,66.08-.62,3.91-.74,7.9-1.1,11.86Z"/><path class="cls-1" d="M238,445.81c3.37,1.1,2.71,4.08,3,6.56.7,5.33-.74,10.54-1.07,15.81-.71,11.32,3.15,22.31,2.08,33.62h-7c-.89-14.89,2.18-29.5,3-44.27C238.26,453.62,236.14,449.72,238,445.81Z"/><path d="M58,440.82c-2.53,3.84-1.5,8.26-1.86,12.41-1.36,15.76-3.62,31.35-7.92,46.6a10.61,10.61,0,0,0-.18,2h-3c.6-8.43,3.4-16.47,4.45-24.82,1.49-12,4.1-23.75,4.62-35.82.11-2.46.62-4.9,1-7.35l2.85,0Z"/><path d="M28.07,382.86c.71,2.17-.89,3.13-2.34,3.76A144.46,144.46,0,0,0,.08,400.8v-5c3.51-.34,5.58-3.27,8.39-4.85C14.72,387.44,21.46,385.36,28.07,382.86Z"/><path class="cls-2" d="M473.08,489.8c3.89,1.22,6.83,3.24,7.05,7.81.09,2,.86,2.14,2.52,1,3.81-2.65,5.86-1.55,6.43,3.21h-16C472.69,497.8,471.63,493.8,473.08,489.8Z"/><path d="M512.08,354.8c-4-.28-7.62-2.81-11.8-2.08-5-2.28-10.29-2.74-15.61-3.36a32.74,32.74,0,0,1-5.59-1.66l1.09-2.18a256.35,256.35,0,0,1,31.91,6.28Z"/><path class="cls-5" d="M368.08,501.8c-.34-6.69-3-13.15-2-20h4c-.47,6.77,3.22,13.13,2,20Z"/><path class="cls-1" d="M246.23,491.93c-.16.11-.31.21-.45.32a5,5,0,0,1,.44-.33Z"/><path class="cls-5" d="M252.08,501.8c.58-4.37,1.88-8.71.39-13.14a6,6,0,0,0,.36-4.85c-.18-.5-.36-1-.55-1.49l-.08,0c1.3-2.24,1.2-4.65.79-7.06-.23-1.31-.93-1.62-1.89-.49-4.33.13-2.71-3.09-2.95-5.26l1.85.08c.54,3.35,3.23,1.81,5.05,2.23l0,30Z"/><path class="cls-7" d="M512.08,434.8c-3.69-2.84-3.08-7-3.38-10.9,2.69-1.62,0-5.81,3.38-7.1Z"/><path class="cls-4" d="M473.08,489.8c-1.45,4-.39,8,0,12h-4c0-3.31-.22-6.63.11-9.9.19-1.94.09-4.47,2.89-5.1C472.12,487.9,471.91,489.08,473.08,489.8Z"/><path class="cls-1" d="M375.08,501.8c.15-1.4.52-2.8,2.25-2.62,1.34.14,1.68,1.39,1.75,2.62Z"/><path class="cls-2" d="M155,325.58l1.76-1.84A1.26,1.26,0,0,0,158,322.5l2.78-2.77c1.57.37,2.49-.68,3.34-1.66,3.33-3.82,5.71-1.85,7.75,1.31,1.07,1.66,1.73,3.57,2.74,5.26,1.92,3.22,3.35,6.88,7.26,8.38l2.05,2c1.24,1.34,2.4,2.76,3.73,4,5.54,5.2,12,9.5,16.4,15.82-2.49-.35-2.67,3-4.95,3h-4.07c-6.82-5.14-11.29-12.51-17.15-18.63.13,2.34,1,4.33,1.14,6.37.9,10.12,5.15,14.23,15,14.23a8.19,8.19,0,0,0,5-1c4.12,3.39,8.18,7,14.09,3.8l2.93,1.05c10.22,4.83,18.62,12.08,25.69,20.67,6.12,7.43,11.68,15.21,21.31,18.47l0,5c-6.45-2.45-13.42-1.54-20-3.06-.15-2.11-2.06-2.3-3.39-3.15-4.78-3-10.47-2.32-15.62-3.82a6,6,0,0,1,.81-3.31c1.67-2.68,4.31-5.13,1.27-8.74-2-2.39-.19-6.68-4-8.48-6-2.79-12.4-4.19-18.59-6.23-5.36-1.77-11.42-1.39-17.17-2.05-2.45-.28-4.86-1.07-7.31-1.15-5.78-.16-7.27,2-5,7.25.65,1.55,1.13,2.42-1,2.71A66.49,66.49,0,0,1,155,365.13c-3.35-3.31-6.89-6.22-11.94-6.25-2.62-2.5-5.61-4.77-5.46-9,2.43-1.57,3.47-4.75,6.77-5.43,4.11-.85,5.47-3.7,4.69-7.7C149.51,332.24,154.13,329.91,155,325.58Zm6.61,6.35c-1.29.15-1.63,1.15-2.09,2-2.35,4.46,2.26,19,6.77,21.35a2.85,2.85,0,0,0,2.84.17c1.06-.63.71-1.65.4-2.64a152.08,152.08,0,0,1-4.73-17.05C164.53,334.1,163.86,332.16,161.65,331.93Z"/><path d="M215.06,117.92H211.2c-1.58,0-3.3,0-5.18.06s-3.92.13-6.14.27c-1.46.09-3,.21-4.63.35-2.58.23-5.4.54-8.43,1a3.1,3.1,0,0,0-.13-.4c-.1.16-.21.31-.32.46l-2.63.39h-.54l-1.27.29c-1.65.26-3.35.58-5.1.92a13.75,13.75,0,0,0-2.05.42c-5.79,1.66-8.08,7-7.76,14.75.1,1.42.19,2.84.29,4.26,0,0,.17,2.24.36,4.27.49,5.18,1.46,11.84,1.62,12.91a8.19,8.19,0,0,0,1.53,3c.14.16.27.31.4.44q-.54-.74-1.05-1.5c-1.71-2.82-1-6-1.38-9.05-.08-.56.08-1.47.89-1.25.48.14.76,1,1.14,1.5,1.23-.53,1.69-2.4,3.46-2l-.06,0h0a4.82,4.82,0,0,0,0-.65c0-.36-.08-.71-.11-1.06,0-.07,0-.15,0-.23s0-.41,0-.62a3,3,0,0,1,1.13-2.52c3.48-5.86,3.6-12.62,4.73-19,.63-3.6,2.19-4.32,5.19-4a132.92,132.92,0,0,1,20.58-2.27l1.41-.23,4,0,1,.06H215a25.74,25.74,0,0,1,2.75-.24,34,34,0,0,1,5,.2c1.21,0,2.36.12,3.54.21A112.4,112.4,0,0,0,215.06,117.92Zm-43.52,27.75c-2.31-.27-2.43-2.25-2.12-4.38,2.08-1.66-3.16-4.27-.16-4.76,1.77-.29,3.06,3.93,3.76,6.5C173.32,144.13,172.71,145.81,171.54,145.67Zm20.61-30.51a5.21,5.21,0,0,0,1.49-.12l.76-.16C193.66,115,192.9,115.06,192.15,115.16ZM189.31,112s0,0,0,0a1,1,0,0,1,0,.26.75.75,0,0,1-.07.18.53.53,0,0,1-.11.14.55.55,0,0,1-.19.12,1.45,1.45,0,0,1-.29.11l-.39.07a12.39,12.39,0,0,1-5.8,2.52c1.52-10.74,3.88-21,10.29-29.61,3.6-4.87,7.81-9.29,11.75-13.91-6.36,2-10.51,6.91-13.44,12.31-2.52,4.64-7.46,7.76-8.14,13.61-.17,1.49-.75,3.11-.78,4.72-.17,9.91-3.49,13.76-13,15.33-.34.06-.67.13-1,.22,1.81-.27,3.65-.43,5.43-.88a4.87,4.87,0,0,0,.6-.16c4.13-.63,8.43-1.17,12.89-1.59,1.53-.15,3.09-.28,4.66-.39a2,2,0,0,0,.38.08c2.4-3.89,5.64-4.57,8-6.37,0-.3,0-.6,0-.9-4.21-.21-6.83,3.62-10.71,4.23Zm2.84,3.12a5.21,5.21,0,0,0,1.49-.12l.76-.16C193.66,115,192.9,115.06,192.15,115.16Zm0,0a5.21,5.21,0,0,0,1.49-.12l.76-.16C193.66,115,192.9,115.06,192.15,115.16Zm0,0a5.21,5.21,0,0,0,1.49-.12l.76-.16C193.66,115,192.9,115.06,192.15,115.16Zm0,0a5.21,5.21,0,0,0,1.49-.12l.76-.16C193.66,115,192.9,115.06,192.15,115.16Zm-24,48.5a7.15,7.15,0,0,1,2,.8c-1.23-1.46-2.92-4.22-3.51-9.21-.19-1.06-.47-2.63-.82-4.52-1.5-8.19-2.32-12.27-2.61-13.41a91.71,91.71,0,0,0-3.78-11.61,4.12,4.12,0,0,1-.36-2.34,5.4,5.4,0,0,1,2.89-3.6c-2.64-.36-1.87-4-3.8-5l-2,.06c-.44,3.76,1.24,7.74-1.49,11.31-.65.85-.37,2.62-.13,3.88a141.3,141.3,0,0,0,7.63,25.24c.42,1.07.82,2.14,1.18,3.21a1.07,1.07,0,0,1,.07.19,54.81,54.81,0,0,1,2.91,13.17l2.06,0c0-.84-.08-1.69-.11-2.53Zm24-48.5a5.21,5.21,0,0,0,1.49-.12l.76-.16C193.66,115,192.9,115.06,192.15,115.16Zm0,0a5.21,5.21,0,0,0,1.49-.12l.76-.16C193.66,115,192.9,115.06,192.15,115.16Zm0,0a5.21,5.21,0,0,0,1.49-.12l.76-.16C193.66,115,192.9,115.06,192.15,115.16Zm0,0a5.21,5.21,0,0,0,1.49-.12l.76-.16C193.66,115,192.9,115.06,192.15,115.16Z"/><path d="M158.12,114.72l-2,0c-2.82-6.73-1.15-13.65.16-20.18a101.5,101.5,0,0,1,14.65-36.54c8.45-12.65,16.63-25.66,28.26-35.83,6.55-5.73,14.33-9.46,22.46-12.22a204.64,204.64,0,0,1,32.51-8.35c17.73-2.92,35.25-2.89,51,7.87a63.67,63.67,0,0,1,13.4,12.59,222.31,222.31,0,0,1,16.24,22.48c7.06,11.31,11.06,24,14,36.9.94,4.14,4,7.74,3.1,12.33h-1.82c-.55-3.65-1.35-7.2-4-10,.07-4.56-2.91-8.56-2.44-13.23.05-.53-1-1.18-1.59-1.78.7-2.73-1-4.76-2-7-2.2-3.42-1.82-8-5-11-.77-1.25-1.06-3-3-3h0c.44-3.84-2.74-6.06-4.59-8.44-3-3.9-4.68-9-9.39-11.6h0a5.86,5.86,0,0,0-4-6h0a1.8,1.8,0,0,0-2-2h0a1.76,1.76,0,0,0-2-2l0,0a1.75,1.75,0,0,0-2-2l0,0c-.84-3-3-4.18-6-4.07-.54-2.05-3-1.48-4-2.93a40.86,40.86,0,0,0-21.95-5C266.36,2.4,257,6.49,247.27,6c-.37,0-.78.53-1.17.82-3.72,1-7.39,2.39-11.17,2.89a60.3,60.3,0,0,0-18.88,6.1c-9.8,1.94-16.46,8.2-22,16-.3,0-.6,0-.9,0l-1,1-15,20.94c-3.7,3.89-5.92,8.79-9,13.09-.14,1.47.22,3-.54,4.4C160.25,84.86,159.46,99.84,158.12,114.72Z"/><path d="M328.88,102l-10.8-.16a2.11,2.11,0,0,0,.5,1.3s0,0,0,0l2.61-.17c.33,0,.67,0,1-.06q4.8-.29,9.36-.34A12.15,12.15,0,0,1,328.88,102Z"/><path d="M356.39,170.44c.06.21.13.42.2.63h0Z"/><path d="M314.09,103.52l-.17,0a1.56,1.56,0,0,1-.26.11h.21l0,0A1.45,1.45,0,0,0,314.09,103.52Zm.36,55h0l-.55.06c-1.85.21-3.7.45-5.55.68l-.73.09c3-.22,5.64-.57,7.78-.94Zm9.68.9-.11,0,.3-.06ZM323.32,107l-.11,0,1.16.06h.09Zm.34,49.49-.51.15c1.37-.36,2.59-.71,3.63-1C325.76,155.92,324.72,156.22,323.66,156.51Zm5.58,1.7a28.62,28.62,0,0,0,6.42-2.44A44.24,44.24,0,0,1,329.24,158.21Zm3.9-5-.05,0c-.5.27-1,.5-1.47.71a8.38,8.38,0,0,0,2.28-.82,8.21,8.21,0,0,0,1.85-1.33A12.18,12.18,0,0,1,333.14,153.24Zm2.61-1.41a9.65,9.65,0,0,0,2.92-2.74A15.37,15.37,0,0,1,335.75,151.83Zm3.53-3.8a17.65,17.65,0,0,0,.86-2.27c.06-.17.11-.34.16-.5C340,146.18,339.67,147.11,339.28,148Zm1.6-5c-.05.24-.11.48-.16.72.13-.5.23-.94.3-1.31C341,142.63,340.93,142.83,340.88,143Zm-.1,8.67a5.34,5.34,0,0,0,2-2.87A18.27,18.27,0,0,1,340.78,151.69Zm-26.69-48.17-.17,0a1.56,1.56,0,0,1-.26.11h.21l0,0A1.45,1.45,0,0,0,314.09,103.52Zm.36,55h0l-.55.06c-1.85.21-3.7.45-5.55.68l-.73.09c3-.22,5.64-.57,7.78-.94Zm9.68.9-.11,0,.3-.06ZM323.32,107l-.11,0,1.16.06h.09Zm.34,49.49-.51.15c1.37-.36,2.59-.71,3.63-1C325.76,155.92,324.72,156.22,323.66,156.51Zm5.58,1.7a28.62,28.62,0,0,0,6.42-2.44A44.24,44.24,0,0,1,329.24,158.21Zm3.9-5-.05,0c-.5.27-1,.5-1.47.71a8.38,8.38,0,0,0,2.28-.82,8.21,8.21,0,0,0,1.85-1.33A12.18,12.18,0,0,1,333.14,153.24Zm2.61-1.41a9.65,9.65,0,0,0,2.92-2.74A15.37,15.37,0,0,1,335.75,151.83Zm3.53-3.8a17.65,17.65,0,0,0,.86-2.27c.06-.17.11-.34.16-.5C340,146.18,339.67,147.11,339.28,148Zm1.6-5c-.05.24-.11.48-.16.72.13-.5.23-.94.3-1.31C341,142.63,340.93,142.83,340.88,143Zm-.1,8.67a5.34,5.34,0,0,0,2-2.87A18.27,18.27,0,0,1,340.78,151.69Zm-26.69-48.17-.17,0a1.56,1.56,0,0,1-.26.11h.21l0,0A1.45,1.45,0,0,0,314.09,103.52Zm.36,55h0l-.55.06c-1.85.21-3.7.45-5.55.68l-.73.09c3-.22,5.64-.57,7.78-.94Zm9.68.9-.11,0,.3-.06ZM323.32,107l-.11,0,1.16.06h.09Zm.34,49.49-.51.15c1.37-.36,2.59-.71,3.63-1C325.76,155.92,324.72,156.22,323.66,156.51Zm5.58,1.7a28.62,28.62,0,0,0,6.42-2.44A44.24,44.24,0,0,1,329.24,158.21Zm3.9-5-.05,0c-.5.27-1,.5-1.47.71a8.38,8.38,0,0,0,2.28-.82,8.21,8.21,0,0,0,1.85-1.33A12.18,12.18,0,0,1,333.14,153.24Zm2.61-1.41a9.65,9.65,0,0,0,2.92-2.74A15.37,15.37,0,0,1,335.75,151.83Zm3.53-3.8a17.65,17.65,0,0,0,.86-2.27c.06-.17.11-.34.16-.5C340,146.18,339.67,147.11,339.28,148Zm1.6-5c-.05.24-.11.48-.16.72.13-.5.23-.94.3-1.31C341,142.63,340.93,142.83,340.88,143Zm-.1,8.67a5.34,5.34,0,0,0,2-2.87A18.27,18.27,0,0,1,340.78,151.69Zm-26.69-48.17-.17,0a1.56,1.56,0,0,1-.26.11h.21l0,0A1.45,1.45,0,0,0,314.09,103.52Zm.36,55h0l-.55.06c-1.85.21-3.7.45-5.55.68l-.73.09c3-.22,5.64-.57,7.78-.94Zm9.68.9-.11,0,.3-.06ZM323.32,107l-.11,0,1.16.06h.09Zm.34,49.49-.51.15c1.37-.36,2.59-.71,3.63-1C325.76,155.92,324.72,156.22,323.66,156.51Zm5.58,1.7a28.62,28.62,0,0,0,6.42-2.44A44.24,44.24,0,0,1,329.24,158.21Zm3.9-5-.05,0c-.5.27-1,.5-1.47.71a8.38,8.38,0,0,0,2.28-.82,8.21,8.21,0,0,0,1.85-1.33A12.18,12.18,0,0,1,333.14,153.24Zm2.61-1.41a9.65,9.65,0,0,0,2.92-2.74A15.37,15.37,0,0,1,335.75,151.83Zm3.53-3.8a17.65,17.65,0,0,0,.86-2.27c.06-.17.11-.34.16-.5C340,146.18,339.67,147.11,339.28,148Zm1.6-5c-.05.24-.11.48-.16.72.13-.5.23-.94.3-1.31C341,142.63,340.93,142.83,340.88,143Zm-.1,8.67a5.34,5.34,0,0,0,2-2.87A18.27,18.27,0,0,1,340.78,151.69Zm-26.69-48.17-.17,0a1.56,1.56,0,0,1-.26.11h.21l0,0A1.45,1.45,0,0,0,314.09,103.52Zm.36,55h0l-.55.06c-1.85.21-3.7.45-5.55.68l-.73.09c3-.22,5.64-.57,7.78-.94Zm9.68.9-.11,0,.3-.06ZM323.32,107l-.11,0,1.16.06h.09Zm.34,49.49-.51.15c1.37-.36,2.59-.71,3.63-1C325.76,155.92,324.72,156.22,323.66,156.51Zm5.58,1.7a28.62,28.62,0,0,0,6.42-2.44A44.24,44.24,0,0,1,329.24,158.21Zm3.9-5-.05,0c-.5.27-1,.5-1.47.71a8.38,8.38,0,0,0,2.28-.82,8.21,8.21,0,0,0,1.85-1.33A12.18,12.18,0,0,1,333.14,153.24Zm2.61-1.41a9.65,9.65,0,0,0,2.92-2.74A15.37,15.37,0,0,1,335.75,151.83Zm3.53-3.8a17.65,17.65,0,0,0,.86-2.27c.06-.17.11-.34.16-.5C340,146.18,339.67,147.11,339.28,148Zm1.6-5c-.05.24-.11.48-.16.72.13-.5.23-.94.3-1.31C341,142.63,340.93,142.83,340.88,143Zm-.1,8.67a5.34,5.34,0,0,0,2-2.87A18.27,18.27,0,0,1,340.78,151.69Zm31.32,22.08-.39-5c-.2-.35-.39-.7-.59-1-1.06-3.82-3.25-6.66-7.43-6.74-3.81-.08-4.2-1.69-3-4.72,1.9-5,1.42-10,.51-15.15-2.62-14.8-4.17-29.8-8.28-44.32l-1.8,0v1c.31,1,.61,2.06.92,3.09.28,2.38.56,4.77.85,7.15-2.59-7.46-9.05-4.59-14.05-5.43-2.2,0-4.42.22-6.62.05l-.62-.06q-4.56.06-9.36.34,4.95-.25,9.65-.28c.2,0,.42,0,.61.06,1.83.16,3.67,0,5.5,0s3.52.57,5.28.83a3.49,3.49,0,0,0,1.05-.15,5.43,5.43,0,0,1,3.43,3.1,4.09,4.09,0,0,1,0,2.37c-.17.76-.36,1.64-.55,2.63-.48,2.46-1.15,7-1.34,9.43-.44,5.57.3,6.09-.12,13.39-.06,1-.11,1.87-.17,2.68.19-.81.39-1.64.59-2.5l1.93,4.33.75,2.14a1.32,1.32,0,0,1,.21.95,123.66,123.66,0,0,1,5,28.89l2.66.5s-.05-.18-.06-.23v0h0c-.07-.21-.14-.42-.2-.63a1.92,1.92,0,0,1-.09-.32,4.43,4.43,0,0,1-.14-.58,2.26,2.26,0,0,1,.35-2.09l.15-.14a3.47,3.47,0,0,1,2.24-.54c2.26-4.9,6-5.41,9-1.23,1.59,2.18,1.91,4.82,2.65,7.31a3.18,3.18,0,0,1,.31.53c0,.07-.08.19-.13.29,0,.75,0,1.51,0,2.26a.48.48,0,0,1-.08.78c-.15,1.69-.29,3.38-.43,5.08l1.71,1,.24-7.69Zm-24-40c0-1.31,0-2.62,0-3.94.27-1.15-.62-2.66,1.48-3.65C349.76,129,351.78,131.78,348.1,133.75Zm8.37,27.05v-5.93C356.81,156.81,358,158.73,356.47,160.8Zm.64,4.6-.6-1c.27-.1.57-.34.79-.27s.3.44.45.69Zm1-16.57c-.73,1.14-1.89.93-3,1-.12.4-.23,1.12-.36,1.13-.85,0-.52-.71-.62-1.17,0-.31,0-.62,0-.94-.53-2-3.4-4,0-6,0-.32,0-.63,0-1-2.08-1.58-2.41-3.66-1.77-6.08,1.82-.53,1.59,1.74,2.77,2.06.37-5.42-3-10.45-1.52-17.23,2.18,9.12,5.67,16.74,4.51,25.26v.81C359,147.37,359.3,148.1,358.07,148.83Zm-15.31,0a18.27,18.27,0,0,1-2,2.87A5.34,5.34,0,0,0,342.76,148.82Zm-1.88-5.8c-.05.24-.11.48-.16.72.13-.5.23-.94.3-1.31C341,142.63,340.93,142.83,340.88,143Zm-.74,2.74c.06-.17.11-.34.16-.5-.29.92-.63,1.85-1,2.77A17.65,17.65,0,0,0,340.14,145.76Zm-4.39,6.07a9.65,9.65,0,0,0,2.92-2.74A15.37,15.37,0,0,1,335.75,151.83Zm-2.66,1.44c-.5.27-1,.5-1.47.71a8.38,8.38,0,0,0,2.28-.82,8.21,8.21,0,0,0,1.85-1.33,12.18,12.18,0,0,1-2.61,1.41Zm2.57,2.5a44.24,44.24,0,0,1-6.42,2.44A28.62,28.62,0,0,0,335.66,155.77Zm-12.51.89c1.37-.36,2.59-.71,3.63-1-1,.3-2.06.6-3.12.89Zm1.31-49.56-1.14-.08-.11,0,1.16.06ZM324,159.41l.3-.06-.19,0Zm-9.6-.94-.55.06c-1.85.21-3.7.45-5.55.68l-.73.09c3-.22,5.64-.57,7.78-.94l-.92.12Zm-.55-54.83,0,0a1.45,1.45,0,0,0,.25-.09l-.17,0a1.56,1.56,0,0,1-.26.11h.21Zm26.91,48.05a5.34,5.34,0,0,0,2-2.87A18.27,18.27,0,0,1,340.78,151.69Zm.1-8.67c-.05.24-.11.48-.16.72.13-.5.23-.94.3-1.31C341,142.63,340.93,142.83,340.88,143Zm-1.6,5a17.65,17.65,0,0,0,.86-2.27c.06-.17.11-.34.16-.5C340,146.18,339.67,147.11,339.28,148Zm-3.53,3.8a9.65,9.65,0,0,0,2.92-2.74A15.37,15.37,0,0,1,335.75,151.83Zm-2.61,1.41-.05,0c-.5.27-1,.5-1.47.71a8.38,8.38,0,0,0,2.28-.82,8.21,8.21,0,0,0,1.85-1.33A12.18,12.18,0,0,1,333.14,153.24Zm-3.9,5a28.62,28.62,0,0,0,6.42-2.44A44.24,44.24,0,0,1,329.24,158.21Zm-5.58-1.7-.51.15c1.37-.36,2.59-.71,3.63-1C325.76,155.92,324.72,156.22,323.66,156.51ZM323.32,107l-.11,0,1.16.06h.09Zm.81,52.36-.11,0,.3-.06Zm-9.68-.9h0l-.55.06c-1.85.21-3.7.45-5.55.68l-.73.09c3-.22,5.64-.57,7.78-.94Zm-.36-55-.17,0a1.56,1.56,0,0,1-.26.11h.21l0,0A1.45,1.45,0,0,0,314.09,103.52Zm26.69,48.17a5.34,5.34,0,0,0,2-2.87A18.27,18.27,0,0,1,340.78,151.69Zm.1-8.67c-.05.24-.11.48-.16.72.13-.5.23-.94.3-1.31C341,142.63,340.93,142.83,340.88,143Zm-1.6,5a17.65,17.65,0,0,0,.86-2.27c.06-.17.11-.34.16-.5C340,146.18,339.67,147.11,339.28,148Zm-3.53,3.8a9.65,9.65,0,0,0,2.92-2.74A15.37,15.37,0,0,1,335.75,151.83Zm-2.61,1.41-.05,0c-.5.27-1,.5-1.47.71a8.38,8.38,0,0,0,2.28-.82,8.21,8.21,0,0,0,1.85-1.33A12.18,12.18,0,0,1,333.14,153.24Zm-3.9,5a28.62,28.62,0,0,0,6.42-2.44A44.24,44.24,0,0,1,329.24,158.21Zm-5.58-1.7-.51.15c1.37-.36,2.59-.71,3.63-1C325.76,155.92,324.72,156.22,323.66,156.51ZM323.32,107l-.11,0,1.16.06h.09Zm.81,52.36-.11,0,.3-.06Zm-9.68-.9h0l-.55.06c-1.85.21-3.7.45-5.55.68l-.73.09c3-.22,5.64-.57,7.78-.94Zm-.36-55-.17,0a1.56,1.56,0,0,1-.26.11h.21l0,0A1.45,1.45,0,0,0,314.09,103.52Zm26.69,48.17a5.34,5.34,0,0,0,2-2.87A18.27,18.27,0,0,1,340.78,151.69Zm.1-8.67c-.05.24-.11.48-.16.72.13-.5.23-.94.3-1.31C341,142.63,340.93,142.83,340.88,143Zm-1.6,5a17.65,17.65,0,0,0,.86-2.27c.06-.17.11-.34.16-.5C340,146.18,339.67,147.11,339.28,148Zm-3.53,3.8a9.65,9.65,0,0,0,2.92-2.74A15.37,15.37,0,0,1,335.75,151.83Zm-2.61,1.41-.05,0c-.5.27-1,.5-1.47.71a8.38,8.38,0,0,0,2.28-.82,8.21,8.21,0,0,0,1.85-1.33A12.18,12.18,0,0,1,333.14,153.24Zm-3.9,5a28.62,28.62,0,0,0,6.42-2.44A44.24,44.24,0,0,1,329.24,158.21Zm-5.58-1.7-.51.15c1.37-.36,2.59-.71,3.63-1C325.76,155.92,324.72,156.22,323.66,156.51ZM323.32,107l-.11,0,1.16.06h.09Zm.81,52.36-.11,0,.3-.06Zm-9.68-.9h0l-.55.06c-1.85.21-3.7.45-5.55.68l-.73.09c3-.22,5.64-.57,7.78-.94Zm-.36-55-.17,0a1.56,1.56,0,0,1-.26.11h.21l0,0A1.45,1.45,0,0,0,314.09,103.52Z"/><path class="cls-8" d="M347.72,106.5a5.43,5.43,0,0,0-3.43-3.1,3.49,3.49,0,0,1-1.05.15c-1.76-.26-3.51-.7-5.28-.83s-3.67.15-5.5,0c-.19,0-.41,0-.61-.06q-4.69,0-9.65.28c-.33,0-.67,0-1,.06l-2.61.17c-1.48.1-3,.22-4.5.36a1.45,1.45,0,0,1-.25.09l0,0h-.21a1.56,1.56,0,0,0,.26-.11l-2,.2-.76.08h-.71a23.76,23.76,0,0,0-3.85.43l-.76.09c-2.25.28-4.52.59-6.82,1l0,.14q-3.5.57-7.07,1.27-4.56.9-8.9,1.94c-2.13.56-4.29,1.12-6.49,1.66s-4.27,1-6.37,1.52c-3.5,1-7.08,1.84-10.11,4l-9.75.82-3.23.11a35.63,35.63,0,0,1-5.27,0c-3-.22-5.89-.68-8.84-.92l-.33,0-7.56-1a110.73,110.73,0,0,0-11.08-.85c-1.74,0-3.49-.06-5.25,0-1,0-2,0-3,.08s-2,.09-3,.16l-2,.15c-2.05.17-4.13.37-6.23.63h-.08l-.76.16a5.21,5.21,0,0,1-1.49.12l-.15,0,0,0a2,2,0,0,1-.38-.08c-1.57.11-3.13.24-4.66.39-4.46.42-8.76,1-12.89,1.59a4.87,4.87,0,0,1-.6.16c-1.78.45-3.62.61-5.43.88s-3.38,1.12-5.08,1.66a3.82,3.82,0,0,1-1.06,0,5.4,5.4,0,0,0-2.89,3.6,4.12,4.12,0,0,0,.36,2.34,91.71,91.71,0,0,1,3.78,11.61c.29,1.14,1.11,5.22,2.61,13.41.35,1.89.63,3.46.82,4.52.59,5,2.28,7.75,3.51,9.21a22.23,22.23,0,0,1,2.63,1.9,21.29,21.29,0,0,0,4.38,2,135.3,135.3,0,0,0,21.24,1.08c4.94-.15,10.72-.62,14.22-.9,2.94-.24,5.52-.48,7.63-.69l2.09-.21a18.31,18.31,0,0,0,2.72-.52,19.6,19.6,0,0,0,2.59-.92c.4-.2.82-.43,1.26-.68a23.82,23.82,0,0,0,2.67-1.81l.61-.49h0a1.74,1.74,0,0,1,.1-.19l-.07,0h.22c.5-.43,1-.86,1.36-1.27.89-1.38,1.87-2.71,2.68-4.12.14-.24.27-.49.39-.72s.16-.3.23-.45a36.64,36.64,0,0,0,1.55-3.34,30.51,30.51,0,0,0,1.89-4.5l0-.1c.24-.75.44-1.48.61-2.19a29.35,29.35,0,0,0,.73-4.85,41.85,41.85,0,0,0,.23-4.63,3.84,3.84,0,0,0,.69-3c4.29-7.88,12.33-9.75,17.42-4.07,1.89,5.09,3.49,10.31,5.75,15.22,3.9,8.48,9.18,15.72,19.12,17.83l3,.24,3,.15,4,0,1-.07c3.95-.36,7.9-.66,11.84-1.07q1.23-.12,2.46-.27c.82-.09,1.64-.2,2.46-.31l1.43-.2,2-.32h.07c1.2-.2,2.37-.42,3.5-.66l1.56-.35,2.38-.52.24-.05.11,0,.19,0c1.6-.35,3.21-.69,4.78-1.1l.14,0a44.24,44.24,0,0,0,6.42-2.44l.07,0,.43-.24.94-.58,0,0,.55-.38c.25-.18.51-.37.76-.57l0,0,.76-.64.56-.53c.35-.35.68-.71,1-1.05a18.27,18.27,0,0,0,2-2.87,18.23,18.23,0,0,0,.47-2h.24a42.5,42.5,0,0,0,1.82-7.68c.12-.79.19-1.48.26-2.18s.11-1.64.17-2.68c.42-7.3-.32-7.82.12-13.39.19-2.45.86-7,1.34-9.43.19-1,.38-1.87.55-2.63A4.09,4.09,0,0,0,347.72,106.5ZM239.36,141.76a2.45,2.45,0,0,1,0,.27c0,.58,0,1.16-.07,1.74l-.17.26-.09.46a19.69,19.69,0,0,1-.72,2.52c-.21.61-.49,1.37-1.47,3.54-.38.85-.9,2-1.53,3.3a21.3,21.3,0,0,1-2.61,4.83,14.23,14.23,0,0,1-2.34,2.7,20.72,20.72,0,0,1-3.12,2.52,17.72,17.72,0,0,1-1.63.71,20,20,0,0,1-4.57,1.15c-7.76.65-14.46,1-19.85,1.2a158.39,158.39,0,0,1-19.13-.15,6.53,6.53,0,0,1-1.1-.09h0c-1.27-.1-2.34-.21-3.13-.3a16,16,0,0,1-4.77-3.13c-.18-.17-.36-.34-.52-.52l-.47-.52c-.15-.16-.29-.34-.42-.51l-.38-.49c-.13-.13-.26-.28-.4-.44a8.19,8.19,0,0,1-1.53-3c-.16-1.07-1.13-7.73-1.62-12.91-.19-2-.36-4.27-.36-4.27-.1-1.42-.19-2.84-.29-4.26-.32-7.7,2-13.09,7.76-14.75a13.75,13.75,0,0,1,2.05-.42c1.75-.34,3.45-.66,5.1-.92l1.27-.29h.54l2.63-.39c.11-.15.22-.3.32-.46a3.1,3.1,0,0,1,.13.4c3-.42,5.85-.73,8.43-1,1.63-.14,3.17-.26,4.63-.35,2.22-.14,4.26-.22,6.14-.27s3.6-.06,5.18-.06h2c.64,0,1.25,0,1.84,0a112.4,112.4,0,0,1,11.27.54c-1.18-.09-2.33-.16-3.54-.21a83.73,83.73,0,0,1,10.23,2c2.92.72,4.59,3,6,5.56.3,1.13.61,2.26.91,3.39Q239.64,135.49,239.36,141.76Zm102.79-16.29c0,.24,0,.49,0,.73v.07c0,.2,0,.39,0,.58s0,.24,0,.36,0,.2,0,.3a2.64,2.64,0,0,1,0,.29q0,.81-.09,1.59a41.62,41.62,0,0,1,.15,4.49.22.22,0,0,0,0,.08,40,40,0,0,1-.33,4.32,41.54,41.54,0,0,1-.76,4.12,0,0,0,0,1,0,0c-.07.37-.17.81-.3,1.31l-.15.57c-.08.3-.17.62-.27.95-.05.16-.1.33-.16.5a17.65,17.65,0,0,1-.86,2.27.36.36,0,0,1,0,.09c-.09.21-.19.41-.28.62l-.28.33s0,0,0,0a9.65,9.65,0,0,1-2.92,2.74,8.21,8.21,0,0,1-1.85,1.33,8.38,8.38,0,0,1-2.28.82l-.05,0c-.63.27-1.24.5-1.81.69l-1.82.58h0l-1.15.35c-1,.33-2.26.68-3.63,1h0c-2,.6-4.05,1.08-6.12,1.49l-1.61.2h0c-2.14.37-4.77.72-7.78.94-1.12.14-2.23.28-3.35.4l-1.47.15-1.52.14h-.05c-.71.06-1.43.11-2.14.15-19.06,1-25.34-3.14-32.25-21-2.83-5-3.09-10.56-3.33-16.12l1.53-3.34c.52-.4,1-.78,1.57-1.14s1.07-.71,1.61-1c.82-.49,1.65-.94,2.48-1.35a47.14,47.14,0,0,1,7.82-3,116,116,0,0,1,14.62-3.22c3.49-.59,7.78-1.31,13.22-1.88q2.18-.23,4.62-.42c2.58-.2,5.41-.36,8.47-.45v0h.25a.88.88,0,0,1,0-.17,1.7,1.7,0,0,0,.19.19l2.66,0h0l.48-.07h.14l.11,0,1.14.08h.16l3.4.19c.39,0,.77-.09,1.13-.11l.4,0a13,13,0,0,1,2.09.07,9.35,9.35,0,0,1,1.34.24l.44.11a7.86,7.86,0,0,1,.82.27c4.32,1.67,6.69,6.19,7.5,12.64l.42,4.25C342.16,125,342.15,125.23,342.15,125.47Z"/><path d="M166.3,171.78l2.06,0a24.64,24.64,0,0,1,.41,3.4c-.52,20.85,3.63,40.9,10.33,60.51,6.18,18.09,18.21,31.78,33,43.36l-.93.93c-5.23-2-8.78-6.55-14.14-9.68.56,2.94.95,5,1.34,7.11l3.54,17.5q.89,8.44,1.79,16.9c-.16,9.73.58,19.48-.33,29.2-.14,1.52,1.07,4-2.18,3.85a1.72,1.72,0,0,1-1.13-1.75l1.17-1.33c1.72-3,.58-6.18.77-9.27q0-7.69,0-15.39c-.23-3.75,1.29-7.66-1-11.24-3.23-5-1.23-10.92-2.79-16.27-2.55-8.75-2.33-18.44-7.46-26.26s-10.39-15.58-15.43-23.43c-6.15-9.58-13.12-19.2-13.48-31.48-.05-1.87-1.18-3.7-1.82-5.54.16-1.1-.24-2.38,1-3.14a22.72,22.72,0,0,0,1.38,4.25c.81,1.47.35,4.47,3.18,3.86s2.92-3,2.55-5.53c-.74-5.17-3.78-9.16-6.72-13.08-1.4-1.85-.58-2.75.63-2.62,4.91.52,2.46-3,2.91-4.87C167.16,178.66,165.35,175,166.3,171.78Zm-.26,41,0,0c-3.25,7.43,4,10.56,6.85,15.59L171,219.69c.45-2.72.08-5.17-2.39-6.88C167.77,212.11,166.92,211,166,212.79Z"/><path d="M137.55,349.92c-.15,4.19,2.84,6.46,5.46,9,26.37,30.53,60.12,45,100.08,45.9,6.59,1.52,13.56.61,20,3.06,1.9,2.06,6.27-.24,7,3.94-9.73.86-19-2.14-28.58-3.15-13.3-1.42-26.61-3.08-39.54-6.85-17-5-31.74-14.08-45.43-25.06L148,369.91c-3-3.28-6.27-6.37-8.9-9.92-2-2.74-4.68-3.11-7-2a22.38,22.38,0,0,1-16.76,1.56c-7.71-2.06-15-.15-22.23,2.56,0-.4,0-.79-.07-1.19,7.49-7.17,16.49-5.87,25.13-3.66,5.66,1.45,10.29-.33,15.15-2.11,2.35-.86,2.44-3.29,2.85-5.38Z"/><path d="M370.27,181.78l1.72,1a88.17,88.17,0,0,1-5.15,20.5c-1.93,5-2.27,10.65-3.45,16-1.64,7.42-1.81,7.55-9.65,8.19-3,.25-3.24,2.82-3.52,4.63-1.27,8.42-4.73,16.06-7.74,23.88a4.8,4.8,0,0,0-.37,1.9c.68,12.66.28,25.31-.17,38l-1.76,1q0-12.49,0-25a32.61,32.61,0,0,0,.08-11.87c-3.31,2.53-4.3,7.14-9.28,7.85,11.79-13.8,16.73-30.06,20-46.76,3.21-16.53,3.09-33.41,3-50.22l2.66.51c-2.21,4.54,2.39,8.16,1.79,12.74-.19,1.42,4.15,1.62,6.56,2,1.81.28,1.52,1.6.45,2.38-.91.67-2.07,1-2.45,2.22-1,.29-2.28-.19-2.8,1.19-.36,1.36-.73,2.73-1.1,4.1-.61,0-1,.19-.81.87-.14.63.2.91.76,1,.5,1.19-1,3.37,1.25,3.55,1.91.16,1.5-2.14,2.24-3.27a.6.6,0,0,0,.5-.39l1,.14c.15.94-.48,2,.49,3C369.49,195.34,368.3,188.07,370.27,181.78Zm-6.24,23c-1.38.07-2.47.44-3.29.12-5.43-2.07-5.7,2-6.26,5.33s-.05,6.61-1,9.86c-.44,1.5-1.22,3.56.57,4.54,2,1.09,3.85-.23,5.25-1.71a12,12,0,0,0,2.69-6.32C362.66,212.85,363.28,209.1,364,204.77Z"/><path class="cls-9" d="M58,433.83l-2.85,0c1.64-17.4.84-34.85,1-52.28.06-8.18-2.1-9.57-10-6.75l-10.55,7c-1.51,1-3,1.61-3.89-.69,4.42-2.85,8.72-5.93,13.33-8.44,2.19-1.19,5-1.47,7.51-1.81,10.82-1.44,21.65-2.75,32.48-4.1l1.14,1.09c-3.49,3.49-8.22,1.59-12.29,2.76-4.25,1.23-8.76,1.54-13.18,2.11-1.83.24-2.8.93-2.42,2.85C62.07,395,59.6,414.41,58,433.83Z"/><path class="cls-9" d="M201,305.85c2.25,3.58.73,7.49,1,11.24-1-3.22-2.46-3.95-5.8-2.25a25,25,0,0,1-10.43,2.88c-2.91.09-6.23.55-7.36,3.17-1.35,3.12,1,6,3,8.44.61.76,1.36,1.42,2,2.13l-.32.34-1,1-.2.22c-3.91-1.5-5.34-5.16-7.26-8.38-1-1.69-1.67-3.6-2.74-5.26-2-3.16-4.42-5.13-7.75-1.31-.85,1-1.77,2-3.34,1.66,1-3.47,2.74-6.31,6.73-6.88,1.85-.27,3.82-.26,4.9,1.54,2.44,4.08,5.19,3.58,9.14,1.84,4.25-1.87,9.11-2.37,13.7-3.47C198.91,311.89,201.74,310.35,201,305.85Z"/><path d="M340.18,296.81l1.76-1c2.53,4.3,8.08,3.68,11.26,6.91-.41.43-.82.85-1.24,1.27-1.06-.45-2.13-.92-3.2-1.36-1.63-.66-3.31-2.6-5-1.31-1.5,1.16-.52,3.43-.51,5.21,0,.49.29,1,.35,1.45,1.17,9.55,5.44,18.34,6.73,27.9.49,3.62,1.65.15,2.49-.23l1.45.19c.07,2.91-1.68,5.28-2.38,8-.73-.42-1.22-2.42-2.31-.14-.95,2-.47,4.73-3,5.87a6.35,6.35,0,0,0,.43-4.76c1.26-1.3,1.37-2.86,1.34-4.59-.07-4.24-1.54-8.14-2.57-12.16C343.15,317.77,339.68,307.64,340.18,296.81Z"/><path class="cls-10" d="M164.93,181.74c-.45,1.9,2,5.39-2.91,4.87-1.21-.13-2,.77-.63,2.62,2.94,3.92,6,7.91,6.72,13.08.37,2.56.35,4.92-2.55,5.53s-2.37-2.39-3.18-3.86a22.72,22.72,0,0,1-1.38-4.25c-1-3.76-3.14-7.2-2.87-11.31.06-1-1-1.17-1.79-1.38C157.68,182.81,159.93,180.05,164.93,181.74Z"/><path d="M351.08,97.79c.31,1,.61,2.06.92,3.09-5.16-1.29-11.2-1.17-12.88-8-.17-2.59-1.45-4.71-2.72-6.83q-.43-.7-.84-1.41l-.39-.72A12.71,12.71,0,0,1,334,80.82h0a1.1,1.1,0,0,1,2,.41c2.19,5.92,8.82,7.75,11.8,12.92.94,1.64,1.89,2,2.35-.33h1.83a1.54,1.54,0,0,1,.16.94l.63,1c0,.36.11.71.16,1.07l-1.8,0C350.4,97.12,350.38,97.46,351.08,97.79Z"/><path d="M137.55,349.92l-1.32-.11c.29-4.91,4.93-5.62,7.82-7.95,1.78-1.44,3.63-2.61,4-5.09l1,0c.78,4-.58,6.85-4.69,7.7C141,345.17,140,348.35,137.55,349.92Z"/><path d="M156.34,187a7.73,7.73,0,0,1,1.85-3.8c1.37-1.49,3.24-2.22,3.42-2s-1.3,1.12-2.4,3.21a10.14,10.14,0,0,0-1.08,3.94c0,.57-.12,2,1.06,6.06.4,1.36,1,3.16,1.81,5.25a2.41,2.41,0,0,0-.9,1.47c-.07.54,0,1.13-.09,1.67C158.43,197.68,154.77,193,156.34,187Z"/><path class="cls-9" d="M149,336.79l-1,0c.35-5,2.09-9.09,7-11.19C154.13,329.91,149.51,332.24,149,336.79Z"/><path d="M86.1,367.83,85,366.74A19.54,19.54,0,0,1,93.1,361c0,.4.05.79.07,1.19C91.13,364.44,89.19,366.84,86.1,367.83Z"/><path d="M372.22,175.09l-.12-1.32C372.72,174.16,372.87,174.59,372.22,175.09Z"/><path class="cls-9" d="M158,322.5a1.26,1.26,0,0,1-1.22,1.24Z"/><path d="M352.73,95.74l-.64-1Z"/><path d="M371.72,168.78l-.6-1.05C371.52,168,372,168.16,371.72,168.78Z"/><path class="cls-5" d="M138.21,368.58c-6.05.51-8-4.25-11.73-5.8C131.09,362.62,134.4,365,138.21,368.58Z"/><path class="cls-4" d="M424.09,396.79c-.39,1.84,1.06,4.92-1,5.29-2.33.42-3.39-2.4-4.25-4.66-2.53-6.58-3.59-13.63-7.09-20-1.63-2.95-1.15-7.07-1.62-10.66h6c1.34,2.63,2.21,5.18-1,7.19-.93.58-.65,1.3-.17,2.1,2.4,3.89,4.76,7.8,7.14,11.71A23.4,23.4,0,0,0,424.09,396.79Z"/><path class="cls-4" d="M407.45,500c.74-4.44,1.35-8.91,5.22-11.92.7-.54,2.06-1,2.67-.71,1.17.63.9,2.07.34,3.08C413.59,494.14,411.2,497.59,407.45,500Z"/><path class="cls-6" d="M361.16,450.84c-3.22-10.46-4.57-21.28-6-32-1.58-12.1-2.46-24.29-3.85-36.41-.29-2.54.22-4.48,2.44-5.35,2.73-1.08,5.07-3.17,8.17-3.34a9.24,9.24,0,0,1,2.2,5.87c-.59,21.87,1.71,43.7.92,65.58-.06,1.91.71,4-1,5.66Z"/><path class="cls-6" d="M369,369.66c8.85-9.55,16.13-20.14,20.64-32.41,1.5-4.1,3.65-5.16,7.46-3.44-.09,1.53,1.77,3.3-.17,4.55-4.7,3-4.59,8.47-6.67,12.79-3.67,7.59-8.12,14.53-14.31,20.36C372.33,374.91,371.42,369.78,369,369.66Z"/><path class="cls-5" d="M416.12,366.8h-6l-6.45-14.88a15.77,15.77,0,0,1-1.36-3.19c-.27-1.42-.86-3.45.46-4.18,1.92-1.06,2.13,1.42,3.05,2.38A37.6,37.6,0,0,1,416.12,366.8Z"/><path class="cls-4" d="M370.07,481.82h-4q-1.41-8-2.81-16c4.35,1.26,6,4.42,5.82,8.64A25.59,25.59,0,0,0,370.07,481.82Z"/><path class="cls-4" d="M361.16,450.84l2.93,0c-.24,2.09,1.1,3.7,1.66,5.55.75,2.49.67,4.66-2.89,4.49A21.07,21.07,0,0,1,361.16,450.84Z"/><path d="M430,340.87l1.23.05C430.79,341.47,430.38,341.46,430,340.87Z"/><path class="cls-3" d="M339.09,385.8l-19.44,11c2.34,2.21,4.38,0,6.44,0,0,1.48-.76,3-2,3.22-7.29,1.35-8.5,8.78-13.08,12.78-2.26-.92-3.07-4-5.93-4l0,0c.07-1.31-.65-1.92-1.86-2.1l-1.17-1.8c-.35-3,2.45-5.19,2.06-8.19h7.07c0-1.24-.47-1.4-.9-1.62-1.79-.91-5,.89-5.47-1.81-.32-1.95,2.57-3.11,3.93-4.71a6.09,6.09,0,0,1,1.19-.85c3.84,2.31,5.46-.89,7.9-2.86,5.94-4.78,13.87-6.74,18.83-13,.33-.42,1.08-.52,2.3-1.07C337.55,376.2,339.67,380.93,339.09,385.8Z"/><path class="cls-3" d="M334.07,394.75c1.08-1.81,3-3.26,4.74-2.58,2.5.95.84,3.71,1.26,5.63C337.58,397.76,335.39,397.11,334.07,394.75Z"/><path class="cls-6" d="M305.1,408.81c2.86,0,3.67,3.08,5.93,4l.06,2C307.27,414.87,306.63,414.22,305.1,408.81Z"/><path class="cls-3" d="M328.07,396.76c1.42-1.31,3.25-1.54,5-1.95C332.24,397.59,331.68,401.09,328.07,396.76Z"/><path d="M263.07,402.82c-9.63-3.26-15.19-11-21.31-18.47-7.07-8.59-15.47-15.84-25.69-20.67,0-1.32,0-2.64,0-4,5.61,3.61,12,6,16.88,10.79,1.11,1.09,2,2.66,4,2.46,6,6.8,11.85,13.68,18,20.34a20.45,20.45,0,0,0,10.24,5.9c3.81,1,7.49,2.73,9.82,5.6,2.92,3.57,6.28,3.6,10.09,3.39,1-.06,2,0,3,.06,0,1.57.09,3.15.13,4.73l-.09-.12c-1.51-.27-2,1-2.74,1.85a3.25,3.25,0,0,0-3.89-2.84c-2,.23-1.54,2.25-1.8,3.59-.33,1.76-.44,3.56-.64,5.34-1,.6-1.43,2.14-2.95,2-.38-4-1.32-7.84-4-11-.51-1.52,2.8-2.68,1-3.72C269.81,406.22,267.44,402.54,263.07,402.82Z"/><path d="M263.07,402.82c4.37-.28,6.74,3.4,10,5.26,1.83,1-1.48,2.2-1,3.72l-2,0c-.7-4.18-5.07-1.88-7-3.94Z"/><path d="M277,427.71c0,.38,0,.77,0,1.15C276.43,428.49,276.43,428.1,277,427.71Z"/><path class="cls-6" d="M253.13,455.75l-.3,1.87-2.65.55a13.55,13.55,0,0,1-1.44-.27c-1.53-.49-4.16.84-4.4-1.68s2.56-1.89,4-2.65a19.11,19.11,0,0,0,1.67-1c-.28-1.81-1.66-1.67-3-1.77-1.49-.12-3.66.67-3.81-1.85s2-1.95,3.55-2.16c.62-.08,1.34,0,1.92-1.45-7.72,2.7-6.29-4.32-8.63-7.52a2.81,2.81,0,0,1,2.71-3c3.26-.38,5.72-2.42,8.36-4.07,1.72.84,2,2.36,1.94,4L253,452.9C253.06,453.85,253.1,454.8,253.13,455.75Z"/><path class="cls-5" d="M279.84,458.69q.09,7.56.19,15.13c-2.32-.68-4.45-2.66-7.1-.26-.9.81-2.94.54-4.08-.75s-.37-2.32.22-3.59c1.27-2.73,1.65-5.76,6-5.88C276.87,463.29,276.34,458.45,279.84,458.69Z"/><path class="cls-5" d="M250,469.61l-1.84-.08c-1.46-1.3-4.38-.58-4.2-4.27s2.57-3.16,4.49-4a18.66,18.66,0,0,0,1.71-.91c4.69-1.07,2,2.9,3,4.37,0,.68-.09,1.36-.14,2.05l-1.19,1.66A1.93,1.93,0,0,0,250,469.61Z"/><path class="cls-1" d="M255.19,443.68c0,2.73,0,5.47-.05,8.21-.29,1.48.76,3.67-2,3.86,0-.95-.07-1.9-.1-2.85l.06-18.1h3A24.17,24.17,0,0,1,255.19,443.68Z"/><path class="cls-6" d="M255.15,451.88c0-2.73,0-5.47,0-8.21a7,7,0,0,1,2.2,1.06c1.56,1.61,4.33,2.87,3.45,5.57S257.05,451.26,255.15,451.88Z"/><path class="cls-5" d="M256.05,434.81h-3c0-1.68-.22-3.21-1.93-4,.06-1.44-.4-2.94.62-4.61C255,428.24,255.77,431.39,256.05,434.81Z"/><path class="cls-5" d="M253.15,464.75c-1-1.46,1.69-5.44-3-4.37,0-.73,0-1.47,0-2.21l2.65-.55C255.62,459.88,256.79,462.21,253.15,464.75Z"/><path class="cls-5" d="M250,469.61a1.93,1.93,0,0,1,1.83-1.15c.7,1.36,1.95,1.37,3.23,1.31v2.07C253.23,471.42,250.54,473,250,469.61Z"/><path class="cls-1" d="M255.06,469.77c-1.28.06-2.53.05-3.23-1.31L253,466.8C255.08,466.84,255.08,468.3,255.06,469.77Z"/><path d="M302,404.89l1.17,1.8c0,.47-.07.93-.11,1.39l-5-.43c-1.39-2-3-2.7-5.05-.85l-2.85,0c-.61-6.12,3.21-9.8,7.37-13.25,9.69-8,19.53-15.89,28.64-24.59,5.27-3.37,8.88-8.61,13.86-12.31a2.53,2.53,0,0,0,1.19,2.32c-.39.89-.78,1.78-1.18,2.67-3.74.71-5.5,4.06-8.06,6.25-7.52,6.41-14.74,13.16-22.08,19.79a6.09,6.09,0,0,0-1.19.85c-1.36,1.6-4.25,2.76-3.93,4.71.44,2.7,3.68.9,5.47,1.81.43.22.9.38.9,1.62H304.1c-3.13-1.92-5.41-.84-7.16,2.06-3.84,2.68-3.21,4.27,1.2,4.95A6.33,6.33,0,0,0,302,404.89Z"/><path class="cls-6" d="M303.1,408.08c0-.46.07-.92.11-1.39,1.21.18,1.93.79,1.86,2.1Z"/><path class="cls-4" d="M309.92,387.71c7.34-6.63,14.56-13.38,22.08-19.79,2.56-2.19,4.32-5.54,8.06-6.25.07,6.23.5,12.45,2.31,18.42,1,3.42-1.48,4.23-3.28,5.71.58-4.87-1.54-9.6-.14-15-1.22.55-2,.65-2.3,1.07-5,6.28-12.89,8.24-18.83,13C315.38,386.82,313.76,390,309.92,387.71Z"/><path class="cls-3" d="M351.92,343.82c.7-2.68,2.45-5.05,2.37-8,6.17-8.29,8.54-17.94,10.06-27.9A80.09,80.09,0,0,1,387,323.11c2.81,2.64,3.39,5.5,1.51,9.34-6.43,13.18-12.91,26.26-23.87,36.44-1.13,1.05-2.22,3.44-3.86,2.39s-.54-3.21.17-4.92c1.24-3-1.48-11.07-5.33-12.25C348.85,352.05,351.06,348,351.92,343.82Z"/><path class="cls-3" d="M352.85,335.67c-.84.38-2,3.85-2.49.23-1.29-9.56-5.56-18.35-6.73-27.9-.06-.49-.34-1-.35-1.45,0-1.78-1-4.05.51-5.21,1.66-1.29,3.34.65,5,1.31,1.07.44,2.14.91,3.2,1.36a13,13,0,0,0,8.88,3.93c.79,3.89.55,7.81-1.53,11.14C356.09,324.24,354.57,330,352.85,335.67Z"/><path class="cls-6" d="M350.4,375c-1.83-4.56-2.12-9.67-3.28-14.57-.43-1.8.7-3.15,2.19-4.09s2.9-.06,4.14.68c3.95,2.35,3.71,6.25,3.63,10.09C357,371.39,355.08,374.23,350.4,375Z"/><path class="cls-11" d="M340.05,356.68c-5,3.7-8.59,8.94-13.86,12.31-.31-1.79.45-3.1,1.63-4.42,5.37-6,10.69-12,15.89-18.14a3.81,3.81,0,0,1,3.3-1.64,6.35,6.35,0,0,1-.43,4.76Q343.31,353.12,340.05,356.68Z"/><path class="cls-9" d="M352.85,335.67c1.72-5.7,3.24-11.43,6.46-16.59,2.08-3.33,2.32-7.25,1.53-11.14l3.51,0c-1.52,10-3.89,19.61-10.06,27.9Z"/><path class="cls-5" d="M343.07,358.78l.45-.39c-.14.14-.28.28-.41.43Z"/><path class="cls-12" d="M347,344.79a3.81,3.81,0,0,0-3.3,1.64c-5.2,6.13-10.52,12.16-15.89,18.14-1.18,1.32-1.94,2.63-1.63,4.42-9.11,8.7-18.95,16.56-28.64,24.59-4.16,3.45-8,7.13-7.37,13.25l-.06.05-1.09.9-.93.47c-1,0-2-.12-3-.06-3.81.21-7.17.18-10.09-3.39-2.33-2.87-6-4.64-9.82-5.6A20.45,20.45,0,0,1,255,393.3c-6.12-6.66-12-13.54-18-20.34-.21-4.07-4.34-4.6-6.43-7a58.77,58.77,0,0,0-14.24-12.07c-2.56-1.53-4.61-1.24-6.43,1.06-3.64-2.75-7.09-5.64-8.71-10.12,3.25.16,2-2.33,2.18-3.85.91-9.72.17-19.47.33-29.2,1-1.37,2.22,1.9,3.63-.34,2.59-4.11-.58-14.45-5.42-16.56l-3.54-17.5c3.27.53,5.13,3.09,7,5.3,10.77,12.58,25,19.91,39.7,26.59a50.66,50.66,0,0,0,22.18,4.34,56.82,56.82,0,0,0,35.63-12.85c11.21-9,21.49-19.19,33.24-27.57a5.59,5.59,0,0,1,4.07-1.39l0,25c-.5,10.83,3,21,5.6,31.23,1,4,2.5,7.92,2.57,12.16C348.38,341.93,348.27,343.49,347,344.79Z"/><path class="cls-1" d="M279.07,420.8c.2-1.78.31-3.58.64-5.34.26-1.34-.18-3.36,1.8-3.59a3.25,3.25,0,0,1,3.89,2.84c-.53,2.4.49,5.08-1.35,7.24a1.64,1.64,0,0,0-.9.13c-1.12-.05-3-1-2.6,1.21a4.81,4.81,0,0,0,3,2.94c1.43.44,2-1.33,2.44-2.49,1.29-3.51.34-7.47,2.18-10.88l.09.12c1.19.09,1.94.67,1.56,1.9-2,6.22-2,12.9-4.72,18.92-1.57-1-2.54-3-4.8-2.77C278.81,427.74,279.32,424.23,279.07,420.8Z"/><path class="cls-7" d="M280.27,431c2.26-.23,3.23,1.79,4.8,2.77-.51,2.9-1.36,5.75-1.05,8.75.13,1.18.13,2.67-1.45,2.61-1.42-.05-1.44-1.49-1.51-2.71C280.84,438.64,280.54,434.84,280.27,431Z"/><path d="M289,407.78l1.09-.9Z"/><path class="cls-5" d="M252.47,488.66c1.49,4.43.19,8.77-.39,13.14h-6c.52-1.9-.9-3.32-1.38-4.94a7.94,7.94,0,0,1-.23-1,4,4,0,0,1-.08-.9,3.4,3.4,0,0,1,0-.45,2.17,2.17,0,0,1,.08-.43,3.24,3.24,0,0,1,.13-.41,3.3,3.3,0,0,1,.45-.76c.1-.12.21-.24.32-.35a.22.22,0,0,1,.09-.08,1.12,1.12,0,0,1,.2-.18.32.32,0,0,1,.09-.08c.14-.11.29-.21.45-.32h0a5.12,5.12,0,0,1-.44-.34l-.38-.36a5.27,5.27,0,0,1-.44-.52,6.22,6.22,0,0,1-.35-.54,5.93,5.93,0,0,1-.38-.86,1.71,1.71,0,0,1-.09-.3,5.61,5.61,0,0,1-.13-.59,3.44,3.44,0,0,1,0-.45,6.28,6.28,0,0,1,.51-3c1.07-2.46,4.52.15,6.53-1.44l1.83.27A6,6,0,0,1,252.47,488.66Z"/><path class="cls-1" d="M244.23,489.3a5.93,5.93,0,0,0,.38.86A5,5,0,0,1,244.23,489.3Z"/><path class="cls-6" d="M252.28,482.32c.19.49.37,1,.55,1.49l-1.83-.27c.23-1.85-.89-2.09-2.4-2.29s-4.72,1.5-4.39-2,3.39.23,4.74-1.24a1.65,1.65,0,0,0,1.68-1.14,1.53,1.53,0,0,0,.47-2.07c1-1.13,1.66-.82,1.89.49.41,2.41.51,4.82-.79,7.06Z"/><path class="cls-5" d="M250.63,476.86A1.67,1.67,0,0,1,249,478Z"/><path class="cls-1" d="M252.29,482.32h0Z"/><path class="cls-3" d="M173.07,377.81c2.1-.29,1.62-1.16,1-2.71-2.25-5.27-.76-7.41,5-7.25,2.45.08,4.86.87,7.31,1.15,5.75.66,11.81.28,17.17,2.05,6.19,2,12.63,3.44,18.59,6.23,3.84,1.8,2,6.09,4,8.48,3,3.61.4,6.06-1.27,8.74a6,6,0,0,0-.81,3.31,21.94,21.94,0,0,1-7.78-1c-4.85-1.5-9.77-2.77-14.68-4C190.93,390,182.08,383.76,173.07,377.81Z"/><path class="cls-5" d="M173.07,377.81c9,5.95,17.86,12.17,28.55,14.93,4.91,1.26,9.83,2.53,14.68,4a21.94,21.94,0,0,0,7.78,1c5.15,1.5,10.84.79,15.62,3.82,1.33.85,3.24,1,3.39,3.15-40-.91-73.71-15.37-100.08-45.9,5.05,0,8.59,2.94,11.94,6.25A66.49,66.49,0,0,0,173.07,377.81Z"/><path d="M201.18,344.83c1.62,4.48,5.07,7.37,8.71,10.12q3.11,2.39,6.22,4.76c0,1.33,0,2.65,0,4l-2.93-1.05c-1.69-4.16-6.11-5.16-9.07-7.84-4.45-6.32-10.86-10.62-16.4-15.82-1.33-1.24-2.49-2.66-3.73-4,.39-.77.78-1.53,1.16-2.3,3.87,5.08,10.94,5.54,15,10.41A1.72,1.72,0,0,0,201.18,344.83Z"/><path class="cls-5" d="M161.65,331.93c2.21.23,2.88,2.17,3.19,3.84a152.08,152.08,0,0,0,4.73,17.05c.31,1,.66,2-.4,2.64a2.85,2.85,0,0,1-2.84-.17c-4.51-2.36-9.12-16.89-6.77-21.35C160,333.08,160.36,332.08,161.65,331.93Z"/><path class="cls-5" d="M194.08,359.79c-9.89,0-14.14-4.11-15-14.23-.18-2-1-4-1.14-6.37,5.86,6.12,10.33,13.49,17.15,18.63C194.73,358.48,194.4,359.14,194.08,359.79Z"/><path class="cls-5" d="M204.07,354.79c3,2.68,7.38,3.68,9.07,7.84-5.91,3.23-10-.41-14.09-3.8,0-.34,0-.67.07-1C201.4,357.84,201.58,354.44,204.07,354.79Z"/><path class="cls-4" d="M199.12,357.82c0,.34-.05.67-.07,1a8.19,8.19,0,0,1-5,1c.32-.65.65-1.31,1-2Z"/><path class="cls-9" d="M185.1,332.67c-.38.77-.77,1.53-1.16,2.3l-2.05-2,.2-.22,1-1,.32-.34Z"/><path class="cls-12" d="M343.23,146.85a18.23,18.23,0,0,1-.47,2s0,0,0,0c.22-.57.46-1.21.69-1.92Zm-14.13,11.4c-1.57.41-3.18.75-4.78,1.1A44.48,44.48,0,0,0,329.1,158.25Zm-9.26,2.08c1.36-.27,2.68-.56,3.94-.87l-2.38.52Zm-11.9,1.78c.8-.08,1.62-.17,2.46-.28q-1.23.15-2.46.27Z"/><path class="cls-10" d="M346.06,149.69c-.26-1.64-.93-2.67-2.59-2.83-.23.71-.47,1.35-.69,1.92,0,0,0,0,0,0a5.34,5.34,0,0,1-2,2.87c-.3.34-.63.7-1,1.05l-.56.53-.76.64,0,0c-.25.2-.51.39-.76.57l-.55.38,0,0c-.33.22-.65.41-.94.58l-.43.24-.07,0a28.62,28.62,0,0,1-6.42,2.44l-.14,0a44.48,44.48,0,0,1-4.78,1.1l-.3.06-.24.05c-1.26.31-2.58.6-3.94.87-1.13.24-2.3.46-3.5.66h-.07c-.66.12-1.32.22-2,.32l-1.43.2c-.82.11-1.64.22-2.46.31s-1.66.2-2.46.28h0c-3.94.41-7.89.71-11.84,1.07-.31.43-.65.48-1,.07l-4,0a2,2,0,0,1-3-.15l-3-.24c.18,2.26-1.62,4.29.47,7.31-1.88-.73-2.51-.88-3.05-1.19-1.9-1.11-3.32-4.07-5.89-2.63s-2.2,5-3.3,7.49c-.54,1.22.41,2.21,1.49,2.82a50.21,50.21,0,0,0,7,3.8c3.37,1.28,5.88.29,6.36-3.74-.06-2-2.2-3.24-2-5.41a11.52,11.52,0,0,1,4.77,11.16c-.69,3.4-2.3,6.16-6.29,6.45-3.81,1.82-7.86.68-11.78.85-3.12.14-5.82.62-8.2,2.88-4.22,4-8.93,5.36-14.51,2.39a20.48,20.48,0,0,0-15.93-1.41c-1.72.5-3,0-3.22-2-3.29.7-5.09-1.32-6.08-3.87-1.19-3.06-2.07-6.35,1.15-9,.17-1.57-.84-3.73,2-4-.16-2.47,1.06-4.35,2.62-6.08.9-1,1.92-2,.16-3.12l1.31-2.32-.61.49a23.82,23.82,0,0,1-2.67,1.81c-.44.25-.86.48-1.26.68a19.6,19.6,0,0,1-2.59.92,18.31,18.31,0,0,1-2.72.52l-2.09.21c-2.11.21-4.69.45-7.63.69-3.5.28-9.28.75-14.22.9a135.3,135.3,0,0,1-21.24-1.08,21.29,21.29,0,0,1-4.38-2,10.55,10.55,0,0,0,4.38,2.41c-3.52-.07-3.54,2.43-4.09,5-2.71,12.8.85,25,3.33,37.31,2.83,14,7.28,27.47,15.21,39.45,9.29,14,21.78,24.87,35.92,33.81,1.5.95,3,1.42,2.54,3.55a6.62,6.62,0,0,0,4,2c3.17-2.91,6.28-.58,9,.54,4.23,1.72,7.77,2.77,12.7,1.08,4.25-1.46,9.55.12,14.38.35,2.68-2.32,6.24-.3,9.07-1.85h0l0,0h0c.21-.34.43-.68.66-1a3.68,3.68,0,0,1,3.07-1.82c-.55-4.64,4.82-2,5.83-4.72,3.22,2,4.52-1.68,6.82-2.41,2.48-.79,4.6-4.19,7.13.18.64,1.11,2.47-.59,2.52-1.41.19-3.85,3.67-4.3,5.71-6.31a55.55,55.55,0,0,0,10.23-13.93c.77-1.5,1-3.52,3.31-4.43.52,4.18-2.17,7.71-1.55,11.62l.06.05.07.07c6.52-1.17,7.27-7.29,9.55-11.75,5.43-10.63,9.34-21.92,12.84-33.31,3-9.85,3.66-20.16,4.43-30.35C351,176.7,348.12,163.21,346.06,149.69ZM205.13,228.42c-1.84-.94-.89-2.54-.35-3.9,1.75-4.43,4.78-7.37,10.76-8.63-2.8,4.31-4.9,7.65-7.13,10.91C207.67,227.89,206.59,229.16,205.13,228.42Zm46.53,26.43c11.94-.89,23.3-4.41,34.72-7.61C275.73,254.32,264.68,259.45,251.66,254.85Zm57.49-32.74a6.38,6.38,0,0,1-1.77,5c-9.75,10.26-20.53,18.25-35.07,21.08-13.9,2.71-27.28,2.51-40.42-2.42-3.94-1.48-8.32-3.33-9.59-8.3-1.86-1-3.71-2-5.59-2.92s-2.36-2.13-.64-3.69c3-6.82,10-8.21,15.74-11,5.2-2.5,11-3.53,16.66-4.76,2.47-.54,4.57.25,6.78.88,4.26,1.2,8.38,2,12-1.66,2.75-2.73,6.06-.62,9-.44,9.05.52,18.13,1,27,3.2,1.42.35,3.51.27,3.84,2.53,1.13.51,2.66-.6,3.46.77C310.73,220.58,309.66,221.51,309.15,222.11ZM326,217c-.25.85-.53,1.58-1.57,1.51a1.27,1.27,0,0,1-1.22-1.31c-.13-7.75-4.78-13.71-9-21.23C322.13,199.3,327.92,210.71,326,217Z"/><path class="cls-12" d="M328.88,102l-10.8-.16-4-1.68c-1.46-1.37-3.26-1.21-5-1.09A94.12,94.12,0,0,0,291.08,99c-4.64-.71-9.14.6-13.05,2.48s-8.09,4.8-7.83,10.41c-3.5,1-7.08,1.84-10.11,4l-9.75.82a3.92,3.92,0,0,0-3.23.11,35.63,35.63,0,0,1-5.27,0c-3-.22-5.89-.68-8.84-.92v0c-.08-6.39-5.52-10.62-13.88-10.8-6.59-.68-13-.19-19,2.87-4.21-.21-6.83,3.62-10.71,4.23,0-1.15-.57-2.62-.06-3.39,6.85-10.26,6.8-23.92,16.72-32.79,3.51-3.14,6.1-7.29,10.54-9.53,1.73-.87,3.33-2.23,3.54-4.49a.67.67,0,0,1,.72-.24c2.92.47,5.56.19,7.26-2.66,2.34-.79,4.72-1.47,7-2.39,5.8-2.35,12.52-1.24,18-4.86,2.48-.15,4.93-.38,7-1.91h0c3.7-2.39,7.76-1.17,11.7-1.19,1,.48,2.36-.26,3.45,1l-7.32.43c0,.48,0,1,0,1.44,6.41-.29,12.61,2.38,19.15.29,4.42,2.61,9.86,2.88,14,6.24,2.93,2.4,5.41,5.44,9.15,6.75l.53.41a2.83,2.83,0,0,0,.28.2c.19.13.38.26.57.37s.49.3.74.43.51.27.77.39a4.59,4.59,0,0,0,.5.24l.74.35c1,.48,2.05.93,3,1.48l.69.42,0,0c.23.15.44.31.66.46l.69.57c.2.19.39.38.57.58l0,0a8.07,8.07,0,0,1,.78,1,6.32,6.32,0,0,1,.46.81l0,0,0,0c.27.45.53.91.79,1.36,1.27,2.14.14,5.32,2.93,6.8.3,1.27.61,2.53.89,3.8C327.14,90.33,330.15,95.8,328.88,102Z"/><path class="cls-9" d="M325.07,49.8c-1.43,0-2.89.05-3-2a5.5,5.5,0,0,1-4.4-1.88c-7.57-7.17-16.54-12.26-25.62-17.19-2.21,0-3.59-2.53-6-2-1.09.34-2.25,1.13-3.25,1-10.43-1.69-20.5,1.43-30.75,2l-1,1c-.42,2.25-3.71,1.64-4,4,.64,0,1.28,0,1.93,0,1.2,0,2.53.37,2.58,1.65.07,1.67-1.53,1.2-2.56,1.31-.64.06-1.29,0-1.93,0-6.47.57-11.88,3.69-17.21,7.06-11.88,7.52-25,12.5-37.82,18-.07.13-.15.26-.23.39.07-.14.14-.28.2-.42,0-1,0-2,0-3-2.43-.32-4.7.44-7,1-3.88,5.18-9.23,8.85-13.78,13.34-2.57,2.55-4.66,5.23-5.18,8.79-1.23,8.3-3.08,16.57-1.5,25.07.52,2.82-2.75,4.16-3,7.07-.15,1.88-.12,3.15,1,4.34l.37.35c1.7-.54,3.36-1.25,5.08-1.66.34-.09.67-.16,1-.22,9.53-1.57,12.85-5.42,13-15.33,0-1.61.61-3.23.78-4.72.68-5.85,5.62-9,8.14-13.61,2.93-5.4,7.08-10.27,13.44-12.31,5.26-3.27,9.45-8.23,15.68-10a.67.67,0,0,1,.72-.24c2.28-1.28,4.54-2.6,7.26-2.66,2.34-.79,4.72-1.47,7-2.39,5.8-2.35,12.52-1.24,18-4.86,1.53-3.63,4.69-1.29,7-1.92a2.33,2.33,0,0,1,1.58-2.29,29.32,29.32,0,0,1,20.88-.66c6.29,2.3,12.1,6.13,18.57,8.29,2.21.74,4.37,2.73,6.93.66,1.7-1.39,1.83.28,2.21,1.29,1,2.71,3.08,3.75,5.84,3.7,2.17-1.39,3.32-3.68,6.88-3.79C326,57,324.82,52.46,325.07,49.8Zm-143,40.08a3.18,3.18,0,0,1-.06.43,2.59,2.59,0,0,1-.09.4.57.57,0,0,1,0,.14,2.47,2.47,0,0,1-.1.29l-.15.29a2.2,2.2,0,0,1-.21.32,1,1,0,0,1-.2.22.8.8,0,0,1-.17.15,1.06,1.06,0,0,1-.26.17,1,1,0,0,1-.17.1,3.48,3.48,0,0,1-1.51.32c-.87,0-2.06-.59-1.49-1.29,1.32-1.63.85-4.67,3.3-5.09a.85.85,0,0,1,.74.13l.08.08a.27.27,0,0,1,.09.12.48.48,0,0,1,.09.19.84.84,0,0,1,0,.17.29.29,0,0,1,0,.09,3,3,0,0,1,0,.33,1.15,1.15,0,0,1,0,.19,1.77,1.77,0,0,1,0,.24c0,.33,0,.68,0,1h0l0,.18A7.63,7.63,0,0,1,182.05,89.88Zm78.07-40h0Z"/><path class="cls-11" d="M354,170.81a123.66,123.66,0,0,0-5-28.89,4.26,4.26,0,0,1-.35-.62c0-.08.09-.22.14-.33l-.75-2.14-1.93-4.33c-.2.86-.4,1.69-.59,2.5s-.14,1.39-.26,2.18a42.5,42.5,0,0,1-1.82,7.68c1.66.16,2.33,1.19,2.59,2.83,2.06,13.52,4.95,27,3.91,40.76-.77,10.19-1.41,20.5-4.43,30.35-3.5,11.39-7.41,22.68-12.84,33.31-2.28,4.46-3,10.58-9.55,11.75.11,2.63-1.31,4.22-3.95,5.54.24-2.92.8-5.08,3.82-5.65h0c-.62-3.91,2.07-7.44,1.55-11.62-2.32.91-2.54,2.93-3.31,4.43A55.55,55.55,0,0,1,311,272.48c-2,2-5.52,2.46-5.71,6.31-.05.82-1.88,2.52-2.52,1.41-2.53-4.37-4.65-1-7.13-.18-2.3.73-3.6,4.4-6.82,2.41-1,2.72-6.38.08-5.83,4.72.21.39.42.78.64,1.16,1.94-1.93,3.31-1,4.65.05l.52.41c.17.13.34.26.52.38a4.4,4.4,0,0,0,.8.47h0c.17-.6.34-1.19.52-1.79a5.21,5.21,0,0,1,.12-1.06,1.63,1.63,0,0,1,1.07-1.22c.25-.08.82.79,1.24,1.22,3-.53,5.65-2.83,9-1.94l.95-.16a1.74,1.74,0,0,1,2.05-.7c1.24-1.16,1.81-3.17,4-3.14a7.09,7.09,0,0,1-3.81,7c-9.67,8-20.44,12.41-33.27,12.21-15.38-.24-30.61-.4-43.88-9.79-1.08-.77-2.2-1.47-3.27-2.26-.23-.16-.28-.55-.41-.84,2.1-1.29,3.7.92,5.63.8.45-2.13-1-2.6-2.54-3.55-14.14-8.94-26.63-19.77-35.92-33.81-7.93-12-12.38-25.48-15.21-39.45-2.48-12.28-6-24.51-3.33-37.31.55-2.58.57-5.08,4.09-5a10.55,10.55,0,0,1-4.38-2.41,22.23,22.23,0,0,0-2.63-1.9,7.15,7.15,0,0,0-2-.8,6,6,0,0,1,.09,5.56c0,.84.07,1.69.11,2.53a23.17,23.17,0,0,1,.4,3.4c-.52,20.85,3.64,40.91,10.33,60.51,6.18,18.09,18.22,31.78,33,43.36l10.81,5.38c-.25.51-.5,1-.74,1.53l-11-6h0c-5.22-2-8.78-6.56-14.13-9.69.55,2.94.95,5,1.34,7.12,3.27.52,5.13,3.09,7,5.29,10.77,12.58,25,19.91,39.69,26.6a50.7,50.7,0,0,0,22.19,4.34,56.91,56.91,0,0,0,35.63-12.86c11.21-9,21.49-19.19,33.24-27.57a5.51,5.51,0,0,1,4.07-1.38,32.67,32.67,0,0,0,.07-11.88c-3.3,2.54-4.3,7.14-9.28,7.85,11.8-13.8,16.73-30.06,20-46.76C354.18,204.49,354.05,187.61,354,170.81ZM309.24,280.72l.93-.67.21.41Z"/><path class="cls-10" d="M230.34,161.38a14.23,14.23,0,0,0,2.34-2.7A20.11,20.11,0,0,1,230.34,161.38Zm-38.93-20.12c-.07.1-.15.2-.22.32l.23-.32Z"/><path class="cls-10" d="M238.36,145.15c-.93-3.72-4-1.88-6.16-2.36.07,1.74.94,4.18-2,4-3.56-.23-6.5,1.3-9.52,2.6-8.28,3.55-16.9,3.09-25.56,2.47a29,29,0,0,0-3.47-.23c-1.39.07-3.23,1.51-3.91-.49-.5-1.46,1.23-2.63,2.33-3.58,10.16-8.8,21.84-10.54,34.56-7.26,6.64-2.75,7.35-8.93,1.55-13.45-3.69-2.88-8.27-4.61-11.15-8.54h-2.92c-.35.4-.69.37-1-.06l-4,0-1.41.23a132.92,132.92,0,0,0-20.58,2.27c2.25,12.79-4.3,23.77-7.3,35.48-.79,3.09-1.47,6.11.3,9.08a5.59,5.59,0,0,0,2.84,1.39h0a6.53,6.53,0,0,0,1.1.09,158.39,158.39,0,0,0,19.13.15c-.87-1.38-2.29-1.08-3.58-1.15-2.44-.14-4.44-1.19-4.25-3.8.18-2.46,2.54-2.07,4.33-2.18,6.56-.39,13.18.87,19.7-1.47,3-1.07,5.39-2.15,7-4.93.64-1.09,1.6-3.19,3.25-1.68,1.23,1.12.27,2.87-1,3.89-3,2.51-4.22,5.92-5.19,9.5a4.74,4.74,0,0,1-.46.62,20,20,0,0,0,4.57-1.15,17.72,17.72,0,0,0,1.63-.71,20.72,20.72,0,0,0,3.12-2.52,20.11,20.11,0,0,0,2.34-2.7,21.3,21.3,0,0,0,2.61-4.83c.63-1.32,1.15-2.45,1.53-3.3,1-2.17,1.26-2.93,1.47-3.54a19.69,19.69,0,0,0,.72-2.52l.09-.46ZM191,140.67c.51-.47,1-.94,1.53-1.43h0c7.78-5.42,16.36-6.86,25.57-5.26,2.63-.17,5,.67,8.51,1.66-3.65,2-6.06.19-8.52-.26-8.9-1.86-16.94.79-24.75,4.68l-1.9,1.2-.23.32-.28.41-.13.16-.18.2a.67.67,0,0,1-.16.14.42.42,0,0,1-.12.08.38.38,0,0,1-.13.06.45.45,0,0,1-.16,0,.74.74,0,0,1-.54-.33C188.76,141.42,190.16,141,191,140.67Z"/><path class="cls-11" d="M236.45,157.64c-.81,1.41-1.79,2.74-2.68,4.12A38.86,38.86,0,0,0,236.45,157.64Zm-4.19,5.42a1.74,1.74,0,0,0-.1.19l.25-.22h-.22Z"/><path class="cls-11" d="M288.14,176.68c-.48,4-3,5-6.36,3.74a50.21,50.21,0,0,1-7-3.8c-1.08-.61-2-1.6-1.49-2.82,1.1-2.52.64-6,3.3-7.49s4,1.52,5.89,2.63c.54.31,1.17.46,3.05,1.19-2.09-3-.29-5-.47-7.31-9.94-2.11-15.22-9.35-19.12-17.83-2.26-4.91-3.86-10.13-5.75-15.22-5.09-5.68-13.13-3.81-17.42,4.07a3.84,3.84,0,0,1-.69,3,41.85,41.85,0,0,1-.23,4.63,29.35,29.35,0,0,1-.73,4.85,11.86,11.86,0,0,1-.61,2.19l0,.1a30.51,30.51,0,0,1-1.89,4.5,36.64,36.64,0,0,1-1.55,3.34c-.07.15-.15.3-.23.45s-.25.48-.39.72a38.86,38.86,0,0,1-2.68,4.12c-.41.41-.86.84-1.36,1.27l-.25.22h0l-1.31,2.32c1.76,1.13.74,2.13-.16,3.12-1.56,1.73-2.78,3.61-2.62,6.08l0,0a4.58,4.58,0,0,0,3.64-1.24c1.17-1.2,2.53-2.61,4.24-1.12a4.5,4.5,0,0,1,.74,5.54,15.84,15.84,0,0,1-4.51,5.81c-3.39,2.41-3.28-2.74-5.56-3.12-2,5,.33,8.29,4.35,10.89.26,2,1.5,2.51,3.22,2A20.48,20.48,0,0,1,250.15,195c5.58,3,10.29,1.63,14.51-2.39,2.38-2.26,5.08-2.74,8.2-2.88,3.92-.17,8,1,11.78-.85C287.87,185.41,291.05,181.92,288.14,176.68Zm-40.33,10.23-.35-.26c-.24-.18-.48-.34-.71-.49l-.37-.23-.59-.33-.27-.13c-.21-.1-.41-.19-.62-.27a6.84,6.84,0,0,0-.72-.25c-.12,0-.24-.07-.36-.09a3.15,3.15,0,0,0-.42-.09,5,5,0,0,0-.65-.08h-.25a5.65,5.65,0,0,0-1.53.12l-.18,0h0a1.72,1.72,0,0,0-.28.08,2,2,0,0,0-.38.11,3.89,3.89,0,0,0-.44.16l-.6.27-.61.33-.27.17a9.75,9.75,0,0,0-1.05.75.61.61,0,0,0,0,.14l-.13.08v0a1.05,1.05,0,0,1-.12.21c-.05.05-.19,0-.3,0l.42-.25h0l.06-.16.08-.06a3.28,3.28,0,0,1,0-.56,2.71,2.71,0,0,1,.09-.51.86.86,0,0,1,.06-.23.62.62,0,0,1,.07-.23,2.34,2.34,0,0,1,.26-.58.7.7,0,0,1,.09-.17,1.27,1.27,0,0,1,.13-.19,1.24,1.24,0,0,1,.14-.18,2.23,2.23,0,0,1,.26-.27l.19-.16a1.37,1.37,0,0,1,.21-.15,1.13,1.13,0,0,1,.2-.13l.21-.11.11-.05a.46.46,0,0,1,.19-.08,5.21,5.21,0,0,1,1.29-.34,4.62,4.62,0,0,1,.65-.07l.6,0H242c3.11,0,6,.73,7.51,5.72A20.2,20.2,0,0,0,247.81,186.91Zm-5.33-13.64a12.85,12.85,0,0,1-.52-3.5c.31-7.89,3.18-14.92,3.59-22.42.18-3.27-.06-6.68.72-9.87.61-2.48.2-6.15,4-6.58a7.83,7.83,0,0,1,8.67,5.27,60.24,60.24,0,0,1,3.25,10.94c1.09,6.08,3.58,11.68,5.28,17.54,2.13,7.34-.36,11.78-8,14.5C252.91,181.47,244.76,178.72,242.48,173.27ZM263,187.06c2.14-4.61,5-6,8.28-6.23,2.59-.18,5.47,0,7.57,4.69C272.73,181,268.3,183.22,263,187.06Z"/><path class="cls-6" d="M286.08,26.77c-1.09.34-2.25,1.13-3.25,1-10.43-1.69-20.5,1.43-30.75,2-4.35-4.58-9.8-3.26-14.92-2.41-7.7,1.28-13.63,5.79-19.85,10.44-8.67,6.48-18.57,11.32-27.93,16.88-2.34,1.38-4.52,2.9-4.31,6.1-3.88,5.18-9.23,8.85-13.78,13.34-2.57,2.55-4.66,5.23-5.18,8.79-1.23,8.3-3.08,16.57-1.5,25.07.52,2.82-2.75,4.16-3,7.07-.15,1.88-.12,3.15,1,4.34l.37.35a3.82,3.82,0,0,1-1.06,0c-2.64-.36-1.87-4-3.8-5,1.33-14.87,2.13-29.86,9.44-43.43.77-1.42.41-2.93.54-4.4,4.35-.68,1.89,3,2.59,4.45.44,0,.67.11.76,0,7.23-6.62,9.8-17.33,19.26-22,1.07-5.8,6.38-6.4,10.43-8.66,12.35-6.91,24.53-14.13,37.94-18.91,1.49,3.72,4.43,1.94,6.74,1.54a135.36,135.36,0,0,1,35.27-1.53C283.69,22.52,284.48,25.05,286.08,26.77Z"/><path class="cls-11" d="M204.45,71.9c5.27-3.27,9.46-8.23,15.69-10-.21,2.26-1.82,3.62-3.55,4.49-4.44,2.24-7,6.38-10.54,9.53-9.92,8.87-9.87,22.53-16.71,32.79-.52.77,0,2.24,0,3.38l-.1-.11c-.57.05-1.91-.82-1.08.9a12.52,12.52,0,0,1-5.79,2.53c1.51-10.74,3.88-21,10.29-29.62C196.31,80.94,200.52,76.52,204.45,71.9Z"/><path class="cls-11" d="M293.11,109.92c-.54,2.37-2.69,3.46-4.4,4.35a24.88,24.88,0,0,0-9.92,8.7,97.08,97.08,0,0,1-12,16.13c-2.83-5-3.09-10.56-3.33-16.12l1.53-3.34c.52-.4,1-.78,1.57-1.14s1.07-.71,1.61-1c.82-.49,1.65-.94,2.48-1.35a47.14,47.14,0,0,1,7.82-3C283.26,111.76,288.22,110.92,293.11,109.92Z"/><path class="cls-11" d="M239.89,129.23q-.25,6.26-.53,12.53a2.45,2.45,0,0,1,0,.27c0,.58,0,1.16-.07,1.74l-.17.26-.74,1.12c-.93-3.72-4-1.88-6.16-2.36-2-2.37-5.18-1.34-7.61-2.51,6.64-2.75,7.35-8.93,1.55-13.45-3.69-2.88-8.27-4.61-11.15-8.54a25.74,25.74,0,0,1,2.75-.24,34,34,0,0,1,5,.2,83.73,83.73,0,0,1,10.23,2c2.92.72,4.59,3,6,5.56C239.28,127,239.59,128.1,239.89,129.23Z"/><path class="cls-11" d="M178.07,165.33a5.59,5.59,0,0,0,2.84,1.39c-1.27-.1-2.34-.21-3.13-.3a16,16,0,0,1-4.77-3.13c-.4-.95-1-1.22-1.79-2q-.54-.74-1.05-1.5c3.4-1.55-.19-4.76,1.6-6.68,4.6.92,1.62-2.78,2.51-4.12l-.06,0h0a2.73,2.73,0,0,0,.21-.3,2.38,2.38,0,0,0,.18-.3,1.77,1.77,0,0,0,.15-.31,1.21,1.21,0,0,0,.11-.3,4.06,4.06,0,0,0,.22-1.09,3.4,3.4,0,0,0,0-.45c0-.77,0-1.56,0-2.33,3.48-5.86,3.6-12.62,4.73-19,.63-3.6,2.19-4.32,5.19-4,2.25,12.79-4.3,23.77-7.3,35.48C177,159.34,176.3,162.36,178.07,165.33Z"/><path class="cls-11" d="M173,163.29c-.18-.17-.36-.34-.52-.52l-.47-.52q-.22-.25-.42-.51l-.38-.49C172,162.07,172.61,162.34,173,163.29Z"/><path class="cls-11" d="M174.87,147.69a5.69,5.69,0,0,0,.22-1.09A4.06,4.06,0,0,1,174.87,147.69Z"/><path class="cls-11" d="M226.67,155.64c-3,2.51-4.22,5.92-5.19,9.5a4.74,4.74,0,0,1-.46.62c-7.76.65-14.46,1-19.85,1.2-.87-1.38-2.29-1.08-3.58-1.15-2.44-.14-4.44-1.19-4.25-3.8.18-2.46,2.54-2.07,4.33-2.18,6.56-.39,13.18.87,19.7-1.47,3-1.07,5.39-2.15,7-4.93.64-1.09,1.6-3.19,3.25-1.68C228.85,152.87,227.89,154.62,226.67,155.64Z"/><path class="cls-5" d="M225.11,114.73a110.73,110.73,0,0,0-11.08-.85c-1.74,0-3.49-.06-5.25,0-1,0-2,0-3,.08s-2,.09-3,.16l-2,.15c-2.06.15-4.17.36-6.29.63h0c-.74.08-1.5.18-2.25.28l-.15,0,0,0c2.4-3.89,5.64-4.57,8-6.37,5.39-.32,10.4-3.54,16-2,.32.78.68.73,1.09.07l1.83-.89C218.69,110.47,223.91,111.21,225.11,114.73Z"/><path d="M319.88,107.16h-.46v0h.25a.88.88,0,0,1,0-.17A1.7,1.7,0,0,0,319.88,107.16Z"/><path d="M324.37,107.1h-1.78l.48-.07h.14Z"/><path d="M331.64,107.24l-.53,0-1.56,0A13,13,0,0,1,331.64,107.24Z"/><path d="M332.19,102.58s0,0,0,.07l-.62-.06Z"/><path class="cls-3" d="M233,115.81v0l-.33,0-7.56-1c-1.2-3.52-6.42-4.26-6.12-8.82,0-.3.09-.6.13-.9C227.48,105.19,232.92,109.42,233,115.81Z"/><path d="M219.12,105c0,.3-.08.6-.13.9l-1.83.89-1.08-.07c-5.62-1.49-10.64,1.73-16,2,0-.3,0-.6,0-.9C206.13,104.82,212.53,104.32,219.12,105Z"/><path d="M226.33,118.46c-1.18-.09-2.33-.16-3.54-.21l-5-.2c-.83,0-1.72-.08-2.68-.13A112.4,112.4,0,0,1,226.33,118.46Z"/><path d="M172.74,166.36a20.9,20.9,0,0,1-2.63-1.9A22.23,22.23,0,0,1,172.74,166.36Z"/><path d="M232.68,158.68a14.23,14.23,0,0,1-2.34,2.7A20.11,20.11,0,0,0,232.68,158.68Z"/><path d="M232.16,163.25a1.74,1.74,0,0,1,.1-.19l-.07,0h.22Z"/><path d="M236.45,157.64a38.86,38.86,0,0,1-2.68,4.12C234.66,160.38,235.64,159.05,236.45,157.64Z"/><path d="M239.34,142c0,.58,0,1.16-.07,1.74l-.17.26A16,16,0,0,0,239.34,142Z"/><path class="cls-11" d="M169.42,141.29c2.09-1.66-3.16-4.28-.16-4.76,1.77-.29,3.07,3.92,3.77,6.5.29,1.1-.31,2.78-1.49,2.64C169.23,145.39,169.12,143.42,169.42,141.29Z"/><path class="cls-10" d="M170.17,159.75c-1.71-2.82-1-6-1.38-9.05-.08-.56.08-1.47.89-1.25.48.14.76,1,1.14,1.5.31.71.63,1.41,1,2.12C170,155,173.57,158.2,170.17,159.75Z"/><path d="M171.77,153.07c-.32-.71-.64-1.41-1-2.12,1.23-.53,1.69-2.4,3.46-2C173.39,150.29,176.37,154,171.77,153.07Z"/><path d="M175.15,143.82c0,.77,0,1.56,0,2.33a3.4,3.4,0,0,1,0,.45,4.06,4.06,0,0,1-.22,1.09c0,.1-.07.2-.11.3a1.77,1.77,0,0,1-.15.31,2.38,2.38,0,0,1-.18.3,2.73,2.73,0,0,1-.21.3h0q0-.33,0-.66c0-.35-.07-.71-.11-1.06,0-.07,0-.15,0-.23s0-.41,0-.62A3,3,0,0,1,175.15,143.82Z"/><path d="M168.16,163.66a6,6,0,0,1,.09,5.55Z"/><path d="M250.34,116.69l-3.23.11A3.92,3.92,0,0,1,250.34,116.69Z"/><path class="cls-12" d="M188.21,112.89c-.83-1.72.51-.85,1.08-.9C189.31,112.75,188.75,112.81,188.21,112.89Z"/><path class="cls-11" d="M212.08,118.28c-.36.41-.69.38-1,0Z"/><path class="cls-11" d="M207.06,118.27l-1.41.23Z"/><path class="cls-9" d="M239.09,21.78c-13.41,4.79-25.6,12-38,18.92-4,2.26-9.35,2.86-10.42,8.66-9.47,4.67-12,15.38-19.27,22-.08.08-.32,0-.76,0-.69-1.47,1.76-5.13-2.58-4.45,3.1-4.3,5.32-9.2,9-13.09,1,3.37,2.34,1.11,3.28.11,3.31-3.5,7.36-6.68,9.44-10.83,1.73-3.45,6.79-6.13,4.2-11.28,5.54-7.79,12.2-14,22-16,.37,2.79,1.66,2.9,4.16,2,15.27-5.36,31.18-5,47-4.91a4.25,4.25,0,0,1,4.28,2.91c-4.08-.28-7.74.13-11.52-.48-5.5-.89-11-.83-16,2.4-1.91,1-4,1.84-5,4.05Zm-28,4c-.94.13-2,.14-2.25,1.34,0,.12.37.5.59.51,1.29.09,1.56-.82,1.67-1.84a1.26,1.26,0,0,0,.33-.16c.06,0,.06-.16.08-.25Zm-3.68,3.49c-5.23,1.13-6.47,2.23-7.79,7.1Zm10-8.35c-1.47-.05-2.61.09-2.9,1.74,0,.21.29.71.44.7C216.33,23.37,217.18,22.67,217.36,20.93Z"/><path class="cls-5" d="M244,17.75c5-3.23,10.47-3.29,16-2.4,3.78.61,7.44.2,11.52.48a4.25,4.25,0,0,0-4.28-2.91c-15.86-.1-31.77-.45-47,4.91-2.5.88-3.79.77-4.16-2a60.3,60.3,0,0,1,18.88-6.1c3.78-.5,7.45-1.9,11.17-2.89,3.23-1.14,5.4,1.87,8.39,2.08a129.54,129.54,0,0,0,25.59-1.11c1.39,1.67,3.3.77,5,1,9.83,3,19.34,6.64,26.34,14.76,1,1.11,2,2.29,3.69,2.24.1,2,1.55,2,3,2h0c-1,2.54,2.86,4.4,1,7.05-4.22-2.72-7.27-7-12-9-1.89-2.16-3.93-4-7.07-3.94-.31,0-.62,0-.93,0-.53-2.3-1.3-4.12-4-2-1.61.11-3.67-.71-4,2-2.69,2.76,2.21,4.42,1,7-2.22,0-3.6-2.53-6-2-1.6-1.72-2.39-4.25-5-5-1.27-2.64-3.52-3-6.19-3-10-.08-19.92-.59-29.81,1.07Zm30.78-5.23c4.05,2.86,8.8,3.26,13.53,3.67C284.1,14,279.81,12,274.82,12.52Z"/><path d="M307.08,25.77c4.72,2.06,7.77,6.33,12,9.05a55.94,55.94,0,0,0,13,13h0a2.82,2.82,0,0,0,3,3c3.15,3,2.77,7.58,5,11-3.75,3.6-.33,5.15,2,7,.56.6,1.64,1.25,1.59,1.78-.47,4.67,2.51,8.67,2.44,13.23C345,85.11,344.29,87.64,342,86c-1.61-1.2-2.21-3-.69-5.23,1.24-1.81,1.13-3.41-1.33-5.26a24.93,24.93,0,0,1-10.19-18.13,9.82,9.82,0,0,0-4.75-7.53c-1.43,0-2.88.05-3-2-5.18-6.46-9.7-13.47-15.93-19.06a7.19,7.19,0,0,1-.15-.91A2.41,2.41,0,0,1,307.08,25.77Z"/><path class="cls-5" d="M325.07,49.8a9.82,9.82,0,0,1,4.75,7.53A24.93,24.93,0,0,0,340,75.46c2.46,1.85,2.57,3.45,1.33,5.26-1.52,2.22-.92,4,.69,5.23,2.26,1.69,3-.84,4.09-2.14,2.64,2.81,3.44,6.36,4,10-.47,2.34-1.41,2-2.35.33-3-5.17-9.61-7-11.81-12.92a1.1,1.1,0,0,0-2-.41,5.41,5.41,0,0,0-.79-.21C331,75.86,328,72.45,322.05,74c-.27-.45-.53-.91-.79-1.36.31-.48.63-.95.95-1.43l-.64-.27-.27,1.73C319,68,313.67,67.72,310.19,64.8c2.73-.2,6.51,1.17,5.95-4,2.17-1.39,3.32-3.68,6.87-3.79C326.05,56.94,324.83,52.45,325.07,49.8Z"/><path d="M280.08,7.79A129.54,129.54,0,0,1,254.49,8.9c-3-.21-5.16-3.22-8.39-2.08.39-.29.8-.84,1.17-.82,9.72.49,19.09-3.6,28.87-2.19C275.84,6.74,278.93,6.3,280.08,7.79Z"/><path d="M315.09,25.81c-1.71.05-2.73-1.13-3.69-2.24-7-8.12-16.51-11.73-26.34-14.76.86-2,2.24-1.95,4-1.17,2.88,1.29,6,1.27,9,1.15,1,1.45,3.45.88,4,2.93a7.46,7.46,0,0,0,6,4.07l0,0a1.77,1.77,0,0,0,2,2l0,0a1.81,1.81,0,0,0,2,2h0a1.83,1.83,0,0,0,2,2h0Z"/><path class="cls-6" d="M194.05,31.8c2.59,5.15-2.47,7.83-4.2,11.28-2.08,4.15-6.13,7.33-9.44,10.83-.94,1-2.31,3.26-3.28-.11l15-20.94,1-1C193.45,31.82,193.75,31.82,194.05,31.8Z"/><path class="cls-6" d="M332.09,47.81a55.94,55.94,0,0,1-13-13c1.9-2.65-2-4.51-1-7,4.71,2.55,6.35,7.7,9.39,11.6C329.35,41.75,332.53,44,332.09,47.81Z"/><path class="cls-6" d="M298.09,8.79c-3.08.12-6.17.14-9-1.15-1.74-.78-3.12-.8-4,1.17-1.68-.25-3.59.65-5-1-1.15-1.49-4.24-1-3.94-4A40.86,40.86,0,0,1,298.09,8.79Z"/><path class="cls-6" d="M342.09,68.8c-2.34-1.85-5.76-3.4-2-7C341.07,64,342.79,66.07,342.09,68.8Z"/><path class="cls-6" d="M315.09,25.81l-1-4a5.86,5.86,0,0,1,4,6C316.64,27.82,315.19,27.85,315.09,25.81Z"/><path class="cls-6" d="M308.07,15.79a7.46,7.46,0,0,1-6-4.07C305.08,11.61,307.23,12.74,308.07,15.79Z"/><path class="cls-6" d="M335.11,50.8a2.82,2.82,0,0,1-3-3C334.05,47.83,334.34,49.55,335.11,50.8Z"/><path class="cls-6" d="M310.07,17.79a1.77,1.77,0,0,1-2-2A1.75,1.75,0,0,1,310.07,17.79Z"/><path class="cls-6" d="M312.08,19.8a1.81,1.81,0,0,1-2-2A1.76,1.76,0,0,1,312.08,19.8Z"/><path class="cls-6" d="M314.08,21.8a1.83,1.83,0,0,1-2-2A1.8,1.8,0,0,1,314.08,21.8Z"/><path class="cls-9" d="M193.15,31.82l-1,1Z"/><path class="cls-10" d="M340,128.9h0l.12,0Zm-.83,19.45s0,0,0,0l-.15.37c.09-.21.19-.41.28-.62a.36.36,0,0,0,0-.09c.39-.92.73-1.85,1-2.77.1-.33.19-.65.27-.95l.15-.57c0-.24.11-.48.16-.72A40.1,40.1,0,0,1,339.12,148.35ZM322.39,137.6c-.81-.47-1.62-.9-2.43-1.3l.54.31c1.56.92,3.35,1.51,3.61,3.82-1.09.27-2.19.52-3.28.76l-1.77.38c-.84.18-1.68.35-2.52.5s-1.67.31-2.51.45c-1.34.23-2.68.43-4,.62l-2,.26-2,.23c-1.32.14-2.63.26-3.95.36l-2,.14c-.68.05-1.36.08-2,.11l-2,.08c-1.39.05-2.79.07-4.18.07l-2.61,0c1.12.22,2.24.5,3.36.75,8.8,1.94,17.19-.12,25.58-2.35a30.88,30.88,0,0,1,3.37-.87c1.37-.19,3.45.88,3.74-1.21C325.56,139.15,323.64,138.33,322.39,137.6Zm.82-30.56h-.14l-.48.07h1.78Zm-36.14,29.88c-2.16,1.6-5.45,1.18-7,3.89l0,.22a.4.4,0,0,1,.12-.15.93.93,0,0,1,.14-.14,1.45,1.45,0,0,1,.36-.28,3.37,3.37,0,0,1,.32-.19,3.18,3.18,0,0,1,.32-.16c.55-.27,1.14-.48,1.58-.74q1.21-.72,2.43-1.38l.65-.35c.66-.36,1.33-.7,2-1l.59-.29c.76-.37,1.52-.71,2.28-1C289.62,135.77,288.35,136.32,287.07,136.92Zm-5,7.23-.25,0a2.66,2.66,0,0,1-.39-.07,3,3,0,0,1-.32-.09l-.07,0a1.71,1.71,0,0,1-.27-.14,2.2,2.2,0,0,1-.25-.17c.31.68.94,1.07,2.3.72l.8-.18C283.11,144.16,282.57,144.19,282.07,144.15Z"/><path class="cls-12" d="M338.52,127.81c-2.4-2.14-1.49-5.8-3.7-8-2-1.64-4.36-2.87-3.56-6.38.57-2.54-3.85-3.12-3.24-6.1l-3.4-.19h-2.08l-2.66,0h-.46c-3.06.09-5.89.25-8.47.45q-2.44.19-4.62.42c-5.44.57-9.73,1.29-13.22,1.88-.54,2.37-2.69,3.46-4.4,4.35a24.88,24.88,0,0,0-9.92,8.7,97.08,97.08,0,0,1-12,16.13c6.91,17.9,13.19,22.06,32.25,21,.71,0,1.43-.09,2.14-.15h.05l1.52-.14,1.47-.15c1.12-.12,2.23-.26,3.35-.4l.73-.09c1.85-.24,3.7-.48,5.55-.69a.44.44,0,0,1,.3-.13.43.43,0,0,1,.25.08h0v0a1.87,1.87,0,0,1,.63-.65c-.48-2.81-2.71-1.8-4.37-2-7-.87-14.16.74-21-1.94-1-.41-2.26-.34-3.22-1.13-1.85-1.52-5.7-2.74-4.66-5,1.2-2.59,3.48.89,5.37,1.37a65.15,65.15,0,0,0,32.32.26c5.17-1.32,7.5,2,10.49,4.63a11.44,11.44,0,0,0,3.11-.77,12.18,12.18,0,0,0,2.61-1.41,15.37,15.37,0,0,0,2.92-2.74s0,0,0,0l.28-.33.15-.37s0,0,0,0a40.1,40.1,0,0,0,1.76-5.33,24,24,0,0,0,.55-4.45Q340.64,138.67,338.52,127.81Zm-33.86.84a5.91,5.91,0,0,1,.69-.19.31.31,0,0,1,.13,0c.23-.06.46-.1.69-.14a7.58,7.58,0,0,1,.81-.13l.8-.07h.11l.66,0a17.74,17.74,0,0,1,4.24.56c.49.12,1,.25,1.47.4,1.44.42,2.86.93,4.28,1.41l1.64.52c.55.16,1.1.32,1.66.45-.1.53-.19,1.07-.29,1.6l-17.45-4.17C304.29,128.77,304.47,128.7,304.66,128.65Zm-1.78-1.24a.3.3,0,0,1,.15,0,.4.4,0,0,1,.12.11.46.46,0,0,1,.07.07,2.23,2.23,0,0,1,.2.3l.12.21.16.29a3.28,3.28,0,0,0,.22.37h.1l.05,0-.1,0h0a.16.16,0,0,1,0-.07c-7.52-1-14.51,1-21.38,3.93C288.49,127.56,295.54,126.84,302.88,127.41Zm18.72,14.48a30.88,30.88,0,0,0-3.37.87c-8.39,2.23-16.78,4.29-25.58,2.35-1.12-.25-2.24-.53-3.36-.75l-1.57,0-1.53-.06-1.9-.09h-.67l-.8.18c-1.36.35-2,0-2.3-.72A1.81,1.81,0,0,1,280,143l-.06-.14a.94.94,0,0,1-.06-.15,1.69,1.69,0,0,1,.19-1.65l0-.22c1.54-2.71,4.83-2.29,7-3.89,1.28-.6,2.55-1.15,3.83-1.62l0,0,.21-.09,1.34-.53c.36-.14.73-.28,1.1-.4l.44-.15a1.13,1.13,0,0,1,.24-.08c.32-.12.65-.22,1-.32l.05,0c.44-.14.89-.27,1.33-.38s.95-.25,1.43-.36.9-.2,1.35-.27.93-.17,1.4-.23.93-.12,1.4-.16a8.31,8.31,0,0,1,.86-.07,2,2,0,0,1,.35,0l.44,0c.39,0,.78,0,1.18,0q.95,0,1.89.06c.32,0,.64,0,.95.08.64.07,1.28.15,1.91.26a28.9,28.9,0,0,1,5.51,1.52l.82.33c.36.15.73.31,1.09.48l.74.35c.67.32,1.34.67,2,1.06a0,0,0,0,1,0,0c.81.4,1.62.83,2.43,1.3,1.25.73,3.17,1.55,2.95,3.08C325.05,142.77,323,141.7,321.6,141.89Z"/><path class="cls-10" d="M370.27,181.78c-2,6.29-.78,13.56-5.72,19.06-1-1-.34-2.06-.49-3,0-.51.29-1.23-.58-1.28-.12,0-.28.74-.42,1.14a.6.6,0,0,1-.5.39l-3.49-.28c-.56-.09-.9-.37-.76-1l.81-.87c.37-1.37.74-2.74,1.1-4.1,1.06-.09,2.27.16,2.8-1.19s1.54-1.55,2.45-2.22c1.07-.78,1.36-2.1-.45-2.38-2.41-.38-6.75-.58-6.56-2,.6-4.58-4-8.2-1.79-12.74l-.07-.25,2.31-4.29c2.26-4.9,6-5.41,9-1.24,1.59,2.19,1.9,4.83,2.65,7.32a.61.61,0,0,0,.18.82c0,.75,0,1.51,0,2.26a.48.48,0,0,0-.08.77C370.56,178.4,370.42,180.09,370.27,181.78Zm-5.57,11.7c-.11,0-.28,0-.32.09a1.18,1.18,0,0,0-.09.4l.55-.11Z"/><path class="cls-11" d="M338.8,102.6c-2.2,0-4.42.22-6.62.05l-.62-.06a12.15,12.15,0,0,1-2.68-.59c1.27-6.2-1.74-11.67-3-17.44-.28-1.27-.59-2.53-.89-3.8,2.73-.6,5.51,1.17,8.22-.15a5.41,5.41,0,0,1,.79.21h0a13.12,13.12,0,0,0,1.18,3.05l.39.72q.4.7.84,1.41c1.27,2.12,2.55,4.24,2.72,6.83C337.09,96,338.85,99.34,338.8,102.6Z"/><path d="M317,158.16l-1.61.2h0l-.92.12h0l1.09-.13.23,0Z"/><path d="M323.66,156.51l-.51.15h0c-2,.6-4.05,1.08-6.12,1.49,1.19-.27,2.42-.55,3.67-.88l1-.25.71-.18Z"/><path d="M339,148.74l-.28.33s0,0,0,0a15.37,15.37,0,0,1-2.92,2.74,12.18,12.18,0,0,1-2.61,1.41,21.56,21.56,0,0,0,5.63-4.3Z"/><path d="M340.88,143c-.05.24-.11.48-.16.72l-.15.57c-.08.3-.17.62-.27.95-.29.92-.63,1.85-1,2.77a.36.36,0,0,1,0,.09c-.09.21-.19.41-.28.62l.15-.37s0,0,0,0A40.1,40.1,0,0,0,340.88,143Z"/><path class="cls-11" d="M342.09,127.51c0-.1,0-.2,0-.3s0-.24,0-.36,0-.38,0-.58v-.07c0-.24,0-.49,0-.73s0-.48,0-.72l-.42-4.25c-.81-6.45-3.18-11-7.5-12.64a7.86,7.86,0,0,0-.82-.27l-.44-.11a9.35,9.35,0,0,0-1.34-.24,13,13,0,0,0-2.09-.07l-.4,0c-.36,0-.74.06-1.13.11-.61,3,3.81,3.56,3.24,6.1-.8,3.51,1.52,4.74,3.56,6.38,2.21,2.23,1.3,5.89,3.7,8q2.12,10.86,2.91,10.76a24,24,0,0,1-.55,4.45c.05-.19.1-.39.14-.59a0,0,0,0,0,0,0,41.54,41.54,0,0,0,.76-4.12,40,40,0,0,0,.33-4.32.22.22,0,0,1,0-.08,41.62,41.62,0,0,0-.15-4.49q.06-.78.09-1.59A2.64,2.64,0,0,0,342.09,127.51Zm-2.14,1.4h0l.12,0Z"/><path class="cls-11" d="M340.07,128.87l-.12,0h0Z"/><path d="M318.59,103.16c-1.48.1-3,.22-4.5.36l-.17,0c1.08-.56.73-1.87.12-3.38l4,1.68a2.11,2.11,0,0,0,.5,1.3S318.58,103.15,318.59,103.16Z"/><path class="cls-5" d="M352.85,108c-2.59-7.46-9.05-4.59-14.05-5.43.05-3.26-1.71-6.57.32-9.77,1.68,6.88,7.72,6.76,12.88,8C352.28,103.26,352.56,105.65,352.85,108Z"/><path class="cls-5" d="M358.07,145.83c-2.66-.34-1.77-2.48-2-4,1.7-1.81,0-2.83-.95-4,.37-5.42-3-10.45-1.52-17.23C355.74,129.69,359.23,137.31,358.07,145.83Z"/><path class="cls-9" d="M358.07,145.83v3c-.73,1.14-1.89.93-3,1l-1,0c0-.31,0-.62,0-.94a8.8,8.8,0,0,0,0-6c0-.32,0-.63,0-1l1.95,0C356.3,143.35,355.41,145.49,358.07,145.83Z"/><path d="M356,141.8l-1.95,0c-2.08-1.58-2.41-3.66-1.77-6.08,1.82-.53,1.59,1.74,2.77,2.06C356.07,139,357.73,140,356,141.8Z"/><path d="M348.1,133.75c0-1.31,0-2.62,0-3.94.27-1.15-.62-2.66,1.48-3.65C349.76,129,351.78,131.78,348.1,133.75Z"/><path d="M354.07,148.82c-.53-2-3.4-4,0-6A8.8,8.8,0,0,1,354.07,148.82Z"/><path d="M356.47,160.8v-5.93C356.81,156.81,358,158.73,356.47,160.8Z"/><path d="M358.9,166.77c-.77,1.42-1.53,2.85-2.3,4.28h0c-.07-.21-.14-.42-.2-.63a1.92,1.92,0,0,1-.09-.32c-.05-.2-.1-.39-.14-.58a2.26,2.26,0,0,1,.35-2.09l.15-.14A3.47,3.47,0,0,1,358.9,166.77Z"/><path d="M357.75,164.87l-.64.53-.6-1c.27-.1.57-.34.79-.27S357.6,164.62,357.75,164.87Z"/><path d="M355.09,149.8c-.12.4-.23,1.12-.36,1.13-.85,0-.52-.71-.62-1.17Z"/><path class="cls-5" d="M358.07,148.83v-2.19C359,147.37,359.3,148.1,358.07,148.83Z"/><path d="M370.77,173.67a.61.61,0,0,1-.18-.82,4.6,4.6,0,0,1,.31.53C370.92,173.45,370.82,173.57,370.77,173.67Z"/><path d="M351.08,96.79v1C350.38,97.46,350.4,97.12,351.08,96.79Z"/><path d="M370.7,176.7a.48.48,0,0,1,.08-.77A.46.46,0,0,1,370.7,176.7Z"/><path d="M349,141.92a4.26,4.26,0,0,1-.35-.62c0-.08.09-.22.14-.33A1.32,1.32,0,0,1,349,141.92Z"/><path class="cls-2" d="M185.1,332.67l-1.69-1.21c-.68-.71-1.43-1.37-2-2.13-2-2.48-4.36-5.32-3-8.44,1.13-2.62,4.45-3.08,7.36-3.17a25,25,0,0,0,10.43-2.88c3.34-1.7,4.81-1,5.8,2.25q0,7.7,0,15.39c-1.82,3-.64,6.17-.77,9.27l-1.17,1.33C196,338.21,189,337.75,185.1,332.67Z"/><path class="cls-11" d="M201.9,294.88c4.84,2.11,8,12.45,5.42,16.56-1.41,2.24-2.59-1-3.63.34Q202.79,303.33,201.9,294.88Z"/><path class="cls-11" d="M171,219.69l1.91,8.65c-2.89-5-10.1-8.16-6.85-15.59C166.84,215.69,168.06,218.31,171,219.69Z"/><path d="M212.09,279l10.82,5.38-.75,1.53-11-6Z"/><path class="cls-12" d="M171,219.69c-3-1.38-4.18-4-4.94-6.94l0,0,2.59,0C171.1,214.52,171.47,217,171,219.69Z"/><path class="cls-9" d="M201.22,341.75c.13-3.1-1.05-6.31.77-9.27C201.8,335.57,202.94,338.78,201.22,341.75Z"/><path class="cls-11" d="M168.63,212.81l-2.59,0C166.92,211,167.77,212.11,168.63,212.81Z"/><path class="cls-10" d="M364,204.77c-.75,4.33-1.37,8.08-2.06,11.82a12,12,0,0,1-2.69,6.32c-1.4,1.48-3.24,2.8-5.25,1.71-1.79-1-1-3-.57-4.54,1-3.25.47-6.62,1-9.86s.83-7.4,6.26-5.33C361.56,205.21,362.65,204.84,364,204.77Z"/><path class="cls-11" d="M359.07,197.81l3.49.28c-.74,1.13-.33,3.43-2.24,3.27C358.09,201.18,359.57,199,359.07,197.81Z"/><path class="cls-11" d="M363,190.65c-.53,1.35-1.74,1.1-2.8,1.19C360.74,190.46,362,190.94,363,190.65Z"/><path class="cls-11" d="M363.06,197.7c.14-.4.3-1.15.42-1.14.87.05.55.77.58,1.28Z"/><path class="cls-11" d="M359.12,195.94l-.81.87C358.16,196.13,358.51,195.91,359.12,195.94Z"/><path d="M183.09,331.8l-1,1Z"/><path class="cls-4" d="M302,404.89a6.33,6.33,0,0,1-3.9-1.18c-.36-1.66.67-3.66-1.2-4.95,1.75-2.9,4-4,7.16-2.06C304.49,399.7,301.69,401.9,302,404.89Z"/><path class="cls-11" d="M216.11,359.71q-3.12-2.37-6.22-4.76c1.82-2.3,3.87-2.59,6.43-1.06A58.77,58.77,0,0,1,230.56,366c2.09,2.4,6.22,2.93,6.43,7-2,.2-2.89-1.37-4-2.46C228.11,365.7,221.72,363.32,216.11,359.71Z"/><path d="M284.05,422c1.84-2.16.82-4.84,1.35-7.24.77-.83,1.23-2.12,2.74-1.85-1.84,3.41-.89,7.37-2.18,10.88-.43,1.16-1,2.93-2.44,2.49a4.81,4.81,0,0,1-3-2.94c-.42-2.19,1.48-1.26,2.6-1.21C283.52,422.49,283.81,422.39,284.05,422Z"/><path class="cls-5" d="M296.94,398.76c1.87,1.29.84,3.29,1.2,4.95C293.73,403,293.1,401.44,296.94,398.76Z"/><path d="M284.05,422c-.24.44-.53.54-.9.13A1.64,1.64,0,0,1,284.05,422Z"/><path class="cls-11" d="M309.15,222.11a6.34,6.34,0,0,1-1.76,5c-9.76,10.26-20.54,18.25-35.08,21.08-13.89,2.7-27.27,2.5-40.42-2.43-3.94-1.47-8.31-3.32-9.58-8.29,3.45.41,6.85,1.23,10.39.75q21.2-2.85,42.41-5.62c1.66-.06,3.47.75,4.89-.81,5.56-.07,10.83-1.52,16-3.31,3.16-.63,6.27-1.37,8-4.49C306.08,224.22,307.23,222.08,309.15,222.11Zm-29.48,15.26c-7.51-1.55-13.69.07-19.78,2.29-.83.3-1.84,1.33-1.31,2.35a3.55,3.55,0,0,0,3.83,1.68C268.07,242.87,273.7,241.9,279.67,237.37Z"/><path class="cls-11" d="M216.08,230.81c3-6.82,10-8.2,15.74-11,5.19-2.5,11-3.53,16.65-4.76,2.47-.54,4.58.25,6.79.87,4.25,1.21,8.37,2,12-1.66,2.76-2.73,6.07-.61,9-.44,9,.53,18.13,1,27,3.2,1.43.36,3.51.28,3.84,2.53-7.67-1.37-15.41-.2-23,.33-13.32.94-26.51,3.55-40,3.05-4.38-.17-8.4,1.75-12.49,3.12C226.53,227.79,221.7,230.63,216.08,230.81Z"/><path d="M216.08,230.81c5.62-.18,10.45-3,15.61-4.73,4.09-1.37,8.11-3.29,12.49-3.12,13.47.5,26.66-2.11,40-3.05,7.57-.53,15.31-1.7,23-.33,1.14.51,2.67-.59,3.47.77.13.23-.94,1.15-1.46,1.76-1.92,0-3.07,2.11-5.08,1.84l-1.08-.14c.56-1.68.28-2.91-1.8-2.85-3.73.1-7.55-.73-11.13,1l-2,0a65.38,65.38,0,0,0-12.38.72c-8.3,1.6-16.66,3.1-25.26,2.11S234.06,228,226,230.24a4.48,4.48,0,0,0-3.2,3.24c1.3.57,2.59,1.57,3.94,1.66,10.5.73,20.83-1.13,31.17-2.45,1.89-.24-.18-1.4-.76-2a1,1,0,0,1,0-.72c5.21-1.74,10.51.45,15.74-.41l2.21,3q-21.21,2.81-42.41,5.62c-3.54.48-6.94-.34-10.39-.75-1.87-1-3.72-2-5.59-2.92S214.35,232.38,216.08,230.81Z"/><path d="M305.23,287.78c-9.67,8-20.44,12.41-33.27,12.21-15.38-.24-30.61-.4-43.88-9.79-1.08-.77-2.2-1.47-3.27-2.26-.23-.16-.28-.55-.41-.84,2.1-1.29,3.7.92,5.63.8a6.62,6.62,0,0,0,4,2c10.32,7,22.12,7.41,33.95,7.75,3.41.33,6.8.42,10.08-.84,3.13,0,6.35.41,9-1.89l2-.21c5.05-1.52,9.17-4.53,13-8C303.22,286.81,304.48,286.55,305.23,287.78Z"/><path class="cls-11" d="M309,280.82a7.09,7.09,0,0,1-3.81,7c-.75-1.23-2-1-3.14-1.08-3.84,3.48-8,6.49-13,8l-2,.21c-2.66,2.3-5.88,1.85-9,1.89-3.28,1.26-6.67,1.17-10.08.84-11.83-.34-23.63-.8-33.95-7.75,3.17-2.91,6.28-.58,9,.54,4.23,1.72,7.77,2.77,12.7,1.08,4.25-1.46,9.55.12,14.38.35,2.68-2.32,6.24-.3,9.07-1.85h0l0,0h0c.21-.34.43-.68.66-1a3.68,3.68,0,0,1,3.07-1.82c.21.39.42.78.64,1.16,1.94-1.93,3.31-1,4.65.05l.52.41c.17.13.34.26.52.38a4.4,4.4,0,0,0,.8.47h0c.17-.6.34-1.19.52-1.79a5.21,5.21,0,0,1,.12-1.06,1.63,1.63,0,0,1,1.07-1.22c.25-.08.82.79,1.24,1.22,3-.53,5.65-2.83,9-1.94l.95-.16a1.74,1.74,0,0,1,2.05-.7C306.31,282.8,306.88,280.79,309,280.82Z"/><path class="cls-11" d="M286.39,247.24c-10.66,7.08-21.71,12.21-34.73,7.61C263.6,254,275,250.44,286.39,247.24Z"/><path class="cls-11" d="M326,217c-.25.85-.53,1.58-1.57,1.51a1.27,1.27,0,0,1-1.22-1.31c-.13-7.75-4.78-13.71-9-21.23C322.13,199.3,327.92,210.71,326,217Z"/><path class="cls-11" d="M215.54,215.89c-2.79,4.3-4.9,7.65-7.12,10.91-.74,1.08-1.83,2.35-3.28,1.62-1.85-.94-.9-2.54-.36-3.91C206.54,220.09,209.56,217.15,215.54,215.89Z"/><path class="cls-4" d="M290.93,182.43c-.69,3.4-2.3,6.16-6.29,6.45,3.23-3.47,6.41-7,3.5-12.2-.06-2-2.2-3.24-2-5.41A11.52,11.52,0,0,1,290.93,182.43Z"/><path d="M231,191.58c-3.29.7-5.09-1.32-6.08-3.87-1.19-3.06-2.07-6.35,1.15-9l.19.24.29-.08c0,.59.07,1.19.1,1.79C224.61,185.71,227,189,231,191.58Z"/><path class="cls-1" d="M279.25,290h0l0,0Z"/><path class="cls-1" d="M279.28,290c.21-.34.43-.68.67-1-.23.32-.45.66-.66,1Z"/><path class="cls-1" d="M290.15,289.61h0a4.4,4.4,0,0,1-.8-.47A5,5,0,0,0,290.15,289.61Z"/><path class="cls-11" d="M226.55,178.9l-.29.08-.19-.24c.17-1.57-.84-3.73,2-4l0,0C228,176.35,228.72,178.17,226.55,178.9Z"/><path class="cls-11" d="M291.06,163.21a2,2,0,0,1-3-.15Z"/><path class="cls-11" d="M296.1,163.17c-.31.43-.65.48-1,.07Z"/><path class="cls-4" d="M313.92,103.54l-2,.2-.76.08h-.71a23.76,23.76,0,0,0-3.85.43l-.76.09c-2.25.28-4.52.59-6.82,1l0,.14q-3.5.57-7.07,1.27-4.56.9-8.9,1.94c.06-6,2-8.21,8-8.86,6-.4,12,.91,18-.73,1.78-.12,3.58-.28,5,1.09C314.65,101.67,315,103,313.92,103.54Z"/><path d="M316.14,60.83c.56,5.14-3.22,3.77-5.95,4-3.74-1.31-6.22-4.35-9.15-6.75-4.11-3.36-9.55-3.63-14-6.24-4.74-2.67-9.56-5-15.23-3.16-3.95,0-8-1.2-11.71,1.2a2.35,2.35,0,0,1,1.57-2.31,29.37,29.37,0,0,1,20.88-.66c6.3,2.31,12.11,6.14,18.58,8.3,2.21.74,4.36,2.73,6.92.65,1.7-1.38,1.83.29,2.21,1.3C311.31,59.84,313.38,60.88,316.14,60.83Zm-47.09-13.3.4-.21c-.11-.09-.22-.25-.35-.26s-.26.12-.39.19Z"/><path class="cls-3" d="M291.08,99a6.15,6.15,0,0,1-.05.85c-5.95.65-7.91,2.82-8,8.86-2.13.56-4.29,1.12-6.49,1.66s-4.27,1-6.37,1.52c-.26-5.61,3.84-8.49,7.83-10.41S286.44,98.24,291.08,99Z"/><path class="cls-10" d="M333.2,80.61c-2.72,1.32-5.49-.45-8.22.15-2.8-1.48-1.67-4.66-2.93-6.8C328,72.45,331,75.86,333.2,80.61Z"/><path class="cls-11" d="M271.84,48.65c5.67-1.81,10.49.49,15.23,3.16-6.55,2.09-12.74-.58-19.16-.29l.06-1.44,7.32-.43C274.19,48.39,272.87,49.13,271.84,48.65Z"/><path d="M291,99.79a6,6,0,0,0,0-.85,95.78,95.78,0,0,1,17.92.12C303.07,100.71,297,99.39,291,99.79Z"/><path class="cls-11" d="M220.86,61.67c2.27-1.29,4.54-2.6,7.26-2.66C226.42,61.86,223.78,62.14,220.86,61.67Z"/><path d="M253.08,51.75c1.54-3.63,4.7-1.28,7-1.91C258,51.38,255.57,51.61,253.08,51.75Z"/><path class="cls-10" d="M321.3,72.63l.27-1.73.64.27c-.32.48-.64,1-.95,1.43Z"/><path class="cls-6" d="M247.09,37.8c-6.46.57-11.88,3.69-17.2,7.06-11.88,7.51-25,12.5-37.82,18l0,0,0-3a41,41,0,0,1,19.91-15c3.49.41,5.91-1.5,8.17-3.76,4.14-1.17,7.46-4.14,11.69-5.2a4,4,0,0,0,3.18-4,72.11,72.11,0,0,1,16.07-1.06c-.43,2.26-3.71,1.65-4,4C247.08,35.81,247.09,36.8,247.09,37.8Z"/><path d="M251.09,30.79A72.11,72.11,0,0,0,235,31.85a58.68,58.68,0,0,0-7.5,2.15c-2.88,1-6.31,2-7.65,5.5-3.34.72-5.59,3-7.89,5.29a41,41,0,0,0-19.91,15c-2.42-.33-4.69.44-7,1-.21-3.2,2-4.72,4.31-6.11,9.37-5.55,19.27-10.39,27.94-16.87,6.21-4.65,12.15-9.17,19.85-10.45,5.11-.85,10.56-2.16,14.92,2.42Z"/><path class="cls-6" d="M306.16,28.77c6.23,5.59,10.75,12.6,15.93,19.06A5.44,5.44,0,0,1,317.7,46c-7.57-7.17-16.54-12.26-25.62-17.19,1.2-2.55-3.7-4.21-1-7a21.67,21.67,0,0,1,8.5,4.48C301.23,27.68,303,30.5,306.16,28.77Z"/><path d="M182.09,89c0,2-.59,3.62-3,3.67-.88,0-2.06-.59-1.49-1.29,1.32-1.63.84-4.67,3.3-5.1C182.41,86.06,181.92,88,182.09,89Z"/><path d="M247.09,37.8c0-1,0-2,0-3,.64,0,1.29,0,1.93,0,1.2,0,2.54.37,2.59,1.64.07,1.68-1.53,1.21-2.56,1.32C248.39,37.85,247.74,37.8,247.09,37.8Z"/><path d="M192.07,62.84l-.24.4.21-.43Z"/><path class="cls-2" d="M290.67,287.82c-.18.6-.35,1.19-.52,1.79l.51-1.79Z"/><polygon class="cls-4" points="309.1 280.82 309.05 280.82 309.05 280.76 309.1 280.82"/><path class="cls-12" d="M323.15,265.86c.11,2.63-1.3,4.22-3.95,5.53.24-2.91.81-5.07,3.83-5.65Z"/><path class="cls-1" d="M290.79,286.76a5.21,5.21,0,0,0-.12,1.06h0A4.59,4.59,0,0,1,290.79,286.76Z"/><path class="cls-4" d="M309.09,280.81l1.09-.76.21.41-1.34.3Z"/><path d="M232.2,142.79c-2-2.37-5.18-1.34-7.61-2.51-12.72-3.28-24.4-1.54-34.56,7.26-1.1,1-2.83,2.12-2.33,3.58.68,2,2.52.56,3.91.49a29,29,0,0,1,3.47.23c8.66.62,17.28,1.08,25.56-2.47,3-1.3,6-2.83,9.52-2.6C233.14,147,232.27,144.53,232.2,142.79Zm-33,7.53c-1.6-.38-4.4.29-4.42-1.89,0-1.86,2.57-2.72,4.22-3.71,2.59,0,1.49,2.12,1.95,3.27C201.56,149.6,201,150.76,199.17,150.32Zm18.49-8.26a12.58,12.58,0,0,1,7.22,2.65C220.28,148.23,220.28,148.23,217.66,142.06Z"/><path class="cls-4" d="M218.08,134c0,.46,0,.93,0,1.4-8.9-1.86-16.94.79-24.75,4.68-.27-.27-.54-.55-.82-.82h0C200.29,133.82,208.87,132.38,218.08,134Z"/><path class="cls-2" d="M226.59,135.64c-3.65,2-6.06.19-8.52-.26,0-.47,0-.94,0-1.4C220.71,133.81,223.12,134.65,226.59,135.64Z"/><path class="cls-4" d="M191.42,141.26l-.23.32-.28.41-.13.16-.18.2-.16.14a.42.42,0,0,1-.12.08.38.38,0,0,1-.13.06.45.45,0,0,1-.16,0,.74.74,0,0,1-.54-.33c-.73-.91.67-1.33,1.48-1.66a4.46,4.46,0,0,1,.33.43Z"/><path class="cls-4" d="M193.32,140.06l-1.9,1.2h0l-.11-.16a4.46,4.46,0,0,0-.33-.43c.51-.47,1-.94,1.53-1.43h0Z"/><path class="cls-12" d="M267.52,164.65c-1.7-5.86-4.19-11.46-5.28-17.54A60.24,60.24,0,0,0,259,136.17a7.83,7.83,0,0,0-8.67-5.27c-3.85.43-3.44,4.1-4,6.58-.78,3.19-.54,6.6-.72,9.87-.41,7.5-3.28,14.53-3.59,22.42a12.85,12.85,0,0,0,.52,3.5c2.28,5.45,10.43,8.2,17,5.88C267.16,176.43,269.65,172,267.52,164.65Zm-8,6.06a2.72,2.72,0,0,1-2.29-3.53c.23-1.21.56-3.05,2.1-2.82,2,.29,2.78,2,2.77,4C262.07,170,261.26,170.8,259.5,170.71Z"/><path class="cls-12" d="M236.72,178a15.84,15.84,0,0,1-4.51,5.81c-3.39,2.41-3.28-2.74-5.56-3.12,0-.6-.07-1.2-.1-1.79,2.17-.73,1.49-2.55,1.55-4.08a4.58,4.58,0,0,0,3.64-1.24c1.17-1.2,2.53-2.61,4.24-1.12A4.5,4.5,0,0,1,236.72,178Z"/><path d="M278.85,185.52c-6.12-4.54-10.55-2.3-15.85,1.54,2.14-4.61,5-6,8.28-6.23C273.87,180.65,276.75,180.88,278.85,185.52Z"/><path d="M237.06,186.77l.08-.06a.61.61,0,0,0,0,.14Z"/><path d="M249.52,188.4a20.2,20.2,0,0,0-1.71-1.49l-.35-.26c-.24-.18-.48-.34-.71-.49l-.37-.23-.59-.33-.27-.13a6.48,6.48,0,0,0-.62-.27,6.84,6.84,0,0,0-.72-.25c-.12,0-.24-.07-.36-.09a3.15,3.15,0,0,0-.42-.09,5,5,0,0,0-.65-.08h-.25a5.65,5.65,0,0,0-1.53.12l-.18,0h0a1.72,1.72,0,0,0-.28.08,2,2,0,0,0-.38.11,3.89,3.89,0,0,0-.44.16l-.6.27-.61.33a2,2,0,0,0-.27.17,9.75,9.75,0,0,0-1.05.75c0-.19,0-.38,0-.56a3.86,3.86,0,0,1,.09-.51.86.86,0,0,1,.06-.23c0-.08,0-.15.07-.23a2.34,2.34,0,0,1,.26-.58.56.56,0,0,1,.09-.17,1.27,1.27,0,0,1,.13-.19l.14-.18a2.23,2.23,0,0,1,.26-.27l.19-.16.21-.15a1.13,1.13,0,0,1,.2-.13l.21-.11.11-.05.19-.08a5.21,5.21,0,0,1,1.29-.34,4.62,4.62,0,0,1,.65-.07l.6,0H242C245.12,182.71,248.05,183.41,249.52,188.4Z"/><path d="M236.57,187.18l.42-.25v0a1.05,1.05,0,0,1-.12.21C236.82,187.21,236.68,187.17,236.57,187.18Z"/><path d="M237.13,186.85l-.13.08.06-.16Z"/><path d="M245.1,19.84c9.89-1.66,19.86-1.15,29.81-1.07,2.67,0,4.92.39,6.19,3a135.44,135.44,0,0,0-35.28,1.53c-2.3.4-5.24,2.17-6.73-1.55l0,0C241.24,21.63,243.75,22.53,245.1,19.84Z"/><path class="cls-3" d="M216.08,106.73l1.08.07C216.76,107.46,216.39,107.51,216.08,106.73Z"/><path class="cls-6" d="M207.4,29.28l-7.79,7.1C200.93,31.51,202.17,30.41,207.4,29.28Z"/><path class="cls-6" d="M245.1,19.84c-1.35,2.69-3.86,1.79-6,2,1-2.21,3.06-3,5-4.05Z"/><path class="cls-6" d="M217.36,20.93c-.18,1.74-1,2.44-2.46,2.44-.15,0-.47-.49-.44-.7C214.75,21,215.89,20.88,217.36,20.93Z"/><path class="cls-6" d="M211.09,25.8c-.11,1-.38,1.93-1.67,1.84-.22,0-.62-.39-.59-.51.28-1.2,1.31-1.21,2.25-1.34Z"/><path class="cls-6" d="M211.08,25.79l.42-.4c0,.09,0,.21-.08.25a1.26,1.26,0,0,1-.33.16Z"/><path class="cls-2" d="M306.16,28.77c-3.12,1.73-4.93-1.09-6.59-2.49a21.67,21.67,0,0,0-8.5-4.48c.33-2.69,2.39-1.87,4-2l4,2c.31,0,.62,0,.93,0a25.82,25.82,0,0,0,6,6A7.19,7.19,0,0,0,306.16,28.77Z"/><path d="M274.82,12.52c5-.5,9.28,1.52,13.53,3.67C283.62,15.78,278.87,15.38,274.82,12.52Z"/><path class="cls-6" d="M306,27.86a25.82,25.82,0,0,1-6-6c3.14-.1,5.18,1.78,7.07,3.94A2.41,2.41,0,0,0,306,27.86Z"/><path class="cls-6" d="M299.08,21.78l-4-2C297.78,17.66,298.55,19.48,299.08,21.78Z"/><path d="M324.11,140.43c-1.09.27-2.19.52-3.28.76l-1.77.38c-.84.18-1.68.35-2.52.5s-1.67.31-2.51.45c-1.34.23-2.68.43-4,.62l-2,.26c-2.64.33-5.27.57-7.91.73-.68.05-1.36.08-2,.11l-2,.08c-1.39.05-2.79.07-4.18.07l-2.61,0-1.57,0-1.53-.06-1.9-.09h-.67c-.51,0-1.05,0-1.55,0l-.25,0a2.66,2.66,0,0,1-.39-.07,3,3,0,0,1-.32-.09l-.07,0a1.71,1.71,0,0,1-.27-.14,2.2,2.2,0,0,1-.25-.17A1.81,1.81,0,0,1,280,143l-.06-.14a.94.94,0,0,1-.06-.15,1.69,1.69,0,0,1,.19-1.65.4.4,0,0,1,.12-.15.93.93,0,0,1,.14-.14,1.45,1.45,0,0,1,.36-.28,3.37,3.37,0,0,1,.32-.19,3.18,3.18,0,0,1,.32-.16c.55-.27,1.14-.48,1.58-.74q1.21-.72,2.43-1.38l.65-.35c.66-.36,1.33-.7,2-1l.59-.29c.76-.37,1.52-.71,2.28-1l0,0,.21-.09,1.34-.53c.36-.14.73-.28,1.1-.4l.44-.15a1.13,1.13,0,0,1,.24-.08c.32-.12.65-.22,1-.32l.05,0,1.33-.38c.48-.13.95-.25,1.43-.36s.9-.19,1.35-.27.93-.16,1.4-.23.93-.12,1.4-.16c.29,0,.57-.06.86-.07a2,2,0,0,1,.35,0l.44,0c.39,0,.78,0,1.18,0q.95,0,1.89.06l.95.08c.64.07,1.28.15,1.91.26a28.9,28.9,0,0,1,5.51,1.52l.82.33c.36.15.73.31,1.09.48l.74.35c.67.32,1.34.67,2,1.06a0,0,0,0,1,0,0l.54.31C322.06,137.53,323.85,138.12,324.11,140.43Z"/><path class="cls-11" d="M333.14,153.24l-.05,0c-.5.27-1,.5-1.47.71l-.05,0c-.63.27-1.24.5-1.81.69l-1.82.58h0l-1.15.35c-1,.3-2.06.6-3.12.89l-1.25.34-.71.18-1,.25c-1.25.33-2.48.61-3.67.88l-1.23.14-.23,0-1.09.13a1.87,1.87,0,0,1,.63-.65c-.48-2.81-2.71-1.8-4.37-2-7-.87-14.16.74-21-1.94-1-.41-2.26-.34-3.22-1.13-1.85-1.52-5.7-2.74-4.66-5,1.2-2.59,3.48.89,5.37,1.37a65.15,65.15,0,0,0,32.32.26c5.17-1.32,7.5,2,10.49,4.63A11.44,11.44,0,0,0,333.14,153.24Z"/><path class="cls-11" d="M317,158.16l-1.61.2h0l-.92.12v0l1.09-.13.23,0Z"/><path class="cls-11" d="M323.66,156.51l-.51.15h0c-2,.6-4.05,1.08-6.12,1.49,1.19-.27,2.42-.55,3.67-.88l1-.25.71-.18Z"/><path class="cls-2" d="M303.7,128.44a3.28,3.28,0,0,0,.22.37c-7.52-1-14.51,1-21.38,3.93,5.95-5.18,13-5.9,20.34-5.33a.3.3,0,0,1,.15,0l.12.11a.46.46,0,0,1,.07.07,2.23,2.23,0,0,1,.2.3l.12.21Z"/><path class="cls-2" d="M304,128.82h0s0,0,0,0h0a.16.16,0,0,1,0-.07Z"/><path class="cls-4" d="M304,128.82l.07,0h0l-.1,0s0,0,0,0A0,0,0,0,1,304,128.82Z"/><path class="cls-4" d="M321.84,131.41c-.1.53-.19,1.07-.29,1.6l-17.45-4.17h0c.19-.07.38-.14.57-.19s.46-.14.69-.19a.31.31,0,0,1,.13,0c.23-.06.46-.1.69-.14l.81-.13.8-.07h.11l.66,0a17.74,17.74,0,0,1,4.24.56c.49.12,1,.25,1.47.4,1.44.42,2.86.93,4.28,1.41l1.64.52C320.73,131.12,321.28,131.28,321.84,131.41Z"/><path d="M319.88,107.16h-.46v0h.25a.88.88,0,0,1,0-.17A1.7,1.7,0,0,0,319.88,107.16Z"/><path class="cls-11" d="M364.7,193.48l.14.38-.55.11a1.18,1.18,0,0,1,.09-.4C364.42,193.5,364.59,193.51,364.7,193.48Z"/><path class="cls-10" d="M279.67,237.37c-6,4.53-11.6,5.5-17.26,6.32a3.55,3.55,0,0,1-3.83-1.68c-.53-1,.48-2,1.31-2.35C266,237.44,272.16,235.82,279.67,237.37Z"/><path d="M296,228.44c-5.2,1.79-10.47,3.24-16,3.31,0-.9,0-1.79,0-2.69,2-.48,3.84-1.68,6-1.22,1.73,1.81,3.37.87,5-.17l3.63-.32Z"/><path class="cls-2" d="M280,229.06c0,.9,0,1.79,0,2.69-1.42,1.56-3.23.75-4.89.81-.73-1-1.47-2-2.21-3C274.94,224.37,277.63,228.78,280,229.06Z"/><path class="cls-2" d="M296,228.44l-1.33-1.09,8.29-3.54,1.08.14C302.3,227.07,299.19,227.81,296,228.44Z"/><path class="cls-7" d="M280,229.06a22,22,0,0,1-3.56.54,21.79,21.79,0,0,1-3.58-.06c-1.87.4-3.8.79-5.8,1.15-1.81.32-3.59.62-5.32.87a11.06,11.06,0,0,0-3.07.78c-.42.17-.7.34-.77.35-10.34,1.32-20.67,3.18-31.17,2.45-1.35-.09-2.64-1.09-3.94-1.66a4.48,4.48,0,0,1,3.2-3.24c8-2.27,15.74-6.39,24.41-5.4s17-.51,25.26-2.11a65.38,65.38,0,0,1,12.38-.72c-1,1.84-2.1,3.62-2,5.83a12.2,12.2,0,0,1-3.11,1A12.53,12.53,0,0,1,280,229.06Z"/><path class="cls-7" d="M303,223.81l-8.29,3.54-3.63.32c.37-2-.6-3.8-1-5.68,3.58-1.76,7.4-.93,11.13-1C303.27,220.9,303.55,222.13,303,223.81Z"/><path class="cls-13" d="M290.06,222c.41,1.88,1.38,3.66,1,5.68-1.63,1-3.27,2-5,.17-.09-2.21,1-4,2-5.83Z"/><path class="cls-2" d="M279.28,290l0,0h0v0Z"/><path class="cls-9" d="M269.05,47.53l-.34-.28c.13-.07.27-.2.39-.19s.24.17.35.26Z"/><path class="cls-1" d="M219.87,39.5c1.34-3.48,4.77-4.54,7.65-5.5a58.68,58.68,0,0,1,7.5-2.15,4,4,0,0,1-3.18,4c-4.23,1.06-7.55,4-11.69,5.19C220.06,40.52,220,40,219.87,39.5Z"/><path class="cls-4" d="M219.87,39.5c.09.51.19,1,.28,1.52-2.26,2.27-4.68,4.18-8.17,3.77C214.28,42.53,216.53,40.22,219.87,39.5Z"/><path class="cls-7" d="M199,144.72c2.59,0,1.49,2.11,1.94,3.27.64,1.61.12,2.76-1.75,2.32-1.6-.37-4.39.3-4.42-1.88C194.74,146.56,197.32,145.71,199,144.72Z"/><path class="cls-7" d="M217.67,142.05a12.55,12.55,0,0,1,7.21,2.66C220.28,148.22,220.28,148.22,217.67,142.05Z"/><path class="cls-7" d="M259.51,170.7a2.7,2.7,0,0,1-2.29-3.52c.23-1.22.55-3.05,2.09-2.82,2,.29,2.78,2,2.77,4C262.07,170,261.27,170.8,259.51,170.7Z"/><path d="M322.39,137.6c-.81-.47-1.62-.9-2.43-1.3a0,0,0,0,0,0,0c-9.57-4.72-19.26-4.68-29-1l0,0c-1.28.47-2.55,1-3.83,1.62-2.16,1.6-5.45,1.18-7,3.89l0,.22a9.18,9.18,0,0,0,.41,2.59c.31.68.94,1.07,2.3.72l.8-.18h0a15.33,15.33,0,0,1,5.66.2c1.12.22,2.24.5,3.36.75,8.8,1.94,17.19-.12,25.58-2.35a30.88,30.88,0,0,1,3.37-.87c1.37-.19,3.45.88,3.74-1.21C325.56,139.15,323.64,138.33,322.39,137.6Zm-9.32-1.11c1.81.67,4.52,1,4.85,2.86.38,2.15-2.49,2-4,2.68-1.75.78-2.49-.26-2.16-2C312,138.85,310.53,137,313.07,136.49Zm-25.45,4.84a12.55,12.55,0,0,1,6.59-4C292.8,143.92,292.8,143.92,287.62,141.33Z"/><path class="cls-7" d="M313.08,136.49c-2.55.48-1.07,2.36-1.3,3.58-.33,1.7.4,2.74,2.15,2,1.5-.67,4.38-.54,4-2.68C317.59,137.52,314.89,137.16,313.08,136.49Z"/><path class="cls-7" d="M294.22,137.37a12.47,12.47,0,0,0-6.59,4C292.8,143.92,292.8,143.92,294.22,137.37Z"/><path d="M159.48,182.13h0l-.09,0h0a.74.74,0,0,0-.4-.05.07.07,0,0,0-.06,0,.28.28,0,0,0-.13.15c-.07.16-.11.37-.18.55h0l0,.05h0l.7.41c.14-.34.29-.69.43-1ZM167,118.26a13.15,13.15,0,0,0-4.34,1.14c-.24.12-.47.24-.69.37a3.82,3.82,0,0,0,1.06,0c1.7-.54,3.36-1.25,5.08-1.66C167.69,118.14,167.32,118.19,167,118.26Zm4.27,43,.38.49q.19.25.42.51l.47.52c.16.18.34.35.52.52C172.61,162.34,172,162.07,171.22,161.25Zm-1.11,3.21.26.31c.55.61,1.67,1.84,2.37,1.59A22.23,22.23,0,0,0,170.11,164.46ZM192,115.15l0,0,.15,0Zm44.12.86-3.14-.2-.33,0,.33,0c2.95.24,5.89.7,8.84.92C240,116.4,238,116.24,236.14,116Zm-72.8,42h0a1,1,0,0,0,0,.39.85.85,0,0,0,.06.31v-.12l0-.39h0l0-.45A1.34,1.34,0,0,0,163.34,158Z"/><path class="cls-14" d="M310.4,161.83c-.84.11-1.66.2-2.46.28h0Q309.17,162,310.4,161.83Z"/><path class="cls-14" d="M311.91,103.74l-.76.08h-.66l.88-.09h.08Z"/><path class="cls-14" d="M321.2,103l-2.61.17c-1.48.1-3,.22-4.5.36l.11,0q2.21-.19,4.38-.33l.29,0C319.65,103.07,320.43,103,321.2,103Z"/><path class="cls-14" d="M323.78,159.46c-1.26.31-2.58.6-3.94.87l1.56-.35Z"/><path class="cls-14" d="M323.13,156.67c-2,.6-4.05,1.08-6.12,1.49l-1.61.2.15,0,.23,0c.84-.15,2.61-.48,4.9-1l1-.25.71-.18Z"/><path class="cls-14" d="M323.21,107l-.42.06h-.2l.48-.07Z"/><path class="cls-14" d="M329.1,158.25a44.48,44.48,0,0,1-4.78,1.1C325.92,159,327.53,158.66,329.1,158.25Z"/><path class="cls-14" d="M331.57,154c-.63.27-1.24.5-1.81.69l-1.82.58Z"/><path class="cls-14" d="M333,107.48c-.35-.07-.72-.14-1.09-.18s-.51-.06-.78-.08c-.42,0-.85,0-1.31,0l-.65,0,.4,0a13,13,0,0,1,2.09.07A9.35,9.35,0,0,1,333,107.48Z"/><path class="cls-14" d="M339.24,148.12c-.09.21-.19.41-.28.62l-.28.33a.51.51,0,0,0,.09-.13,6.51,6.51,0,0,0,.34-.57s0,0,0,0Z"/><path class="cls-14" d="M342.12,134a40,40,0,0,1-.33,4.32,41.54,41.54,0,0,1-.76,4.12A78.16,78.16,0,0,0,342.12,134Z"/><path class="cls-14" d="M343.47,146.86c-.23.71-.47,1.35-.69,1.92,0,0,0,0,0,0a18.23,18.23,0,0,0,.47-2Z"/><path class="cls-13" d="M234.83,227.26c.72,2.06,2,3.92,2,6.24-1.44,1.41-2.9,2.71-4.92.93a7.16,7.16,0,0,1,1.17-5.79Z"/></g></g></svg>