<svg id="Capa_1" data-name="Capa 1" xmlns="http://www.w3.org/2000/svg" viewBox="0 0 479.34 128.75">
    <style>
     .cls-1{fill:#FEFFFF;}
     .cls-2{fill:#17252A}
    </style>
<path class="cls-1" d="M122.48,146.22c.42-.08.5.09.25.52s-.47.65-.63.65c.25.26.46.19.63-.2a12.56,12.56,0,0,0,.5-1.42,9.61,9.61,0,0,1,.7-1.69c.29-.56.65-.84,1.07-.84v1.81s.68.2.85.06a2,2,0,0,0,.44-.47,3.14,3.14,0,0,0,.26-.4c0-.09.1,0,.19.4.5,0,.81.09.94.27a1,1,0,0,1,.19.6,3.71,3.71,0,0,1-.06.67.65.65,0,0,0,.19.61c.25.53.52.6.81.2s.61-.34.95.2c-.17.89-.46,1.43-.88,1.61.5.62.58,1,.25,1.2s-.55.63-.63,1.34c-.09.45-.15.81-.19,1.08a6.5,6.5,0,0,1-.31,1.07c0,.18-.07.24-.19.2s-.19,0-.19.2a.53.53,0,0,1-.38.54.8.8,0,0,0-.5.4,1.16,1.16,0,0,0,.06.33.67.67,0,0,1-.06.47,1.92,1.92,0,0,1-.57.6,5.06,5.06,0,0,0-.69.61,13.22,13.22,0,0,1-.76,1.34,5.7,5.7,0,0,1-.69.6,6,6,0,0,0-.7.6,1.78,1.78,0,0,0,.13.47c.08.23,0,.38-.13.47a.73.73,0,0,1-.37.2.9.9,0,0,0-.38.2,7.06,7.06,0,0,0-1.07,1.48,7.38,7.38,0,0,1-1.07,1.47,2.37,2.37,0,0,1-.63.67,4.4,4.4,0,0,0-.63.54,7.33,7.33,0,0,1-1.58,1.67,11.51,11.51,0,0,0-1.82,1.81c-.09.09-.09.23,0,.4s.08.32,0,.41c-.68.53-1.45,1.18-2.33,1.94a20.55,20.55,0,0,0-2.33,2.34c-.09.09-.09.23,0,.41s.08.31,0,.4a.4.4,0,0,1-.51.13c-.17-.09-.29,0-.38.27a.63.63,0,0,1-.37.6,3.54,3.54,0,0,0-.88.74c-.68.72-1.41,1.47-2.21,2.28s-1.57,1.56-2.33,2.28a9.1,9.1,0,0,0-1.07,1.34,5.52,5.52,0,0,1-1.07,1.2c-.09.09-.23.09-.44,0s-.36-.09-.44,0a.47.47,0,0,0-.13.54c.08.18,0,.31-.25.4-.42,0-.84.33-1.26,1a6.78,6.78,0,0,1-1.26,1.55.5.5,0,0,1-.5,0c-.17-.09-.3-.09-.38,0a2.51,2.51,0,0,0-.69.87,1.27,1.27,0,0,1-1.07.73.81.81,0,0,0-.63.61,1.21,1.21,0,0,1-.63.73.64.64,0,0,1-.63.2.66.66,0,0,0-.63.21c-.76.44-1.68.95-2.77,1.54a23.35,23.35,0,0,1-3.15,1.4c.33-.35.48-.56.44-.6s-.23-.05-.57,0-.76.11-1.26.2a4.26,4.26,0,0,1-1.51,0,1.64,1.64,0,0,1-.44-.33.33.33,0,0,0-.44-.07,2.94,2.94,0,0,0-1.45.6.92.92,0,0,1-1.07.2,9.12,9.12,0,0,0-2.33-.73c-.8-.14-1.58-.29-2.33-.47a.38.38,0,0,1-.13-.27c0-.09-.08-.18-.25-.27-.67,0-1.39-.58-2.14-1.74a25.49,25.49,0,0,1-1.64-2.81,3.41,3.41,0,0,1-1.64-.61,5.36,5.36,0,0,0-1.38-.73,1.44,1.44,0,0,1,.19,1.07,1.41,1.41,0,0,0,.19,1.07l.88.94c.42.44.42.71,0,.8a4.4,4.4,0,0,1-1.83-.8A10.41,10.41,0,0,1,67.16,187a1.7,1.7,0,0,1-.38-.81,3.13,3.13,0,0,0-.38-.93,2.11,2.11,0,0,0-.69-.67,1.36,1.36,0,0,1-.57-.54.68.68,0,0,1-.06-.47,1.63,1.63,0,0,0,.06-.47q-.12-.27-.63-1.2a9.29,9.29,0,0,1-.75-1.75,2.13,2.13,0,0,1,.06-.4.43.43,0,0,0-.06-.4.94.94,0,0,1-.26-.67,6.4,6.4,0,0,0-.12-1.07,1.88,1.88,0,0,0-.25-.67.79.79,0,0,1-.13-.54,8.89,8.89,0,0,1-.06-2.81,12,12,0,0,0,.06-2.68,6.4,6.4,0,0,0-.44-1.81,6.25,6.25,0,0,1-.44-1.68,4.11,4.11,0,0,1,0-1.4,5,5,0,0,0,0-1.54,4.37,4.37,0,0,0-.25-.94,1.48,1.48,0,0,1-.13-.67,8.13,8.13,0,0,1,.38-1.48q.38-1.2,0-1.47c-.25-.18-.32-.29-.19-.34s.19-.24.19-.6c.08-1.61.23-3.17.44-4.69s.48-3.17.82-5a7.58,7.58,0,0,0,.25-2,11.42,11.42,0,0,1,.13-1.87.4.4,0,0,1,.31-.14c.13,0,.19-.08-.07-.26v-.41c.43-.26.53-.71.57-1.34a2.94,2.94,0,0,1,.57-1.6,1,1,0,0,0,.19-.74,2.1,2.1,0,0,1,.19-1,7,7,0,0,0,.44-.8l.44-.94a4.58,4.58,0,0,0,.13-1,2.34,2.34,0,0,1,.25-1c.17-.62.29-1.11.38-1.47a3,3,0,0,1,.5-1.07,2.8,2.8,0,0,1,.13-.74c.08-.31.16-.51.25-.92h.38c.16,0,.25-.47.25-1a2.94,2.94,0,0,1,.25-1.27c0-.09.06-.13.19-.13s.19-.09.19-.27a.8.8,0,0,1,.19-.4.93.93,0,0,0,.19-.41,5.47,5.47,0,0,1,.5-.47,1.29,1.29,0,0,0,.38-.46.75.75,0,0,0,.06-.81,1,1,0,0,1-.06-.8.44.44,0,0,1,.44-.27.59.59,0,0,0,.44-.13.64.64,0,0,0,0-.54,4.27,4.27,0,0,1,0-1.08h.38c.16.41.25.14.25-.13a1.5,1.5,0,0,1,.25-.8c0-.18.06-.25.19-.2s.19-.07.19-.34a1.48,1.48,0,0,1,.31-.73l.57-.87a3.65,3.65,0,0,1,.13-.67c.08-.36.25-.26.25-.26h.38c.08-.5.08-.64,0-.82s0-.18,0-.18h.23a1.21,1.21,0,0,0,.18-.81,1.65,1.65,0,0,1,.19-.94.79.79,0,0,1,.44-.2.86.86,0,0,0,.44-.21,6.5,6.5,0,0,0,.32-1.08,3.41,3.41,0,0,1,.43-1.07,5.16,5.16,0,0,1,.7-.61,5.67,5.67,0,0,0,.69-.61,1.89,1.89,0,0,0-.13-.47c-.08-.22,0-.34.13-.34a.76.76,0,0,1,.37-.2.54.54,0,0,0,.38-.34c.33-.44.63-.87.88-1.28s.54-.83.88-1.28a3.44,3.44,0,0,1,.52-.45,4.83,4.83,0,0,0,.84-.91,10.52,10.52,0,0,0,.59-1.06,5,5,0,0,1,.94-1.35c.16-.18.27-.23.31-.14s.06,0,.06-.27a3.85,3.85,0,0,1,1-1.21,3.08,3.08,0,0,1,1.69-.94.8.8,0,0,0-.06-.68q-.19-.4.06-.54c.08-.09.21-.09.38,0s.29.09.38,0a2.88,2.88,0,0,0,.44-.67,2.64,2.64,0,0,1,.43-.68c.42-.45.78-.81,1.07-1.08s.65-.62,1.07-1.07.67-.7,1-1,.72-.69,1.14-1.14.64-.72.94-1.08a4.43,4.43,0,0,1,1.07-.94,12.89,12.89,0,0,1,2.38-1.76c.92-.54,1.84-1.12,2.76-1.75a.23.23,0,0,0,.07-.27c0-.09.06-.13.31-.13a2.93,2.93,0,0,0,1.63-.81,11.38,11.38,0,0,0,1.26-.81c.25-.18.48-.34.69-.47s.44-.29.69-.48a5.92,5.92,0,0,1,1.82-.53,21.28,21.28,0,0,0,2.7-.68,34.34,34.34,0,0,0,3.58-1.55c1.39-.67,2.58-1.28,3.58-1.82a1.19,1.19,0,0,0,.44-.4,1.31,1.31,0,0,1,.44-.41c.09-.09.23-.09.44,0s.36.09.44,0,.27-.27.32-.27a4.21,4.21,0,0,0,.56-.13,2.66,2.66,0,0,1,.5-.21l.76-.2a6.39,6.39,0,0,1,3.07.34,21.52,21.52,0,0,0,4.09.74,4.46,4.46,0,0,1,1.13.41,2.21,2.21,0,0,0,1.38.13,25.4,25.4,0,0,0,2.38,2,28.16,28.16,0,0,0,2.64,1.76q.63,1.08,1.26,2.22c.42.76.83,1.6,1.25,2.49.42.73.88,1.44,1.39,2.16a4.16,4.16,0,0,1,.75,2.43v.94c-.08.18-.17.25-.25.2s-.13,0-.13.21a.85.85,0,0,0-.25.6.85.85,0,0,1-.25.61,7.55,7.55,0,0,1-.63,1.08,7.55,7.55,0,0,0-.63,1.08c-.16.45-.31.87-.43,1.28s-.28.83-.44,1.28q0,.14-.63.81c-.42.45-.34.76.25.94a1.22,1.22,0,0,0-.44.41,1.28,1.28,0,0,1-.44.4l-.75.41a1.73,1.73,0,0,0,.12.47,3.81,3.81,0,0,1,.19.74.61.61,0,0,1-.19.61c-.17.13-.5.11-1-.07a1.16,1.16,0,0,1,.37,1.28,5.92,5.92,0,0,0-.37,1.28,4.57,4.57,0,0,0-1.95.2c-.8.23-1,.43-.57.61-.08.45-.29.52-.62.2a2.56,2.56,0,0,0-1.13-.61.88.88,0,0,0-.38.07c-.08.05-.21,0-.38-.07a1.18,1.18,0,0,1-.44-.4,1.19,1.19,0,0,0-.44-.4.9.9,0,0,0-.69-.21.55.55,0,0,1-.56-.2c.16-.45.35-.58.56-.4a2.18,2.18,0,0,0,.69.4,1,1,0,0,0,0-.74,1,1,0,0,0-.37-.34,1.64,1.64,0,0,1-.44-.33c-.13-.14-.15-.39-.07-.75a.6.6,0,0,0-.56.41,6.8,6.8,0,0,0-.32.81c-.08.27-.16.4-.25.4s-.25-.27-.5-.81c-.5.09-.61.39-.31.88a2.58,2.58,0,0,0,.69.88c-.42.45-.78.42-1.07-.07a5.1,5.1,0,0,0-1.07-1.28,5.75,5.75,0,0,0-1.13-1,1.12,1.12,0,0,1-.5-1.21,1.41,1.41,0,0,1,.88-.34c.42,0,.54-.33.38-.87a6.43,6.43,0,0,1,.81-1.28c.55-.77,1.11-1.53,1.7-2.3s1.11-1.41,1.57-1.95.65-.68.56-.41c-.42-.17-.52-.38-.31-.6a1.06,1.06,0,0,0,.31-.74c-.08-.45,0-.68.38-.68s.5-.18.5-.54A3.93,3.93,0,0,0,126.82,96a1.74,1.74,0,0,0-1.26-.34,2.38,2.38,0,0,0-.38.27c-.25.27-.37.32-.37.14-.17-.18-.3-.2-.38-.07a1.77,1.77,0,0,1-.5.47,4.42,4.42,0,0,1-1.13.54,4.18,4.18,0,0,0-1.38.81c-.17.09-.74.47-1.7,1.15s-2,1.41-3.27,2.22l-3.32,2.23c-1,.67-1.55,1.06-1.64,1.14a2.65,2.65,0,0,1-.88.41,2.83,2.83,0,0,0-.88.4,13.3,13.3,0,0,0-1.19,1.15l-1.32,1.41c-.42.45-.84.88-1.25,1.29s-.84.83-1.26,1.28a16.33,16.33,0,0,1-1.51,1.21,6.76,6.76,0,0,0-1.38,1.35c-.08.09-.08.25,0,.47s.08.38,0,.47a5.59,5.59,0,0,0-1.07.88c-.37.4-.84.91-1.42,1.52a11,11,0,0,1-.93.88,8.36,8.36,0,0,0-1.23,1.31c-.08.09-.08.24,0,.47s.09.38,0,.47a1.63,1.63,0,0,0-.88.81,1.55,1.55,0,0,1-.62.6,1.75,1.75,0,0,0-.63.61.78.78,0,0,0-.19.68.76.76,0,0,1-.19.67,2.09,2.09,0,0,1-.5.2,1,1,0,0,0-.38.2,2.54,2.54,0,0,0-.44.81,4.4,4.4,0,0,1-.44.95,1.62,1.62,0,0,1-.62.6,1.6,1.6,0,0,0-.63.61c-.09.09-.09.25,0,.47s.08.39,0,.47a1.28,1.28,0,0,0-.63.61,4.37,4.37,0,0,1-.63,1c-.08.18-.17.25-.25.2s-.13,0-.13.21a.87.87,0,0,1-.37.54,1.79,1.79,0,0,0-.5.4c-.09.09-.09.23,0,.41s.08.31,0,.4h-.38c-.09.09-.09.23,0,.4s.08.32,0,.41a1.9,1.9,0,0,0-.76.74,7.49,7.49,0,0,1-.5,1c-.17.18-.29.23-.37.14s-.13,0-.13.27v.09s.1.33-.07.47a4.31,4.31,0,0,0-.5.47,2,2,0,0,0,.06.4,1.11,1.11,0,0,1-.06.6h-.38c-.08-.11-.08,0,0,.2a2.61,2.61,0,0,1,0,.8h-.38s-.08-.15,0,.07,0-.07,0-.07h-.5s0,.77.06.94-.06.06-.06.06h-.38c-.08.44-.08.57,0,.75s0,.25,0,.25h-.38a1.51,1.51,0,0,0,0,.62.46.46,0,0,1,0,.38h-.69a2.31,2.31,0,0,0,.06.52.42.42,0,0,1-.06.39,5.85,5.85,0,0,0-1.33,2.33c-.46,1.21-.86,2.2-1.2,3a1.46,1.46,0,0,0,.07.39.39.39,0,0,1-.07.39h-.38q-.12.13,0,.45c.09.22.09.37,0,.46a1.48,1.48,0,0,0-.56,1.49,5.39,5.39,0,0,1-.32,2.14c0,.08-.06.13-.19.13s-.19.08-.19.26,0,.41-.12,1a2.26,2.26,0,0,1-.38,1.1.53.53,0,0,0-.26.65,2.91,2.91,0,0,1-.12,1.42c-.09.44-.21,1-.38,1.75s-.34,1.49-.51,2.27a.3.3,0,0,1-.19.33c-.12,0-.18.11-.18.19a.75.75,0,0,0,.25.52.59.59,0,0,1,.12.65c-.08.26-.14.5-.19.71s-.1.67-.18,1.36a1,1,0,0,0,.06.39.49.49,0,0,1-.06.39,1,1,0,0,0,0,1c.16.22.16.71,0,1.49a21.93,21.93,0,0,0,1,10.89,6,6,0,0,0,1.7,2.66c.63.47,1.2.32,1.7-.46a1.34,1.34,0,0,0,1.08.07l1.07-.46a2.52,2.52,0,0,1,.76-.19,9.4,9.4,0,0,0,1-.19.38.38,0,0,0,.19-.46.37.37,0,0,1,.19-.45c.08-.09.23-.09.44,0s.36.09.44,0v-.39a1.1,1.1,0,0,1,.82-.19,1.15,1.15,0,0,0,.82-.2c.17-.17.38-.37.63-.58a7.64,7.64,0,0,0,.63-.59,2.43,2.43,0,0,1,.64-.45,2.54,2.54,0,0,0,.63-.45,75.38,75.38,0,0,0,6.18-5.06c2.1-1.9,4.13-3.76,6.06-5.57a29.49,29.49,0,0,0,2.4-2.21c.76-.77,1.52-1.55,2.27-2.33s1.75-1.7,2.72-2.53a13.23,13.23,0,0,0,2.46-2.78c.08-.18.17-.22.25-.13s.13,0,.13-.26.46-.93,1.39-1.75,1.59-1.45,2-1.88c.67-.86,1.34-1.69,2-2.47a15.56,15.56,0,0,0,1.76-2.46.75.75,0,0,1,1,.33C122.1,146.93,122.31,146.83,122.48,146.22ZM77.23,136.07a1,1,0,0,0-.31,1c0,.49-.15.65-.57.47a2.11,2.11,0,0,1-.94-.4c-.21-.18-.57-.18-1.07,0a36.3,36.3,0,0,1-1.14,5.23c-.5,1.69-1,3.41-1.45,5.15a54.73,54.73,0,0,0-1.13,5.36,37.4,37.4,0,0,0-.44,5.83,13.1,13.1,0,0,1-.13,1.88,1.76,1.76,0,0,0,.63,1.61,10.57,10.57,0,0,1,.63-3.62l1.26-3.48c.25-1,.49-1.92.7-2.82s.39-1.69.56-2.41a3.87,3.87,0,0,0,.32-.94c0-.27.1-.62.19-1.07a1.45,1.45,0,0,1,.5-.54,3,3,0,0,0,.5-.4,2.61,2.61,0,0,0,.26-1.14,1.83,1.83,0,0,1,.25-1c.17-.63.31-1.23.44-1.81a17.19,17.19,0,0,1,.44-1.68c0-.17.06-.26.19-.26s.23-.14.31-.41q.26-.66.51-1.47c.08-.45.14-.85.19-1.21a1.37,1.37,0,0,1,.31-.8q.26-.67.63-1.74c.25-.72.21-1-.12-.94a11.1,11.1,0,0,0-.82.94A3.16,3.16,0,0,1,77.23,136.07Zm4.66-13.76a3.85,3.85,0,0,0-.06,1.81,2.6,2.6,0,0,1-.31,1.81,2.39,2.39,0,0,1-.57.2.59.59,0,0,0-.44.33,5,5,0,0,0-.25,1.75A2.24,2.24,0,0,1,79.5,130c.5.09.84,0,1-.2a1.66,1.66,0,0,0,.31-.81,7.72,7.72,0,0,0,.07-1A3.3,3.3,0,0,1,81,127h.51a.63.63,0,0,0-.07-.6c-.12-.23-.1-.38.07-.47a1.61,1.61,0,0,1,.44-.54,1.46,1.46,0,0,0,.44-.67,2.27,2.27,0,0,0,.31-1.34,1.08,1.08,0,0,1,.7-1.07,5.86,5.86,0,0,0-.13-1.14c-.09-.4-.21-.38-.38.07a7,7,0,0,1-.25.87C82.56,122.33,82.31,122.4,81.89,122.31Zm30.47-43.73c-.08-.44.13-.65.63-.6s.84-.07,1-.34v-.4a8.8,8.8,0,0,1,4.16-.07,8.76,8.76,0,0,0,3.9.07c-.08.81,0,1.05.25.74a1,1,0,0,1,1-.34c-.34.54-.34.85,0,.94-.17.27-.55.29-1.13.07a8.92,8.92,0,0,0-1.77-.47,2.67,2.67,0,0,0-1.44-.13,1.23,1.23,0,0,1-1.2-.41,2.91,2.91,0,0,1-2.58.74A5,5,0,0,0,112.36,78.58Zm25.46,17.29c.59-.63.42-1.16-.5-1.61a2.37,2.37,0,0,1,.06.94A.55.55,0,0,0,137.82,95.87Z" transform="translate(-61.74 -65.88)"/>
<path class="cls-1" d="M168.49,158c-.25-.44-.21-.67.12-.67s.51-.08.51-.26c.08-.45-.06-.63-.44-.54s-.57-.22-.57-.94a2.19,2.19,0,0,0,.57-1.34,4.68,4.68,0,0,1,.44-1.61c0-.08.06-.13.19-.13s-.31-.27-.31-.27v-.4s.69-.4.81-.67a4.59,4.59,0,0,0,.32-1.07c0-.45-.15-.52-.44-.2s-.36.6-.19.87a2.36,2.36,0,0,0-.82,1.27,15.21,15.21,0,0,1-.57,1.68.34.34,0,0,1-.25.13c-.09,0-.13.09-.13.27a2.77,2.77,0,0,0-.12.8.94.94,0,0,1-.26.67c-.08.09-.14.14-.18.14s-.11,0-.19.13a.36.36,0,0,1-.25.13,1.87,1.87,0,0,0-.26,1,3.5,3.5,0,0,1-.12,1c-.17.27-.32.52-.44.74a1.52,1.52,0,0,0-.07,1c-.42,0-.59.2-.5.6s-.09.6-.5.6a2.93,2.93,0,0,1-.51,2.21,4.26,4.26,0,0,0-.88,1.81,1.53,1.53,0,0,1-.57-.33,1.48,1.48,0,0,0-.44-.34c-.42,2.33-.8,4.67-1.13,7a64.79,64.79,0,0,0-.63,6.9,5.44,5.44,0,0,0,2.83-1.54,5.4,5.4,0,0,1,2.84-1.54,10,10,0,0,0,1.76-2.22,5.16,5.16,0,0,1,2-1.94,1,1,0,0,1,.25-1,1.66,1.66,0,0,0,.5-.87c-.34.35-.67.73-1,1.13a8.11,8.11,0,0,1-1.13,1.14,1.83,1.83,0,0,0-.38.74c0,.13-.21.25-.63.34l.25-.27c.09-.09.13-.18,0-.27v-.13c-.14-.09-.27,0-.27.4-.33,0-.52-.07-.56-.2a.44.44,0,0,1,.06-.41,4.76,4.76,0,0,1,.5-.6,3.26,3.26,0,0,1,.7-.53,3.45,3.45,0,0,0,.69-.54.58.58,0,0,0,.19-.54.55.55,0,0,1,.19-.53,4.27,4.27,0,0,1,.75-.87,9,9,0,0,0,1-1.14,4.26,4.26,0,0,0,.63-.81c.08,0,.08-.08,0-.26s-.09-.32,0-.41a1.7,1.7,0,0,1,.63-.4.8.8,0,0,0,.5-.4,1.28,1.28,0,0,0-.06-.34.32.32,0,0,1,.06-.33,14.29,14.29,0,0,0,1.14-1.41,16,16,0,0,1,1.26-1.54c1.51-2.05,3-4.11,4.4-6.16s2.78-4,4-5.9c.25-.09.41,0,.5.14s.17.35.25.53.15.32.19.4.1,0,.19-.26a.63.63,0,0,0,.76.26,1.37,1.37,0,0,1,1,.14c.17.09.19.22.07.4s0,.27.31.27a.35.35,0,0,0,.38-.4.48.48,0,0,1,.5.33c.08.22.17.47.25.74a5.25,5.25,0,0,0,.26.67c.08.18.33.22.75.13a.93.93,0,0,0-.25.67,2.54,2.54,0,0,1-.13.81l-.25.26-.12.14c-.09.18,0,.36.19.53s.14.5-.19.94a.41.41,0,0,1-.38.27c-.17,0-.25,0-.25.13a1.67,1.67,0,0,0-.38.74,3.38,3.38,0,0,1-.38.87,5.3,5.3,0,0,1-.5.47,2.45,2.45,0,0,0-.51.6c-.08.09-.08.23,0,.41s.09.31,0,.4a1.74,1.74,0,0,1-.37.33,1.66,1.66,0,0,0-.38.34,5.85,5.85,0,0,1-.57.53,7.47,7.47,0,0,0-.57.54,1.61,1.61,0,0,0-.37.74,3.38,3.38,0,0,1-.38.87,1.22,1.22,0,0,1-.44.47,1.84,1.84,0,0,0-.57.6,1.33,1.33,0,0,0-.32.74,1.23,1.23,0,0,1-.31.73,2,2,0,0,1-.57.61,2.54,2.54,0,0,0-.56.47,2,2,0,0,0-.32.8,2.14,2.14,0,0,1-.31.8,7.47,7.47,0,0,1-.57.54,7.47,7.47,0,0,0-.57.54,4.27,4.27,0,0,0-.25.8,1.62,1.62,0,0,1-.38.8,2.8,2.8,0,0,1-.56.47,1.07,1.07,0,0,0-.44.61,3.07,3.07,0,0,0-.38.8,1.75,1.75,0,0,1-.38.67,7.47,7.47,0,0,1-.57.54,5.77,5.77,0,0,0-.56.53,2.23,2.23,0,0,1-.38.54,2.11,2.11,0,0,0-.38.53c0,.45-.11.65-.31.61a.86.86,0,0,0-.7.2,5.85,5.85,0,0,0-1.13,1.4,11.12,11.12,0,0,1-1.26,1.68,1.72,1.72,0,0,1-.38.33,2.24,2.24,0,0,0-.38.34l-.37.4a1.38,1.38,0,0,0-.38.27l-.25.13a.39.39,0,0,1-.38-.26c-.09-.18-.21-.23-.38-.14s-.13.11-.13.34a.72.72,0,0,1-.12.47c-.09.09-.23.09-.44,0s-.32-.09-.32,0a5.19,5.19,0,0,1-.82.53,1.41,1.41,0,0,1-1.32.14c-.42-.09-.67.09-.75.53a1.94,1.94,0,0,1-.38.94c-.42.63-.74.94-1,.94a3.83,3.83,0,0,0-1.07.27,3.6,3.6,0,0,1-2.52-1.88,3.7,3.7,0,0,0-1.26-.2,3.25,3.25,0,0,1-1.13-.2,4,4,0,0,1-.38-.74,2.35,2.35,0,0,0-.5-.74c0-.17-.13-.31-.38-.4a4.94,4.94,0,0,1-.63-.27,1.45,1.45,0,0,1-.25-.8,1.48,1.48,0,0,0-.13-.67,13.57,13.57,0,0,1-.5-4,38.34,38.34,0,0,1,.31-4.83c.21-1.65.46-3.23.76-4.75s.57-2.82.82-3.89c0-.27-.05-.34-.13-.2a.55.55,0,0,1-.5.2l-1.2,1.54-1.19,1.54c-.26.27-.51.52-.76.74a3.39,3.39,0,0,0-.63.74L148.33,170c-.42.45-.84.94-1.25,1.47s-.85,1-1.26,1.48a1.53,1.53,0,0,1-.82.6,3.66,3.66,0,0,0-.95.47,2.15,2.15,0,0,0-.5.8,1.24,1.24,0,0,1-.51.67,3.07,3.07,0,0,1-.88.67,8.48,8.48,0,0,0-.88.54,1.75,1.75,0,0,0-.38.67.8.8,0,0,1-.63.54,1.25,1.25,0,0,0-.63.26,1.45,1.45,0,0,0-.5.54,2.32,2.32,0,0,1-.69.47,7.83,7.83,0,0,0-1.07.6.38.38,0,0,0-.13.27c0,.09-.08.13-.25-1h-.38c-.17,1.24-.29,1.35-.38,1.49a.89.89,0,0,1-.38.33,3.25,3.25,0,0,1-1,.41,5,5,0,0,1-1.77.67,3.22,3.22,0,0,1-1.76.06,6.22,6.22,0,0,0-2-.06l-1.88.33a4.29,4.29,0,0,1-2.4-.33c0-.45.27-.58.82-.41a2,2,0,0,0,1.2.14.78.78,0,0,0-.7-.54,2,2,0,0,1-.94-.27.89.89,0,0,1-.38-.33.91.91,0,0,0-.38-.34c-.08-.08-.21-.08-.37,0s-.26.09-.26,0c-.16-.26-.56-.15-.56-.15h-.9a.41.41,0,0,1-.12-.27.33.33,0,0,0-.07-.21s-.06,0-.06.07c-.26.37-.41.41-.45.14a.7.7,0,0,0-.32-.55.52.52,0,0,0-.51,0,.52.52,0,0,1-.51,0,2.29,2.29,0,0,1-.39-.54,2,2,0,0,0-.38-.54,1.06,1.06,0,0,0-.77-.41c-.17-.55-.34-1-.51-1.43a11.25,11.25,0,0,1-.51-1.7,1.78,1.78,0,0,0-.38.61c-.09.23-.34.3-.77.21a2.47,2.47,0,0,0-1.08-.94l-.29-.52a11.3,11.3,0,0,0,0-3,16.24,16.24,0,0,1-.07-3.2c.09-.45.15-.91.2-1.36a12.7,12.7,0,0,1,.19-1.36c.17-.72.34-1.52.51-2.38s.34-1.7.51-2.52c.17-.45.38-1.06.64-1.83a17.72,17.72,0,0,1,.77-2,1.66,1.66,0,0,0,.38-.75c.09-.32.21-.7.38-1.16a3,3,0,0,0,.39-1,8,8,0,0,1,.38-1.29c0-.09,0-.14.13-.14s.17-.09.25-.27a1.29,1.29,0,0,1,.13-.41,1,1,0,0,0,.13-.4.42.42,0,0,1,.13-.28,10.64,10.64,0,0,1,.45-1.15c.21-.5.4-1,.57-1.43a2.26,2.26,0,0,1,.32-.68,5.36,5.36,0,0,1,.45-.54,1.64,1.64,0,0,0-.07-.41.42.42,0,0,1,.07-.41h-.44c.09.09.13.09.13,0v-.66a1.08,1.08,0,0,0,.76-.39c.09-.09.09-.22,0-.4s-.08-.3,0-.39a1.7,1.7,0,0,0,.45-.13c.21-.09.32-.18.32-.27a1.33,1.33,0,0,0,.06-.72.79.79,0,0,1,.19-.72.61.61,0,0,1,.32.13.57.57,0,0,0,.25.13s.07,0,.07-.13a3.91,3.91,0,0,0-.26-.79c.42.44.66.42.7-.07s.27-.72.7-.72a1,1,0,0,1,.06-.79,2.54,2.54,0,0,0,.32-.66,2.58,2.58,0,0,0,.19-.53,3,3,0,0,1,.19-.52c.09-.09.21,0,.38.2s.26.28.26.19c-.09.18-.15,0-.19-.52a1.38,1.38,0,0,1,.19-1.06c.25-.17.44-.21.57-.13a1,1,0,0,0,.57.13.94.94,0,0,1-.25-1.25,2.5,2.5,0,0,0,.25-1.64,20.73,20.73,0,0,1,2.61-3,29.68,29.68,0,0,1,3.11-2.57,5.3,5.3,0,0,1,1.59,0,4.71,4.71,0,0,0,1.59,0,5.55,5.55,0,0,0,1.33-.46,12.09,12.09,0,0,1,1.59-.59.29.29,0,0,1,.32-.07.88.88,0,0,0,.32.07q.25-.39.57-.33a1.26,1.26,0,0,0,.83-.2l2-.39a13.42,13.42,0,0,1,2.54-.26c.43.08.72.15.89.19a2.36,2.36,0,0,0,.64.07,4.87,4.87,0,0,0,.89.13,3,3,0,0,1,.89.26,1.83,1.83,0,0,0,.95.53,7.76,7.76,0,0,1,1.21.4v.13a.34.34,0,0,0,.25.13c.26,0,.51.24.77.72a1.13,1.13,0,0,0,1,.73,1.07,1.07,0,0,1,.51.13l.51.26a.41.41,0,0,1,.06.4,1.85,1.85,0,0,0-.06.39h.59s.46.24.38.24c.42.45.77.85,1.07,1.21s.65.85,1.07,1.47a1.92,1.92,0,0,0,.76.67.67.67,0,0,1,.18.61.66.66,0,0,0,.19.6,1,1,0,0,0,.32.4,2.14,2.14,0,0,1,.31.27,6.55,6.55,0,0,0,.76,1.41,4,4,0,0,1,.63,1.67,2.61,2.61,0,0,0,1.45-1.41,2.21,2.21,0,0,1,1.7-1.27c-.09.18-.17.36-.25.54a1.48,1.48,0,0,0-.13.67,2.93,2.93,0,0,0,.76-1.21q-.51-.27,0-.27c.33,0,.46-.17.37-.53a.42.42,0,0,1,.51-.14c.16.09.21.27.12.54.59.27.82.13.7-.4s-.07-.89.19-1.07a13.66,13.66,0,0,0,1-1.48c.34-.53.63-1.05.88-1.54a10.43,10.43,0,0,1,.89-1.41l.37-.4a1.53,1.53,0,0,0,.26-.4c.08,0,.08-.11,0-.34s-.09-.33,0-.33a1.94,1.94,0,0,1,.69-.47c.29-.13.44-.33.18-.6v-.4a3.18,3.18,0,0,0,.76-.67l.51-.54a5.28,5.28,0,0,0,.82-1.34,4.22,4.22,0,0,1,.94-1.34,1.19,1.19,0,0,1,.69-.34,1.13,1.13,0,0,0,.7-.33,1.31,1.31,0,0,0,.63-.6,1.3,1.3,0,0,1,.5-.61,2.09,2.09,0,0,1,.38.07.35.35,0,0,0,.38-.07,6.6,6.6,0,0,0,.25-.67c.08-.26.33-.4.75-.4a.53.53,0,0,0,.44-.27.77.77,0,0,0,.19-.4c.34,0,.49.2.44.6a.89.89,0,0,0,.32.88.75.75,0,0,0,.57-.67c0-.36.31-.41.81-.14.42.45.61.76.57.94a1.93,1.93,0,0,0,.19.94c0,.36.06.51.19.47a2,2,0,0,0,.38-.2l.31-.21c.08,0,.13.07.13.34.25.18.29.49.12.94s-.33.85-.5,1.2c.08-.08.19-.06.31.07s.15.25.07.34-.13.29-.38.33a.43.43,0,0,0-.38.47.52.52,0,0,0,.19.33c.13.14.19.12.19-.06-.17.45-.36.89-.57,1.34a12.64,12.64,0,0,1-.82,1.47,20.15,20.15,0,0,0-1.13,2.28,27.17,27.17,0,0,1-1.26,2.55.34.34,0,0,1-.25.13.12.12,0,0,0-.13.13,8.12,8.12,0,0,0-.56,1.61,14.6,14.6,0,0,1-.44,1.48.36.36,0,0,1-.26.13q-.12,0-.12.27a1.46,1.46,0,0,1-.44.67,1,1,0,0,0-.32.8c-.08.18-.25.49-.5.94a10.11,10.11,0,0,0-.63,1.34,8.53,8.53,0,0,0-.25,1,5.09,5.09,0,0,1-.38,1.14c0,.18,0,.25-.13.2s-.17,0-.25.21a2.08,2.08,0,0,1-.13.53,4.15,4.15,0,0,1-.25.67c-.08.18-.15.25-.19.2s-.1,0-.19.07a1.06,1.06,0,0,0-.12.87.75.75,0,0,1-.13.74.19.19,0,0,1-.25.06c-.08,0-.12.07-.12.34s-.11.36-.32.27-.36,0-.44.13a.7.7,0,0,0,.25.4.64.64,0,0,1,.13.67c.08-.17,0-.08-.19.27s-.28.54-.19.54c-.42.27-.61.33-.57.2s.11.16.19.87c-.42-.18-.59-.13-.5.13s.16.36.25.27a1.15,1.15,0,0,1-.63.34c-.25,0-.42.29-.5.73a1,1,0,0,0,.18.54c.13.18.19.22.19.13a2,2,0,0,1-.69.67c-.38.27-.27.45.32.54-.09.27-.17.33-.26.2a.42.42,0,0,0-.37-.2.5.5,0,0,0,0,.67.8.8,0,0,0,.37.4.8.8,0,0,1-.37.4.84.84,0,0,0-.38.41l.12.13a.36.36,0,0,0,.26.13,3.62,3.62,0,0,1-.19.87A.62.62,0,0,1,168.49,158Zm-19.15-2.81c-.08.18-.21.47-.38.87s-.37.38-.63-.07a17.78,17.78,0,0,1,1.33-1.27c.46-.4.48-1,.06-1.67a4,4,0,0,0,1-.88c.25-.31.5-.64.75-1a14.73,14.73,0,0,0,1.2-1.47,13.8,13.8,0,0,1,1.2-1.48,9.22,9.22,0,0,1,1.38-1.41,3.59,3.59,0,0,0,1.14-1.67,4.81,4.81,0,0,1-1.77-.87l-1.51-1.21c-.5-.4-1-.78-1.51-1.14a3.22,3.22,0,0,0-1.89-.53,2.27,2.27,0,0,0-.94.27c-.38.18-.74.35-1.07.53a10,10,0,0,0-2.27.67l-1.51.81c-.51.26-.93.49-1.26.67a3.12,3.12,0,0,0-.38.46,1,1,0,0,1-.38.34,8.48,8.48,0,0,1-.88.54,2.92,2.92,0,0,0-.76.53,5.25,5.25,0,0,0-.82.81,8.26,8.26,0,0,0-.56.8,27.2,27.2,0,0,0-4,4.82,1,1,0,0,1-.32.41,3,3,0,0,0-.31.26c-.25.45-.47.83-.63,1.14a3.37,3.37,0,0,1-.51.74,6.05,6.05,0,0,1-.5,1.07c-.17.27-.34.54-.5.81a.87.87,0,0,0-.19.67.57.57,0,0,1-.19.53l-.32.34a1.74,1.74,0,0,0-.31.47,3.28,3.28,0,0,0-.44,1.13,3.67,3.67,0,0,1-.32,1,.82.82,0,0,1-.38.4.45.45,0,0,0-.25.4,21.11,21.11,0,0,0-1.38,5.1,11.22,11.22,0,0,0,.25,5.36,1.51,1.51,0,0,0,1.32-.07,3.69,3.69,0,0,0,.82-.6c0-.09.1-.09.32,0s.35.09.44,0a2,2,0,0,0,.25-.41.87.87,0,0,1,.38-.4,2.85,2.85,0,0,1,.88-.33,3.32,3.32,0,0,0,.88-.34.87.87,0,0,0,.38-.4,1.31,1.31,0,0,1,.25-.4.57.57,0,0,1,.57-.2.58.58,0,0,0,.56-.2c.17,0,.25-.09.39-.27v-.4c0-.18.22-.27.43-.27a1.2,1.2,0,0,0,.57-.14,10.11,10.11,0,0,0,.69-.8,5,5,0,0,0,.82-1.29h.38c.17.49.21.44.12.35s0-.18.13.65h.57c.21-.92.39-1,.56-1.18a1,1,0,0,0,.44-.67.68.68,0,0,1,.57-.54c.5-.09.78-.22.82-.4a1.47,1.47,0,0,1,.57-.67,1.93,1.93,0,0,1,.75-.34,1.08,1.08,0,0,0,.63-.33,17.82,17.82,0,0,0,2.08-2.35,21.86,21.86,0,0,1,1.83-2.21,6.76,6.76,0,0,1,2-1.54c.67-.31.84-.91.51-1.81a3.5,3.5,0,0,1,.63-.53,1.26,1.26,0,0,0,.37-1.08c.34,0,.59-.22.76-.67a1.18,1.18,0,0,0,.44-.4c.13-.18.06-.31-.19-.4a5.31,5.31,0,0,1-1.51,1.88A15,15,0,0,0,149.34,155.23Zm-16.5-13.4a3.94,3.94,0,0,1-1,.74c-.42.22-.46.47-.12.73q.63-.66,1.89-1.74c.84-.71,1.05-1.25.63-1.61a9.28,9.28,0,0,1-.63.87C133.35,141.14,133.09,141.47,132.84,141.83ZM153.25,135a14.19,14.19,0,0,1-2.71.26c-.88,0-1.83.05-2.83.14a1.52,1.52,0,0,0-.7.67c-.12.27-.4.4-.82.4l-1.19.27a1.9,1.9,0,0,0-.95.53,9.51,9.51,0,0,0,4.22.47,32.47,32.47,0,0,1,4.6-.06,3.51,3.51,0,0,1,1.57.4.78.78,0,0,0,1.2-.4A7.86,7.86,0,0,1,153.25,135Zm9.37,27a1.34,1.34,0,0,0-.12.74,10.33,10.33,0,0,0,.06,1.14c0,.35.1.56.19.6s.17-.29.25-1c.08-.44.15-.91.19-1.4s0-.65-.19-.47v.4ZM175,167.42A7.12,7.12,0,0,0,174,168.5c-.47.53-.7.89-.7,1.07s0,.24-.12.2-.13,0-.13.2a11.19,11.19,0,0,0-.37,1.14c-.09.31-.22.69-.38,1.14a6,6,0,0,1-.51,1.07,6.41,6.41,0,0,0-.5,1.07c-.17.36-.34.67-.5.94a1.72,1.72,0,0,0-.26.94,8.92,8.92,0,0,0-2.26,2.14c-.59.81-1.22,1.61-1.89,2.41a1.11,1.11,0,0,0,1.38-.47,9.64,9.64,0,0,1,.76-1,.69.69,0,0,1,.57-.34c.29,0,.44-.15.44-.33,0-.45.12-.71.37-.8a1.53,1.53,0,0,0,.63-.41c.09-.08.09-.2,0-.33a.49.49,0,0,1,0-.47,1.69,1.69,0,0,1,.57-.4.79.79,0,0,0,.44-.4c.08,0,.11-.09.06-.27a2,2,0,0,1-.06-.4l.38-.41.38-.4c.16-.27.33-.53.5-.8a5.07,5.07,0,0,1,.5-.67c.26-.63.32-1,.19-1.21s-.06-.62.19-1.34a.64.64,0,0,0,.44-.53,1.21,1.21,0,0,1,.32-.67,1.45,1.45,0,0,1,.5-.54,1.58,1.58,0,0,0,.51-.54,7.21,7.21,0,0,0,.75-1.6,4.29,4.29,0,0,1,.57-.47c.29-.23.23-.43-.19-.61a2.5,2.5,0,0,1-.63,1A6.85,6.85,0,0,0,175,167.42Zm-6.55-8.71c.08-.26.14-.33.19-.2a2.34,2.34,0,0,1,.06.61,7.37,7.37,0,0,0-1,3.35c-.25.09-.38.22-.38.4s-.08.27-.25.27a4.3,4.3,0,0,1,.44-1.95,5.71,5.71,0,0,0,.57-2.07C168.36,159.12,168.49,159,168.49,158.71Zm7.68-40.06a13.46,13.46,0,0,1-2.9,2.95c0,.18,0,.24-.12.2a.21.21,0,0,1-.13-.2c0-.18.11-.27.32-.27s.31,0,.31-.14a.44.44,0,0,0,0-.47.26.26,0,0,1,0-.33.5.5,0,0,1,.38-.13.51.51,0,0,0,.38-.14c.08-.09.08-.22,0-.4s-.09-.31,0-.4a1.73,1.73,0,0,1,.63-.61A1.13,1.13,0,0,1,176.17,118.65Z" transform="translate(-61.74 -65.88)"/>

<path class="cls-1" d="M192.58,136.52a5.14,5.14,0,0,0,1.54-1.5,9.6,9.6,0,0,1,1.16-1.51c.43-.55.86-1,1.29-1.51s.86-1,1.29-1.51a1.72,1.72,0,0,0,.26-.41c.08-.18.17-.36.25-.55a1.08,1.08,0,0,0,.78-.41,6.77,6.77,0,0,1,1.29-1.51,5.15,5.15,0,0,1,.83-.48,2.65,2.65,0,0,0,.84-.61,1.46,1.46,0,0,0,.26-.48,5.27,5.27,0,0,1,.26-.62q.12-.14.51,0c.26.09.39,0,.39-.14.17-.36.66-.66,1.48-.89s1.74-.43,2.77-.62a15.32,15.32,0,0,1,2.13,1.51,6.12,6.12,0,0,1,1.61,2.61,1.37,1.37,0,0,0,1.35.82,2.1,2.1,0,0,1,1.61.69,6.6,6.6,0,0,0,.78,1.43,5.63,5.63,0,0,1,.77,1.86,2.19,2.19,0,0,1,.26,1.16,3.91,3.91,0,0,0,.26,1.44c.08.46.19.73.32.82a1.82,1.82,0,0,1,.45.69c.26,1.19.45,2.31.58,3.36a6.72,6.72,0,0,0,.84,2.67,14.63,14.63,0,0,0,.9,1.51,1.64,1.64,0,0,0,1.42.55,1,1,0,0,1,.06.61,1.6,1.6,0,0,1-.19.55.36.36,0,0,0-.07.34c0,.1.2.1.45,0a1.65,1.65,0,0,0,.58.42.53.53,0,0,1,.33.54c-.61-.09-.8.17-.58.76a2,2,0,0,1,.19,1.16.81.81,0,0,1-.39.21.33.33,0,0,0-.26.34.53.53,0,0,0,.07.55.51.51,0,0,1,.06.55,3.92,3.92,0,0,1-1.87.68,4.9,4.9,0,0,1-1.41-.2c-.48-.14-1-.28-1.48-.41a3.94,3.94,0,0,0-1.94.07,2.15,2.15,0,0,0-.9-1.1,10.75,10.75,0,0,1-1.29-1h-.28c-.27,0-.41-.05-.41-.15a.43.43,0,0,1-.07-.43.48.48,0,0,0-.07-.44l-.55-.88a5,5,0,0,1-.69-1.17l-.61-1.31a10.88,10.88,0,0,1-.76-2.19.82.82,0,0,1-.2-.73,2,2,0,0,0-.07-.88c-.19-.68-.51-1.7-1-3.07a29.26,29.26,0,0,1-1-3.36,2,2,0,0,1-.83.37,2.1,2.1,0,0,0-.82.36.64.64,0,0,0-.14.44v.29a.53.53,0,0,1-.41.15h0a7.59,7.59,0,0,0-.25,1.21.62.62,0,0,1-.26.6.57.57,0,0,1-.44.33,2,2,0,0,0-.69.34c-.08.09-.11.13-.06.13s-.07,0-.32.14a5.35,5.35,0,0,1-.44.73,2,2,0,0,1-1.18.88v.4c.49.09.47.13.43.13s.57.14.57.14v-.85a1.72,1.72,0,0,1-.6.42,1.37,1.37,0,0,0-.6.71,2.64,2.64,0,0,0-1,1.13,9.43,9.43,0,0,1-.73,1.27,57,57,0,0,0-3.59,5.23q-1.74,2.84-3.46,5.8a1.05,1.05,0,0,0-.4.14c-.18.1-.26.19-.26.29-.09.37-.16.68-.2.92a4.73,4.73,0,0,1-.33.91,3.48,3.48,0,0,1-.8.85,2.59,2.59,0,0,0-.8,1.13.19.19,0,0,0,0,.29.57.57,0,0,1,.13.42,11.24,11.24,0,0,0-1.19,1.91q-.54,1.07-1.2,2.19a8.33,8.33,0,0,1-1.2,2.55,3.18,3.18,0,0,1-.73,1,6,6,0,0,0-.86,1c.18.75.09,1.25-.27,1.48s-.44.73-.26,1.48a1.64,1.64,0,0,0-1.06,1,2,2,0,0,0-.4.57c-.09.19-.18.28-.27.28a3.23,3.23,0,0,0-.07,1.06,3.12,3.12,0,0,1,.07.64,2.2,2.2,0,0,1-.4.57c-.18.19-.26.33-.26.42a3.92,3.92,0,0,0-.27,1.41V178h-.25c-.08,0-.13.13-.13.4s0,.47-.06.87a3.38,3.38,0,0,1-.31,1.14c-.17.27-.36.58-.56.94a2.42,2.42,0,0,1-.69.8c-.67.09-1.31.16-1.94.2s-1-.33-1.19-1.13c-.16,0-.31.24-.43.73s0,.65.31.47c-.25.54-.71.6-1.37.2a5.79,5.79,0,0,0-1.63-.73q-.5-.81-.12-1.08c.25-.17.29-.49.12-.93a1,1,0,0,1-.88-.94,8.44,8.44,0,0,1-.18-3.29,35.16,35.16,0,0,1,.44-3.55c-.09,0-.13-.13-.13-.4V171h.38a1.25,1.25,0,0,1-.25-.47q-.13-.33,0-.33a1.8,1.8,0,0,0,.25-.93,15.77,15.77,0,0,1,.12-1.6c0-.09.06-.13.19-.13s.19-.09.19-.27a3.28,3.28,0,0,1,0-1.33q.87-4.26,2.25-9.25c.92-3.33,1.71-6.23,2.38-8.72l2.18-7.45c.71-2.4,1.44-4.7,2.19-6.92l.38-.4a.83.83,0,0,0,.13-.53c-.09,0-.13-.22-.13-.67h.39a1.55,1.55,0,0,0,.45-.89,2.18,2.18,0,0,1,.33-.89,8.37,8.37,0,0,1,.51-1c.09-.18.11-.3.07-.34s0-.16.19-.35a2.24,2.24,0,0,1,.39-.75,2.36,2.36,0,0,0,.38-.76.45.45,0,0,0,.13-.54.72.72,0,0,1,.13-.69c0-.18.06-.27.19-.27s.15-.09.07-.28a.92.92,0,0,1,.19-.89,5.35,5.35,0,0,0,.58-.75.57.57,0,0,0,.13-.62.56.56,0,0,1,.13-.62c.08-.18.17-.25.26-.2s.08-.12,0-.48a1,1,0,0,1,.32-.62,2.1,2.1,0,0,0,.45-1,.55.55,0,0,1,.71.41c.13.37.4.42.84.14q.38,0,.45.48c0,.32.1.71.19,1.17,1.63-.64,2.53-.19,2.71,1.37.17.55.3.59.38.13s.3-.68.65-.68a.38.38,0,0,0,.13.27c0,.37.08.37.25,0a1.41,1.41,0,0,1,.52.89c.08.42.17.85.26,1.31s.17.5.25.41l.33-.34a1,1,0,0,1,.38-.28c.13,0,.2.07.2.34a1.35,1.35,0,0,1,.25,1.1,4.65,4.65,0,0,1-.45,1.17,7,7,0,0,0-.51,1.3,2.62,2.62,0,0,0,.06,1.51,4.56,4.56,0,0,0-1.29,2.19,17,17,0,0,1-1,2.74c.09.09.07.21-.06.34A.68.68,0,0,0,192.58,136.52Z" transform="translate(-61.74 -65.88)"/>

<path class="cls-1" d="M247.21,152.15c.25,0,.36.06.32.2a.3.3,0,0,1-.32.2.65.65,0,0,1-.38.8c-.08.36,0,.38.38.07s.59-.33.76-.07c.08.09.21-.13.38-.67s.37-1.14.63-1.81a13.82,13.82,0,0,1,.81-1.8c.3-.54.61-.81,1-.81-.17.54-.19.85-.06.94a.49.49,0,0,0,.5,0,4,4,0,0,0,.82-.54.9.9,0,0,1,.56.27,1.52,1.52,0,0,1,.45.81,1.46,1.46,0,0,0,.18.8c.13.18.53.13,1.2-.13-.17,1-.27,1.67-.31,2.07S254,153.71,254,155a1.39,1.39,0,0,0-.82.81,2.52,2.52,0,0,1-.56.93,3.87,3.87,0,0,0-.63.94.79.79,0,0,0-.25.54.76.76,0,0,1-.26.53.81.81,0,0,1-.44.41,1.56,1.56,0,0,0-.56.4.55.55,0,0,0-.19.53.58.58,0,0,1-.19.54,3.64,3.64,0,0,1-.63.74c-.25.22-.5.47-.76.73-1.26,1.7-2.68,3.85-4.28,6.44a54.38,54.38,0,0,1-4.66,6.56c-.84,1-1.76,2-2.77,2.95a17.32,17.32,0,0,0-1.32,1.61c-.47.62-.95,1.25-1.45,1.87a.66.66,0,0,1-.51.07.51.51,0,0,0-.5.2.36.36,0,0,0,0,.4c.08.18.08.32,0,.41s-.21.09-.38,0-.29-.09-.38,0l-.37.4a1.55,1.55,0,0,1-.38.27l-.57.4a5.14,5.14,0,0,1-.82.4c-.17.09-.48.22-.94.4a1.62,1.62,0,0,1-1.58-.4c-.75.27-1.34.47-1.76.6a3.72,3.72,0,0,1-2-.2c-.09,0-.13-.07-.13-.2s-.09-.2-.25-.2-.3-.09-.38,0-.17.09-.25,0a1.19,1.19,0,0,1-.44-.4,1.37,1.37,0,0,0-.44-.4,1.09,1.09,0,0,0-.51-.14,1,1,0,0,1-.5-.13l-.76-.81a.81.81,0,0,1-.06-.53.58.58,0,0,0-.19-.54,1.3,1.3,0,0,0-.38-.47c-.16-.13-.29-.24-.38-.33a2.85,2.85,0,0,1-.12-1,1.47,1.47,0,0,0-.25-1c-.25-.18-.3-.52-.13-1a1.07,1.07,0,0,0-.12-1.14.58.58,0,0,1-.32-.6,2.29,2.29,0,0,0-.06-.87,36.74,36.74,0,0,1-.51-5.43,41.76,41.76,0,0,1,.13-5.83c.08-.44.19-.93.31-1.47a11.66,11.66,0,0,1,.45-1.47,8.41,8.41,0,0,1,.18-1.48c.13-.62.26-1.29.38-2s.25-1.36.38-1.94a4.14,4.14,0,0,1,.44-1.27,2.09,2.09,0,0,0,.38-1.08c.08-.17.17-.26.25-.26a.12.12,0,0,0,.13-.14,7.47,7.47,0,0,0,.19-2.08,8.92,8.92,0,0,1,.06-1.94c0-.09.06-.13.19-.13s.19-.09.19-.27a16,16,0,0,1,.75-3.15c.42-1.29.76-2.39,1-3.28q1-3.23,2.2-6.37t2.46-6.36c.08-.27.31-1,.69-2.08s.78-2.34,1.2-3.68.82-2.59,1.2-3.76.6-1.92.69-2.27c.08-.09.17-.12.25-.07s.13,0,.13-.2a3.16,3.16,0,0,1,.25-.94c.17-.45.29-.76.38-.94a6.53,6.53,0,0,0,.75-1.67c.25-.76.51-1.45.76-2.08,0-.18,0-.25.12-.2s.13,0,.13-.2a4.31,4.31,0,0,1,.5-1.34,14.07,14.07,0,0,1,1-1.34V107h0c0,.17,0,0-.06-.14A4.62,4.62,0,0,1,236,106h.38c0,.37,0,.23-.06,0s0-.31.06,1H237v-2h.36a13.91,13.91,0,0,0,.43-1.41,5.36,5.36,0,0,1,.54-1.42c0-.17.06-.23.18-.19s.18,0,.18-.19a.78.78,0,0,1,.3-.71.79.79,0,0,0,.31-.71,3.43,3.43,0,0,1,.72-1.93q.12-.12.18-.06s.06-.07.06-.32a1,1,0,0,1,.12-.39,1.19,1.19,0,0,0,.12-.32,1,1,0,0,1,.13-.32,1.13,1.13,0,0,1,.12-.52L241,96h.3c.08-.49.08-.62,0-.8s0-.2,0-.2h.38a3.75,3.75,0,0,0-.06-.54,1.05,1.05,0,0,1,.06-.46h.25a.27.27,0,0,0,0-.28,12.27,12.27,0,0,1,0-1.72h.38s.08,1.12,0,1-.09-.25,0,0h.38c.08-.44.08-.57,0-.75s-.09-.31,0-.4l.44-.47a1.12,1.12,0,0,0,.19-1c.33-.17.61-.31.82-.4l.56-.27a8.81,8.81,0,0,1,.76-2.34,9,9,0,0,0,.75-2.21c.68-.18,1,0,1,.47a.92.92,0,0,0,.44,1q.25.27.63.6c.25.23.29.61.13,1.14.08.36.08.59,0,.67a.76.76,0,0,1-.32.2,1.8,1.8,0,0,0-.38.21c-.12.09-.14.26-.06.53a.83.83,0,0,1-.63-.27c-.17-.17-.3-.08-.38.27-.08.18,0,.32.38.4s.55.09.63,0c.17-.26.29-.35.38-.26a2.76,2.76,0,0,0,1.13.26c.59,0,1.15,0,1.7-.06a7.53,7.53,0,0,1,1.7.06c.08.36,0,.61-.12.74a.89.89,0,0,0-.26.74c.09.45.28.51.57.2s.57-.25.82.2a4.09,4.09,0,0,1-.13,2.28,21.45,21.45,0,0,1-.88,2.14,8.33,8.33,0,0,1-.75,2c-.34.63-.68,1.25-1,1.88a1.18,1.18,0,0,0-.13.53,1.32,1.32,0,0,1-.12.54.12.12,0,0,1-.13.13c-.08,0-.17.09-.25.27a.61.61,0,0,0,.06.34s0,.15-.06.33a.82.82,0,0,1-.38.4.89.89,0,0,0-.38.41.26.26,0,0,0,0,.33.25.25,0,0,1,0,.34,4.61,4.61,0,0,0-.88,1.8,16.93,16.93,0,0,1-.88,2.35c0,.09,0,.13-.13.13s-.12.09-.12.27a.32.32,0,0,0-.07.34,1.33,1.33,0,0,1,.07.47,2.46,2.46,0,0,1-.44.33c-.21.13-.32.29.1.47V111l-.8,1.07a2.27,2.27,0,0,0-.25.81l-.75,1.54a12,12,0,0,0-.76,1.81q-.51,1.33-1.38,4c-.59,1.78-1.22,3.66-1.89,5.62l-2,5.7-1.45,4.22a1.58,1.58,0,0,0,.07.4c0,.18,0,.27-.07.27a1.69,1.69,0,0,0-.37.8,6.94,6.94,0,0,1-.25,1.21c-.09.18-.17.27-.26.27s-.12,0-.12.13a1.87,1.87,0,0,0-.19,1.07,2,2,0,0,1-.19,1.08.36.36,0,0,1-.25.13.38.38,0,0,0-.13.27c-.08.45-.17.82-.25,1.14a11.6,11.6,0,0,1-.38,1.14c-.17.44-.33.93-.5,1.47s-.34,1.16-.51,1.88-.29,1.16-.37,1.6-.21,1-.38,1.75c-.25,0-.38.13-.38.4-.25,1.16-.59,2.52-1,4.08s-.84,3.24-1.26,5-.8,3.57-1.13,5.36a37.18,37.18,0,0,0-.63,5c.17,0,.27.22.31.67a6.55,6.55,0,0,1,0,1.4c0,.5-.06.94-.06,1.34s0,.52.13.34a17.87,17.87,0,0,1,1.95-2,9.31,9.31,0,0,0,1.95-2.41c.08-.18.17-.25.25-.2s.13,0,.13-.2c0-.36.38-.88,1.13-1.55a12.32,12.32,0,0,0,1.64-1.67c.08-.18.17-.25.25-.2s.13,0,.13-.2.06-.38.19-.34.27,0,.44-.2a.26.26,0,0,0,0-.33c-.09-.14-.09-.25,0-.34a9.45,9.45,0,0,1,1.38-1.41,8,8,0,0,0,1.52-1.67c.33-.36.67-.74,1-1.14s.72-.87,1.14-1.41l.75-1.2c.34-.54.67-1.14,1-1.81s.65-1.34.95-2a9.14,9.14,0,0,1,.81-1.54,1,1,0,0,0,.57.33C247,152.53,247.13,152.42,247.21,152.15Z" transform="translate(-61.74 -65.88)"/>

<path class="cls-1" d="M272.56,124.88c.25-.19.32-.32.19-.41a.47.47,0,0,1-.19-.41,2.92,2.92,0,0,1,1.35,1.16,6.4,6.4,0,0,0,1.22,1.44.51.51,0,0,0,.52.2.53.53,0,0,1,.51.21.45.45,0,0,1,.26.41.56.56,0,0,0,.13.41,3,3,0,0,0,.77.55,2.78,2.78,0,0,1,.77.55,2.37,2.37,0,0,1,.13.75,2.37,2.37,0,0,0,.13.75,1.2,1.2,0,0,0,.39.48,3.73,3.73,0,0,1,.38.34,1.26,1.26,0,0,1,.13.55.81.81,0,0,0,.26.55,1.75,1.75,0,0,0,.32.48l.32.34a6,6,0,0,1,.33,2.33,4.66,4.66,0,0,0,.45,2.33q-1,.13-.84-1a5,5,0,0,0,.06-1.78,4.64,4.64,0,0,1-.25-.75,1.88,1.88,0,0,0-.39-.76.92.92,0,0,0-.39-.13c-.08,0-.08-.09,0-.28-.25-1.64-.86-2.69-1.8-3.15l.77,2.4a4.65,4.65,0,0,1,0,2.67c-.43.09-.56-.09-.38-.55s.17-.77,0-1a.7.7,0,0,1-.26-.82.88.88,0,0,0-.13-.82h-.51c-.09-.46-.18-1-.26-1.51a7.81,7.81,0,0,0-.39-1.5q-.77.27-.84-.21a.5.5,0,0,0-.57-.48c.25.64.49,1.33.7,2.06s.45,1.41.71,2a14.66,14.66,0,0,1,.65,2.06,2.45,2.45,0,0,1,.45,1c.13.51.4.67.83.48a8.15,8.15,0,0,0-.13,3.29,19.75,19.75,0,0,1,.13,4c-.08.73-.19,1.44-.32,2.13a11,11,0,0,1-.45,1.71,3.13,3.13,0,0,1,2.13.14,4.7,4.7,0,0,0,1.73.54l.13-.13a.38.38,0,0,1,.26-.14c0,.09,0,.14.13.14s.08.13.26.13a5.38,5.38,0,0,1,.9.14q.64.13.51.27c.17-.18.28-.25.32-.2a1.62,1.62,0,0,0,.46.2c-.09.46-.44.6-1,.41a2.28,2.28,0,0,0-1.55,0,2.25,2.25,0,0,0,1.74.62,17.43,17.43,0,0,1,2.51.07c.43.09.71.05.84-.14s.27-.13.45.14c.17,0,.23,0,.19-.14a2.45,2.45,0,0,1-.13-.34.72.72,0,0,1,0-.41c0-.14.24-.21.58-.21a3.33,3.33,0,0,1,2.45.28,5.51,5.51,0,0,0,1.8.82v1.41c.34-.18.55-.24.63-.2s.09.18,0,.41-.17.49-.25.8a1.47,1.47,0,0,0,0,.88.46.46,0,0,0-.76,0c-.25.27-.46,0-.63-.68a1.23,1.23,0,0,1-1.08.34c-.46,0-.91-.07-1.33-.07-.67-.08-1.05.12-1.14.61a1.24,1.24,0,0,1-.75,1,52,52,0,0,0-6.08.87,30.63,30.63,0,0,1-6.33.61,3.45,3.45,0,0,1-.69.54,2,2,0,0,0-.7.67.58.58,0,0,0-.19.54.58.58,0,0,1-.19.54c0,.09-.08.16-.25.2a.8.8,0,0,0-.38.2.79.79,0,0,0-.25.54,1.34,1.34,0,0,1-.13.54,4.17,4.17,0,0,0-.44.54.91.91,0,0,0-.19.54,1.58,1.58,0,0,1-.76,1.27,2.58,2.58,0,0,0-1,1,.46.46,0,0,0,0,.48.26.26,0,0,1,0,.33,6.74,6.74,0,0,0-1.08.74,13.89,13.89,0,0,0-1.2,1.15,2,2,0,0,0,.06.4.43.43,0,0,1-.06.4,2.9,2.9,0,0,1-.57.48,8,8,0,0,0-.82.6,1.2,1.2,0,0,1-.32.14s-.06.09-.06.27-.09.2-.26.33-.29.25-.38.34l-.57.67a4.12,4.12,0,0,1-.82.81.37.37,0,0,1-.38.07,1.4,1.4,0,0,0-.38-.07,1.14,1.14,0,0,0-.25.81c-.09.09-.21.09-.38,0s-.3-.09-.38,0a2.36,2.36,0,0,0-.44.67.61.61,0,0,1-.57.4c-.17.09-.4.21-.7.34a2.19,2.19,0,0,0-.69.47,7,7,0,0,1-.64.41,5.54,5.54,0,0,0-.63.4l-.25.4a5.31,5.31,0,0,1-1.77.27,3,3,0,0,0-1.77.54.54.54,0,0,0-.45.27,1,1,0,0,0-.19.4.94.94,0,0,1-.38-.06c-.08-.05-.21,0-.38.06a1.05,1.05,0,0,0-.5.14l-.51.27c-.25.27-.38.29-.38.06s-.13-.24-.38-.06c-.08,0-.12,0-.12.13s-.09.18-.26.27a1.07,1.07,0,0,1-1-.13,1.21,1.21,0,0,0-.82-.27.4.4,0,0,0-.38.27.24.24,0,0,1-.38.13c-.08,0-.13-.09-.13-.27s-.08-.22-.25-.13c.08,0,0,.13-.25.4a2.07,2.07,0,0,1-1.46-.34,3.05,3.05,0,0,0-1.45-.47c-.17,0-.28-.11-.32-.33s-.15-.34-.31-.34a.38.38,0,0,0-.38-.07,1.47,1.47,0,0,1-.38.07,1.19,1.19,0,0,1-.13-.54c0-.18,0-.27-.13-.27s-.21-.09-.38,0-.29.09-.38,0-.14-.33-.19-.47a.78.78,0,0,0-.19-.33l-.57-.34a1.3,1.3,0,0,1-.44-.47c-.08-.09-.08-.23,0-.41s.09-.31,0-.4H240q-.12,0-.06-.27a2,2,0,0,0,.06-.4,6.69,6.69,0,0,1-.76-2.56,22.49,22.49,0,0,1-.25-3.3,28.49,28.49,0,0,1,.25-3.57,10.08,10.08,0,0,0,.38-1.14c.09-.31.21-.69.38-1.14a4.71,4.71,0,0,0,.13-1.15,1.87,1.87,0,0,1,.25-1,.12.12,0,0,1,.13-.13c.08,0,.17-.09.25-.27a22.35,22.35,0,0,1,2-5.66q1.46-3,2.6-4.84a20.43,20.43,0,0,1,1.39-9.43l.38-1.21a.42.42,0,0,1,.25-.4,1.38,1.38,0,0,0,.38-.27.67.67,0,0,0,.19-.61.66.66,0,0,1,.19-.6c.42-.18.63-.31.63-.41a.65.65,0,0,0,.19-.6.68.68,0,0,1,.19-.61,5.13,5.13,0,0,0,.89-.67,12.13,12.13,0,0,1,1.2-1.35c.46-.44,1-1,1.58-1.61a2.46,2.46,0,0,0,.45-.74,1.52,1.52,0,0,1,.57-.74c.08-.09.2-.09.37,0s.3.09.38,0a2.38,2.38,0,0,1,.07-.47c0-.23.1-.34.19-.34s.21-.09.38,0,.29.09.38,0a1,1,0,0,0,.19-.4c0-.18.1-.27.19-.27a.66.66,0,0,1,.63-.21,1,1,0,0,0,.76-.2q.26-.14.12-.27c-.08-.08,0-.13.13-.13a7.89,7.89,0,0,0,1.58-.74c.72-.4,1.29-.7,1.71-.88a3.84,3.84,0,0,1,.76-.13,1.17,1.17,0,0,0,.63-.27,13.82,13.82,0,0,1,3.23-.27,19.61,19.61,0,0,1,3.61.27h.24a.82.82,0,0,1,.38.48.87.87,0,0,0,.39.48,2,2,0,0,0,1,.34,1.36,1.36,0,0,1,.83.34,1.24,1.24,0,0,1,.32.62A1.26,1.26,0,0,0,272.56,124.88Zm-23.84,40.67c.59,0,.93-.05,1-.14a1.89,1.89,0,0,1,.76-.26c.33-.18.6-.34.81-.47a6.51,6.51,0,0,1,.57-.34,4.61,4.61,0,0,0,1.26-.53,8.48,8.48,0,0,1,.88-.54c.42-.27.76-.47,1-.6a3.33,3.33,0,0,0,.76-.61,2,2,0,0,1,.5-.4,2,2,0,0,0,.5-.4,2.49,2.49,0,0,0,.82-.67c.21-.27.4-.54.57-.8a1.17,1.17,0,0,1,.57-.14,1.18,1.18,0,0,0,.56-.13,1.69,1.69,0,0,0,.38-.61,1.74,1.74,0,0,1,.38-.6,5,5,0,0,1,.82-.47,4.29,4.29,0,0,0,.94-.6,9.28,9.28,0,0,1,.63-.87c.25-.31.51-.65.76-1a13.17,13.17,0,0,1-2.77-.26,21,21,0,0,1-2.4-.67c-.75-.27-1.51-.52-2.26-.74a14,14,0,0,0-2.4-.47c0-.36-.12-.49-.38-.4a39,39,0,0,0-2.83,5.63A22.5,22.5,0,0,0,248.72,165.55Zm9.83-18.76a15.94,15.94,0,0,0,5.66.6q3-.19,6.05-.33c.42-.81.95-1.77,1.58-2.89a10,10,0,0,0,1.19-3.81,10.77,10.77,0,0,0-.38-4.36,13,13,0,0,0-1.63-3.55,14.06,14.06,0,0,1-2-.47,6.13,6.13,0,0,0-1.7-.33c-.17.09-.25.18-.25.26s0,.14-.12.14a.93.93,0,0,1-.63.06,5,5,0,0,0-.76-.06l-2.08.73a7.19,7.19,0,0,0-1.7.88,1.2,1.2,0,0,1-.57.13.75.75,0,0,0-.56.27,1.78,1.78,0,0,0-.25.33,1,1,0,0,1-.38.34,14.59,14.59,0,0,1-1.64,1,6.52,6.52,0,0,0-1.64,1.28,14.88,14.88,0,0,0-1.26,1.54,1.58,1.58,0,0,0-.12,1.81c.08.26.19.33.31.2a.57.57,0,0,1,.44-.2,1.31,1.31,0,0,1,1,.4,1.27,1.27,0,0,1,.44,1.27c-.12.4.07.74.57,1,.59,0,.88.49.88,1.47a.49.49,0,0,0,0,.47c.08.13.15.25.19.33a.14.14,0,0,1-.06.2,1.64,1.64,0,0,1-.63.07.23.23,0,0,0-.13-.2c-.08,0-.17,0-.25.2a.42.42,0,0,1,.44.4A1.86,1.86,0,0,1,258.55,146.79Zm18-18.76a3.14,3.14,0,0,1,.75.73c.34.41.59.39.76-.06a.8.8,0,0,1-.5-.2,2.18,2.18,0,0,1-.44-.47,1.33,1.33,0,0,0-.32-.34C276.73,127.65,276.64,127.76,276.56,128Zm10.2,18.36c.25-.36.51-.52.76-.47a.69.69,0,0,1,.5.26c.08.14,0,.25-.12.34A1.87,1.87,0,0,1,286.76,146.39Z" transform="translate(-61.74 -65.88)"/>
<path class="cls-1" d="M290.51,139.62a1.69,1.69,0,0,1,.57-.4,1.65,1.65,0,0,0,.56-.4,6.06,6.06,0,0,1,.75-.46c.26-.14.59-.34,1-.6a3.69,3.69,0,0,0,.37-.47,1.12,1.12,0,0,1,.88-.46.68.68,0,0,0,.5-.27.82.82,0,0,0,.38-.4.82.82,0,0,1,.38-.4,2.22,2.22,0,0,1,1-.33,2,2,0,0,0,1-.33,1.19,1.19,0,0,0,.44-.4c.13-.18.23-.31.31-.4a.52.52,0,0,1,.51-.2.49.49,0,0,0,.5-.2,1.44,1.44,0,0,0,.81-.67,2.44,2.44,0,0,1,.69-.79,33.79,33.79,0,0,1,3.51-2.13.61.61,0,0,0,.32-.4.57.57,0,0,1,.31-.4.58.58,0,0,1,.56-.2.57.57,0,0,0,.57-.2c.08,0,.17-.08.25-.26a.82.82,0,0,1,.38-.4,4.16,4.16,0,0,1,1.06-.33,3,3,0,0,0,1.07-.47l.62-.67a1.25,1.25,0,0,1,.63-.26.7.7,0,0,0,.5-.27l.32-.33a4.41,4.41,0,0,1,.44-.33,27.14,27.14,0,0,1,8.4-2.93c-.17-.35-.57-.48-1.19-.4a8.67,8.67,0,0,0-1.7.4,7.45,7.45,0,0,0-1.88.8,2.34,2.34,0,0,1-1.88.27c0-.54.21-.76.63-.67a1.61,1.61,0,0,0,1.13-.13,1.2,1.2,0,0,0,.44-.6c.12-.31.52-.33,1.19-.07l.75-.8a1.39,1.39,0,0,1,.44-.33.31.31,0,0,0,.19-.33h5.39a3.57,3.57,0,0,1,.69.66,1.26,1.26,0,0,0,1.06.4,1.14,1.14,0,0,0,.19.74c.13.13.15.37.06.73a.91.91,0,0,0,.88.86c.5,0,.71.38.63,1a4,4,0,0,0,.81.86,7.23,7.23,0,0,1,.82.73c-.09.54,0,.87.25,1s.17.42-.25.87a1.13,1.13,0,0,0,.44.33,1.21,1.21,0,0,1,.44.33.65.65,0,0,1,.18.6.66.66,0,0,0,.19.6,10.08,10.08,0,0,1-.94,1.73c-.46.71-.9,1.33-1.31,1.86-.09.18-.15.24-.19.2s-.11,0-.19.2c0,.44-.17.69-.5.73a2.07,2.07,0,0,0-.88.33v.14a2.87,2.87,0,0,1-1.41.2,11.13,11.13,0,0,1-1.41-.2c.08-.27-.09-.48-.51-.61s-.39-.29.12-.48c0-.54.09-.83.26-.88s.09-.25-.26-.61a29,29,0,0,0-9.23,2.24q-4.23,1.83-7.95,3.86a68.26,68.26,0,0,0-7.24,4.14,81,81,0,0,0-6.73,4.95c.17.54.9.81,2.18.81.51.18.49.3-.07.34a2.3,2.3,0,0,1-1.09-.07c-.42-.09-.64,0-.64.34s-.12.48-.38.48a1.72,1.72,0,0,0-1.54.13,1.77,1.77,0,0,1-1.41.27,1.09,1.09,0,0,0,1.09.41,4.79,4.79,0,0,1,1.09-.14q1.15,0,2.82-.06a5.47,5.47,0,0,0,2.56-.61,1.22,1.22,0,0,1,.58-.27,5.68,5.68,0,0,0,.84-.14h.76c.09-.18.34-.32.77-.41a3.8,3.8,0,0,0,.9-.27,13.05,13.05,0,0,1,4.74-.2,47.6,47.6,0,0,0,5.13.47c-.08-.27-.23-.4-.45-.4a1.21,1.21,0,0,1-.7-.28c-.26-.17-.41-.24-.45-.2s-.15,0-.32-.2c.08,0,0-.09-.19-.27s-.28-.23-.19-.14c-.18-.09-.26.05-.26.41-.17,0-.26-.07-.26-.21s0-.2-.13-.2a4.53,4.53,0,0,0-1.15.14,2,2,0,0,1-1.41-.41c.17-.45.64-.5,1.41-.13a1.87,1.87,0,0,0,1.8.13,1.54,1.54,0,0,0-1-.81,1.24,1.24,0,0,1,1.28-.48,7.78,7.78,0,0,1,1.16.48,8.76,8.76,0,0,1,1.41.54,2.73,2.73,0,0,0,1.28.27,2.19,2.19,0,0,0,.51.75,2,2,0,0,1,.51.74.15.15,0,0,0-.25,0,.38.38,0,0,0-.13.27c0,.19.17.27.51.27a.48.48,0,0,1,.52.55c.25-.09.32-.23.19-.41a1.14,1.14,0,0,1-.19-.68,2.08,2.08,0,0,1,1.66,1,6.2,6.2,0,0,0,1.28,1.56c.86.81,1.56,1.51,2.12,2.1a21.92,21.92,0,0,1,1.86,2.37,1.25,1.25,0,0,0,.38.48.59.59,0,0,1,.26.47V158h.85a3.32,3.32,0,0,1,.13,1.05,2.7,2.7,0,0,0,.26,1.19,4.81,4.81,0,0,0,.51,1.44,4.32,4.32,0,0,1,.25,1.85,14.23,14.23,0,0,1-.64,2.89,12.85,12.85,0,0,1-1.14,2.63l-.38.4a3.41,3.41,0,0,0-.39.79,1.56,1.56,0,0,1-.38.65,1,1,0,0,1-.57.33,1.19,1.19,0,0,0-.57.33,2,2,0,0,0,.06.4.41.41,0,0,1-.06.39,2.61,2.61,0,0,1-.58.46,1,1,0,0,0-.44.59q0,.66-1,1.32a6.63,6.63,0,0,0-1.46,1.32,4.54,4.54,0,0,0-1,1.18,5.29,5.29,0,0,1-.76,1c-.26.18-.53.35-.83.53s-.61.35-.95.53a.87.87,0,0,0-.38.32,2.9,2.9,0,0,1-.39.46,2.42,2.42,0,0,1-.63.4,2.37,2.37,0,0,1-.45.39,4.24,4.24,0,0,1-.44.27c-.09.09-.19.09-.32,0s-.24-.09-.32,0v.39a2.77,2.77,0,0,1-.83.4,6,6,0,0,0-.95.39.41.41,0,0,0-.38.26,1.53,1.53,0,0,1-.26.4.76.76,0,0,1-.57.26,1.33,1.33,0,0,0-.57.13l-2.23.86c-.81.31-1.64.64-2.48,1a.29.29,0,0,1-.32.06,1.16,1.16,0,0,0-.32-.06.83.83,0,0,1-1.08.26,1.13,1.13,0,0,0-1.08,0,2.11,2.11,0,0,1-1.34.72,10.88,10.88,0,0,1-2.16.2,21.67,21.67,0,0,1-2.42-.13c-.81-.09-1.46-.18-2-.26a1.76,1.76,0,0,0-.83-.07,5,5,0,0,1-.83.07.52.52,0,0,0-.38-.53,3.15,3.15,0,0,1-1.4-.26c-.51-.18-1-.35-1.46-.53a2,2,0,0,1-1.09-.92,1.45,1.45,0,0,1-1.65-.33,3.9,3.9,0,0,0-1.53-.86c-.08,0-.21-.08-.38-.26l-.38-.39-.38-.4a7,7,0,0,1-.45-.79q-.19-.39-.57-1a2.22,2.22,0,0,1,.19-2.63,6.26,6.26,0,0,1,2.61-1.84,11.31,11.31,0,0,1-.57-2.24,2.53,2.53,0,0,1,.57-2.11c.42.27.62.53.57.79a4.07,4.07,0,0,1-.25.86,4,4,0,0,0-.26,1,1.5,1.5,0,0,0,.32,1.05,2.48,2.48,0,0,0,2.23-.59,3,3,0,0,1,1.72-1c-.09.79,0,1,.38.72a1.12,1.12,0,0,1,1-.33c.42.44.55.82.38,1.12a3.68,3.68,0,0,0-.38,1.12.86.86,0,0,0,.82.66,2.93,2.93,0,0,1,1,.13,15.23,15.23,0,0,0,2.42.4,19.38,19.38,0,0,0,3.05,0,9.36,9.36,0,0,0,1.91-.46l1.91-.73,1.84-.52c.64-.18,1.26-.35,1.85-.53v-.13l.25-.27a9.06,9.06,0,0,0,2.17-.79c.08,0,.13-.06.13-.19s.08-.2.25-.2h.13a.4.4,0,0,0,.38-.27.87.87,0,0,1,.38-.4c.08-.08.2-.08.37,0s.29.09.38,0a1.69,1.69,0,0,1,.63-.79.34.34,0,0,1,.25-.14c.16,0,.2,0,.12-.13-.42-.35-.48-.42-.19-.2s.48.29.57.2,0-.29.06-.6.1-.24.19.2c.25.27.48.13.69-.4s.35-.75.44-.66c.25.35.46.29.62-.2a2.9,2.9,0,0,1,.88-1.27,7.67,7.67,0,0,0,.94-.86,3.13,3.13,0,0,1,1.07-.73,13.86,13.86,0,0,0,1-3.46,8,8,0,0,0-.25-4c.17-.44,0-.64-.44-.6s-.69-.11-.69-.46-.37-.64-1.13-.87l-2-.6a.37.37,0,0,0-.38-.06,1.8,1.8,0,0,1-.37.06q-.26-.39-.51-.39a5,5,0,0,1-.87-.14c-.42-.08-1.11-.2-2.07-.33l-2.45-.33a41.21,41.21,0,0,0-5.45-.2q-3,.06-5.83.2c.08,0,.08.09,0,.26s-.21.18-.38,0c-.33-.35-.63-.42-.88-.2a1.49,1.49,0,0,1-1.25.2c.08,0,.08,0,0-.13a.36.36,0,0,0-.25-.13,6.89,6.89,0,0,0-1.13.13,2.37,2.37,0,0,1-1.38-.13v-.4a.84.84,0,0,0-.31.07.29.29,0,0,1-.32-.07l-.56-.6a3.38,3.38,0,0,1-.57-.86c-.16-.54-.12-.85.13-.93a1.25,1.25,0,0,0,.63-.54,2.43,2.43,0,0,0-.5-.4,1.93,1.93,0,0,1-.51-.39l-.37-.4a1.55,1.55,0,0,0-.38-.27c-.33-1.24-.64-2.37-.94-3.39a6.79,6.79,0,0,1-.19-3,.5.5,0,0,0,.5-.4.54.54,0,0,0,.13-.4,1.08,1.08,0,0,1,.13-.67c0-.08.1-.15.31-.2a.82.82,0,0,0,.44-.2,2,2,0,0,0-.06-.39.38.38,0,0,1,.06-.4,1.09,1.09,0,0,1,.5-.34,1,1,0,0,0,.5-.33,1.8,1.8,0,0,0,.38-.6.79.79,0,0,1,.37-.46c.25-.27.42-.31.5-.14s.26.23.51.14c.08-.09.18-.22.31-.4a1.28,1.28,0,0,1,.44-.4,1.89,1.89,0,0,0,.37-.53,1.39,1.39,0,0,1,.63-.53,1.56,1.56,0,0,1,.69-.4,1.56,1.56,0,0,0,.69-.4,2,2,0,0,0,.57-.6,3.26,3.26,0,0,1,.43-.6,1.79,1.79,0,0,1,.51.07c.16,0,.25,0,.25-.07l.25-.27a.55.55,0,0,0,.12-.39c.09,0,.23.09.44.26s.31.09.31-.26.21-.4.63-.14.8,0,1.13-.66c.25-.09.42,0,.5.13s0,.27-.12.27c-.09-.18-.36,0-.82.6s-.65.86-.56.86c.16.18.19.31.06.4a2.94,2.94,0,0,0-.44.4l-.75.8a3.31,3.31,0,0,1-.75.53A1.67,1.67,0,0,0,290.51,139.62Zm10.36-5.29a.63.63,0,0,0-.13.46c0,.23,0,.34-.12.34a9.45,9.45,0,0,1-1.58.47c-.63.13-.94.33-.94.6s-.19.45-.57.54a3.68,3.68,0,0,0-.82.27,1.9,1.9,0,0,1-.88,1.27c-.42.22-.59.69-.5,1.41a2.2,2.2,0,0,0-1,.26c.16.36.08.56-.25.61s-.51.11-.51.2c-.17.18-.12.33.13.47s.21.2-.13.2l-1.38.6a3.65,3.65,0,0,1-1.89.2,7,7,0,0,1-1.89,2c-.76.54-1.51,1.12-2.27,1.74a.62.62,0,0,0,.06.61l.38.4a1.77,1.77,0,0,1,.32.47,1.33,1.33,0,0,1,0,.8,1.25,1.25,0,0,1,1.13,0,1.54,1.54,0,0,0,1.26,0c.25-.09.4-.2.44-.33a.6.6,0,0,1,.31-.34.72.72,0,0,1,.51-.27,1,1,0,0,0,.5-.13l.76-.8a5.57,5.57,0,0,0,1-.81l.75-.8c.42-.36.8-.72,1.14-1.07l1-1.08a.24.24,0,0,1,.32,0c.12.09.23.09.31,0a2.89,2.89,0,0,0,.7-.73,2.6,2.6,0,0,1,.69-.74,2.23,2.23,0,0,1,.82-.47,1.79,1.79,0,0,0,.69-.33.93.93,0,0,1,.25-.67.77.77,0,0,1,.57-.27,1.2,1.2,0,0,0,.57-.14,11.6,11.6,0,0,0,1.63-1.27,7.87,7.87,0,0,1,1.26-1,4,4,0,0,1,.82-.54,1.27,1.27,0,0,0,.57-.67c.08-.09.19-.09.31,0s.23.09.32,0,.14-.11.19-.34.1-.33.19-.33a.35.35,0,0,1,.37-.07,1.47,1.47,0,0,0,.38.07,1.18,1.18,0,0,0,.13-.4.58.58,0,0,1,.12-.4c.09-.09.21-.09.38,0s.29.09.38,0A.59.59,0,0,0,308,134a1.5,1.5,0,0,1,.32-.47.93.93,0,0,0,.38-.13.91.91,0,0,1,.37-.14c.26,0,.36,0,.32-.13a.24.24,0,0,1,.06-.27l1.14-.6a2.74,2.74,0,0,0,1-.87c-.67.27-1,.29-.94.06s-.15-.51-.57-.87a5.23,5.23,0,0,1-2.58,1.61,4.8,4.8,0,0,0-2.33,1.34l-1,.4c-.17.09-.29.09-.38,0a.16.16,0,0,0-.25,0c-.08.09-.08.25,0,.47s.09.34,0,.34-.21.09-.38,0-.29-.09-.37,0l-.63.67a.83.83,0,0,1-.63.27,1.31,1.31,0,0,0-.63.13,1.18,1.18,0,0,0-.32.6c0,.23-.27.29-.69.2a1.49,1.49,0,0,1,.57-.87,6.85,6.85,0,0,1,.94-.6,6.29,6.29,0,0,1,.95-.74q.69-.46.06-.87-.25.67-.63.6A1.42,1.42,0,0,0,300.87,134.33ZM303,147.59q-.63-.79,0-.87a2.36,2.36,0,0,1,1,.07v.4a1,1,0,0,0,.5.13c.25.09.33.18.25.27s-.33,0-.5-.13l-.25-.27c-.25,0-.36,0-.31.13a.23.23,0,0,1-.07.27q-.12,0-.24-.27a.25.25,0,0,0-.38-.13Zm1.14-1.61c0-.17.07-.24.19-.2s.19.12.19.2c.25,0,.69,0,1.32.07s.65.16.07.34A2.91,2.91,0,0,1,304.14,146Z" transform="translate(-61.74 -65.88)"/>
<path class="cls-2" d="M415.15,111.28a2.36,2.36,0,0,0-1.26-.14,2.08,2.08,0,0,0-.51.14c-.25.09-.33.13-.25.13q-.63-.14-.69-.6a2.13,2.13,0,0,0-.32-.87c-.25-.36-.58-.78-1-1.28a2.38,2.38,0,0,1-.26-2.21c-1-.26-1.42.32-1.26,1.75a2.32,2.32,0,0,1-.69-1.34,3.77,3.77,0,0,0-.31-1.21c-.09,0-.21-.18-.38-.54a2.16,2.16,0,0,0-.25-.4c-.09-.27-.05-.44.12-.53a.45.45,0,0,0,.26-.41,11.81,11.81,0,0,1,.75-2.68,8,8,0,0,0,.5-3.08c0-.44-.18-.65-.56-.6s-.53-.16-.44-.6a5.65,5.65,0,0,1-2.14.13,8.59,8.59,0,0,0-2.15,0A17.13,17.13,0,0,0,400.16,98c-1.35.54-2.73,1.07-4.16,1.61-.75.27-1.43.49-2,.67a7.21,7.21,0,0,0-1.89.94,6,6,0,0,0-1.26.73,2.06,2.06,0,0,1-1.26.47,1.09,1.09,0,0,0-.51.14,1.79,1.79,0,0,1-.75.27.81.81,0,0,0-.38.46.77.77,0,0,1-.38.47.93.93,0,0,1-.38-.13c-.17-.09-.29-.09-.37,0a3.69,3.69,0,0,1-.82.6c-.38.23-.78.47-1.2.74a1.79,1.79,0,0,0-.5.4l-.38.4a.39.39,0,0,1-.44,0,.24.24,0,0,0-.32,0,7.76,7.76,0,0,1-.63.87.93.93,0,0,1-1,.34,3.6,3.6,0,0,0-.63.47,6.27,6.27,0,0,0-.63.6,1,1,0,0,1-.38.14.88.88,0,0,0-.38.13,5.22,5.22,0,0,0-.44.54,5.14,5.14,0,0,1-.44.53,1.87,1.87,0,0,0-.76.27,5.22,5.22,0,0,0-.44.54,4.11,4.11,0,0,1-.44.53,1.13,1.13,0,0,1-.44-.2c-.21-.13-.31-.11-.54.07v.4c0,.18-.32.33-.66.47a4.07,4.07,0,0,0-.88.47,3.26,3.26,0,0,0-.38.47,1,1,0,0,1-.37.33,1.93,1.93,0,0,0-.76.67,1.85,1.85,0,0,1-.88.67,7.53,7.53,0,0,0-.88.54,1,1,0,0,0-.38.33,3.26,3.26,0,0,1-.38.47,5,5,0,0,0-.75.67,3.47,3.47,0,0,1-.89.67,3.2,3.2,0,0,0-1,.94,16.94,16.94,0,0,1-1.14,1.34.64.64,0,0,1-.63.2.67.67,0,0,0-.63.2,11.79,11.79,0,0,1-2,2.15,10.27,10.27,0,0,0-.7.8c-.21.27-.39.49-.56.67-1.09,1-2.19,1.94-3.28,2.88a27.78,27.78,0,0,0-3,3,2,2,0,0,0-.63.8,3.68,3.68,0,0,1-.63.94,3.12,3.12,0,0,1-.94.73,1.6,1.6,0,0,0-.7.61.44.44,0,0,0-.12.53c.08.18.08.32,0,.41s-.21.06-.38-.07-.3-.16-.38-.07a.93.93,0,0,0-.06.6c0,.23,0,.39-.06.47a2.28,2.28,0,0,0-.63.61,3.67,3.67,0,0,0-.63,1.14,49.5,49.5,0,0,0,8.81-1.55c2.77-.75,5.59-1.49,8.44-2.21l4.28-.8,4.29-.8a.41.41,0,0,1,.12-.27c.09-.09.15-.14.19-.14a.33.33,0,0,0,.19-.13,3,3,0,0,1,.82.2c.38.13.61.11.69-.07a2.43,2.43,0,0,1,1-.47,5.21,5.21,0,0,1,1.26-.2,28.64,28.64,0,0,1,6.05-.47,45.43,45.43,0,0,1,7.05.74c-.17-.62-.46-.87-.88-.74a1.72,1.72,0,0,1-1.26-.06,2.73,2.73,0,0,1-1.14-.54,1,1,0,0,0-1.13-.13c0-.54.23-.69.69-.47a2.06,2.06,0,0,0,1.33.2,4.56,4.56,0,0,1,1.89.13l1.76.54a2.23,2.23,0,0,1,.38.54.24.24,0,0,0,.38.13.79.79,0,0,0,.37-.2c.17-.14.17-.25,0-.34.25.18.34.36.25.54a.64.64,0,0,0,0,.54,1.12,1.12,0,0,0,1.08.26,1.55,1.55,0,0,1,1.32.41,4.61,4.61,0,0,1,.63,1,5.1,5.1,0,0,0,.75,1.14,5.44,5.44,0,0,0,.7.87l.69.74a1.61,1.61,0,0,1,.06.8q-.06.54.57.27a2.85,2.85,0,0,0-.13,1.41,3.16,3.16,0,0,0,.38,1,2.92,2.92,0,0,0,.44,1.14,3.24,3.24,0,0,1,.44.87,1.6,1.6,0,0,1,.25.87,1.82,1.82,0,0,0,.13.74c0,.09.11.18.32.27a1.53,1.53,0,0,1,.44.27,2.87,2.87,0,0,1,.06,1,1.28,1.28,0,0,0,.19.87,29,29,0,0,1,.25,4.49,38.16,38.16,0,0,1-.38,5.56,19.4,19.4,0,0,1-2.2,5.76,53.38,53.38,0,0,1-3.34,5.36,61,61,0,0,1-7.31,8.71c-.42.45-.81.9-1.19,1.34s-.82.94-1.32,1.48a1.61,1.61,0,0,1-.76.4,1.56,1.56,0,0,0-.76.4,1.26,1.26,0,0,0-.5.67,1.63,1.63,0,0,1-.38.67,4.56,4.56,0,0,1-.94.4,1.55,1.55,0,0,0-.7.41,2.21,2.21,0,0,0-.62.67,2.09,2.09,0,0,1-.76.67,2.13,2.13,0,0,1-.69.46,5.86,5.86,0,0,0-.82.47.38.38,0,0,0-.13.27c0,.09-.12.14-.38.14a.77.77,0,0,0-.81.46,2,2,0,0,1-.82.88c-.09.09-.19.06-.32-.07s-.94-.07-.94-.07v.54s.29.09.12,0-.12,0-.12,0v.5a1,1,0,0,1-.45-.2c-.21-.14-.32-.11-.32.07-.17.27-.6.45-1.28.54a4.26,4.26,0,0,0-1.67.55,6.09,6.09,0,0,1-2.82,1c-1.28.19-2.43.37-3.46.55-.09,0-.15.09-.19.27a.3.3,0,0,1-.32.27,21.92,21.92,0,0,0-4.75.28,21.82,21.82,0,0,1-4.74.27,8.4,8.4,0,0,1-1.09-.07,11.63,11.63,0,0,0-1.22-.07,4.23,4.23,0,0,1-.89-.47,1,1,0,0,0-.65-.21.4.4,0,0,0-.38.27.25.25,0,0,1-.39.14c-.25,0-.38-.09-.38-.27h-.83a2.09,2.09,0,0,0-1.17-.41v-.27l-.08-.4a5.25,5.25,0,0,1-.95-.07,3.45,3.45,0,0,1-.94-.47A.32.32,0,0,1,350,185c0-.13,0-.2-.19-.2s-.37-.22-.63-.67a2.9,2.9,0,0,0-.75-.93c0-.63-.19-.92-.57-.88a1.26,1.26,0,0,1-.94-.2,1.38,1.38,0,0,1-.7-.8c-.12-.36-.4-.45-.81-.27a41.93,41.93,0,0,0-1.39-4.15,16.56,16.56,0,0,1-1-4.56,5.73,5.73,0,0,1,.95.07,6.91,6.91,0,0,0,.94.07,4.49,4.49,0,0,1,0-3.89,1.41,1.41,0,0,1,1,.54,1.32,1.32,0,0,0,.88.53,21.63,21.63,0,0,0,.13-2.41c0-.89.33-1.34,1-1.34a.64.64,0,0,1,.51-.47,1.08,1.08,0,0,0,.63-.33,2.78,2.78,0,0,0,.44-.67c.12-.27.4-.32.82-.14a5.3,5.3,0,0,0,.38,1.14c.08.13.42.11,1-.07-.17.72-.08,1.19.26,1.41a2,2,0,0,1,.75,1,8.7,8.7,0,0,1,2.39.53,10.11,10.11,0,0,0,2.9.54,40,40,0,0,0,9.89-1.07,60.68,60.68,0,0,0,10.64-3.49,1.2,1.2,0,0,1,.57-.13,1.2,1.2,0,0,0,.57-.14,1.77,1.77,0,0,0,.37-.6.87.87,0,0,1,.38-.47,4.2,4.2,0,0,1,1.26-.33,3.23,3.23,0,0,0,1.14-.34,1.19,1.19,0,0,0,.44-.47,1.12,1.12,0,0,1,.44-.47c.33-.17.65-.35.94-.53a8.9,8.9,0,0,0,.95-.67,6,6,0,0,1,1.45-1.14,9.2,9.2,0,0,0,1.57-1.14,5.37,5.37,0,0,1,.82-.94c.29-.27.57-.53.82-.8l.5-.54a2.19,2.19,0,0,0,.38-.53c.17-.27.36-.61.57-1s.44-.82.69-1.27a3.63,3.63,0,0,1,.5-.4c.25-.18.38-.32.38-.41a17.64,17.64,0,0,0,.94-3.41,19.38,19.38,0,0,0,.32-3.29c-.17-1-.55-1.47-1.13-1.47a7.22,7.22,0,0,1-2.15-.4,15.65,15.65,0,0,0-6.17-1.07c-2.43,0-4.62.09-6.55.26q-1,.27-1.89.54a6.44,6.44,0,0,1-1.89.27,4.6,4.6,0,0,0-1.76.06c-.5.14-1.13.3-1.89.47-1.43.36-3,.72-4.6,1.08s-3.21.71-4.72,1.07a7.3,7.3,0,0,1-1.89.27,9.39,9.39,0,0,0-2,.26c-.08,0-.12.07-.12.2a.38.38,0,0,1-.25.34,21.51,21.51,0,0,1-2.65.47c-1.09.13-2.06.29-2.89.47a8.38,8.38,0,0,1-1.14.2,6.76,6.76,0,0,0-1.13.2,20.76,20.76,0,0,1-4.73,0,5,5,0,0,1-3.59-2.28,1.5,1.5,0,0,0-1.38-1.34,2.09,2.09,0,0,1-1.64-.94,4.73,4.73,0,0,0-.88-3.08c.42-1,.84-2,1.26-3.08a20.44,20.44,0,0,1,1.51-3.08c.17-.18.27-.22.32-.14s.1,0,.19-.26a2.41,2.41,0,0,1,.56-.88,8.91,8.91,0,0,0,.82-1l.76-1.07a11.08,11.08,0,0,1,1-1.21,6.93,6.93,0,0,1,.89-1c.33-.32.71-.69,1.13-1.14.84-1,1.72-2.06,2.64-3.22s1.89-2.28,2.9-3.35a19.66,19.66,0,0,1,1.51-1.41c.59-.49,1.18-1,1.77-1.54.67-.71,1.44-1.47,2.33-2.27s1.78-1.57,2.7-2.28a10.74,10.74,0,0,1,1-.94,11.94,11.94,0,0,1,1.14-.8,1.11,1.11,0,0,0,.18-.54,1.2,1.2,0,0,1,.19-.54c.26-.08.49-.15.7-.2a3.17,3.17,0,0,0,.94-.47,1,1,0,0,0,.19-.53c0-.27.1-.4.19-.4.33-.18.61-.32.82-.41a3.49,3.49,0,0,0,.82-.53c.16-.09.23-.18.19-.27s0-.13.18-.13a1.15,1.15,0,0,0,.82-.54,3.17,3.17,0,0,1,1-.8l1.82-1.21c.55-.36,1.16-.8,1.83-1.34a4.17,4.17,0,0,0,.44-.54,6.48,6.48,0,0,1,.44-.53.69.69,0,0,1,.38.2c.17.13.29.11.38-.07a4.47,4.47,0,0,1,1.2-1.07c.54-.36,1.11-.71,1.7-1.07a1.13,1.13,0,0,1,.56-.14,1.2,1.2,0,0,0,.57-.13,1.51,1.51,0,0,0,.25-.54,1.53,1.53,0,0,1,.25-.53,3.81,3.81,0,0,1,1.26-.54,5,5,0,0,0,1.51-.67c.17-.09.26-.18.26-.27s0-.13.12-.13a2.92,2.92,0,0,1,.76-.54,7.8,7.8,0,0,1,.88-.4.74.74,0,0,0,.44-.13.61.61,0,0,1,.32-.14.83.83,0,0,1,.63-.26.83.83,0,0,0,.63-.27c.08,0,.16-.14.25-.4s.16-.41.25-.41a.23.23,0,0,1,.31,0,.39.39,0,0,0,.44,0,4.33,4.33,0,0,1,.89-.93l.75-.41a1.84,1.84,0,0,1,.57-.4,1.35,1.35,0,0,0,.57-.53,2,2,0,0,1,.88-.34,2.81,2.81,0,0,0,1.13-.47.66.66,0,0,0,.5-.33c.17-.23.3-.38.38-.47a1.24,1.24,0,0,1,.82-.2,1.3,1.3,0,0,0,.82-.2,2.69,2.69,0,0,0,.31-.47c.13-.23.28-.34.45-.34a2.69,2.69,0,0,1,.94-.27,2,2,0,0,0,.69-.13q.25-.27.63-.6a.89.89,0,0,1,.88-.2,2.47,2.47,0,0,0,.89-.34l1.13-.6a2.16,2.16,0,0,0,1-.27c.33-.18.71-.36,1.13-.54a7.32,7.32,0,0,0,1.51-.13,2.73,2.73,0,0,1,1.14-.54,2.19,2.19,0,0,0,.75-.13l.76-.27a.68.68,0,0,0,.06-.53c0-.27,0-.41.06-.41a1.4,1.4,0,0,1,.44.07.93.93,0,0,0,.32.07c.17-.09.25-.18.25-.27a.38.38,0,0,1,.13-.27l1-.28h2a1.41,1.41,0,0,0,1-.26c.25-.45.42-.56.5-.34a.87.87,0,0,0,.63.47.4.4,0,0,0,.38-.27.4.4,0,0,1,.38-.27.41.41,0,0,0,.12.27.24.24,0,0,0,.26.27,3.28,3.28,0,0,1,1.76.8L415,86c0,.09,0,.14.13.14a13.58,13.58,0,0,1,1.38,1,7.66,7.66,0,0,1,1.14,1.81,3.77,3.77,0,0,0,.5.67,3.27,3.27,0,0,1,.5.8,1.16,1.16,0,0,1,.19.81,1.11,1.11,0,0,0,.07.67.53.53,0,0,0,.37.33.9.9,0,0,1,.38.2c.08.09.08.25,0,.47s-.12.38-.12.15h.37a1.52,1.52,0,0,1,0,.92c-.08.23-.08.39,0,.47a1.28,1.28,0,0,1,.19.87,3.55,3.55,0,0,0,.07,1.14,16.07,16.07,0,0,0,.31,2.68,7.53,7.53,0,0,1-.06,3.22,4.15,4.15,0,0,0-.25.67c-.09.27-.17.54-.26.8a8.06,8.06,0,0,0-.44.81c-.12.27-.27.62-.44,1.07a.56.56,0,0,0-.06.47.56.56,0,0,1-.06.47,2.21,2.21,0,0,0-.51.73c-.08.23-.46.25-1.13.07.17.45.17.76,0,.94l-.51.54a.78.78,0,0,0,0,.6c.09.22.09.38,0,.47s-.29.13-.37-.14-.09-.44,0-.53c-.17.18-.32.33-.44.47a1.56,1.56,0,0,0-.32.47.76.76,0,0,0-.19.67C415.5,111.14,415.4,111.28,415.15,111.28Zm-66.64,6.89c.26.18.36.31.32.4s-.15.13-.32.13a14.1,14.1,0,0,0-1.13,1.68,2.4,2.4,0,0,1-1.38,1.14,8.84,8.84,0,0,1-.57,1.4c-.21.41-.49.87-.82,1.41-.08.18-.17.22-.25.13s-.13,0-.13.27a2.19,2.19,0,0,0-.5.4.75.75,0,0,0-.25.41l-.13.13a.82.82,0,0,0-.38.4c-.08.18-.21.18-.38,0a4.05,4.05,0,0,1-1.26,2.21,6.18,6.18,0,0,0-1.51,2.08.82.82,0,0,1-.06-1.27,3.46,3.46,0,0,0,.69-1.28,2,2,0,0,1,.63-.93,2,2,0,0,0,.63-.81,1,1,0,0,0,.07-.6.5.5,0,0,1,.06-.47h.38c.16-.27.33-.58.5-.94a3.27,3.27,0,0,1,.5-.8,3.87,3.87,0,0,1,1.07-1.41c.55-.49,1-1,1.45-1.41a4.22,4.22,0,0,0,.44-.93,4.83,4.83,0,0,1,.45-.94.89.89,0,0,1,.69-.6c.29,0,.48-.29.56-.74.26,0,.36.13.32.4s-.08.52-.13.74a3.75,3.75,0,0,0-.06.4S348.18,118.61,348.51,118.17Zm18.11-17.4c-.18-.44-.43-.53-.77-.27a8,8,0,0,0-.77.67,4,4,0,0,0-.9,1,4.29,4.29,0,0,1-1.15,1.14,2.68,2.68,0,0,0-1,.94,1.23,1.23,0,0,1-1.47.4c.34-.18.4-.47.19-.87s-.23-.61-.06-.61c.34-.35.77-.78,1.28-1.27s1-1,1.54-1.41a2.73,2.73,0,0,0,.7-.73,7.14,7.14,0,0,1,.58-.74,3.29,3.29,0,0,1,.9-.34,1.48,1.48,0,0,0,.77-.46,3.68,3.68,0,0,0,.7-.67,3.2,3.2,0,0,1,.71-.67,2.41,2.41,0,0,0,.57-.47.88.88,0,0,1,.58-.34.83.83,0,0,0,.64-.53,1.83,1.83,0,0,1,.64-.81q.14-.13.39,0c.17.09.3.09.38,0a3.93,3.93,0,0,1,.77-.67c.17-.09.47-.27.9-.53.17-.18.26-.32.26-.41s.08-.13.25-.13h.39c.17-.18.36-.4.57-.67s.41-.49.58-.67a.52.52,0,0,1,.51,0c.17.09.26.09.26,0,.17,0,.3-.13.38-.4s.17-.4.26-.4.21-.09.39,0,.29.09.38,0v-.54c.08-.09.21-.07.38.07s.3.15.39.06l.64-.67a3.17,3.17,0,0,1,1-.67l1.6-.73a3.44,3.44,0,0,0,1.22-1,3.27,3.27,0,0,0,.7.54c.3.18.45,0,.45-.4a1.14,1.14,0,0,1,.58.4c.12.18.23.36.32.53a1.56,1.56,0,0,0,.32.47.93.93,0,0,0,.7.2,6.23,6.23,0,0,1,.77-.87,2.71,2.71,0,0,0,.64-1.4.74.74,0,0,1,.77-.14.74.74,0,0,0,.77-.13c.26-.36.43-.49.51-.4s.3.09.65,0a6.76,6.76,0,0,0,1.47-.74,4,4,0,0,1,1.35-.6,1.07,1.07,0,0,1,.77.26,2.64,2.64,0,0,0,.89.54,3.66,3.66,0,0,0,1.61-.34,1.57,1.57,0,0,1,1.47.07,1.54,1.54,0,0,1-1.54.81c-.34-.09-.47.06-.38.46a1,1,0,0,1-.13.88.87.87,0,0,1-.9.33c-.43,0-.68.29-.77,1-.17.18-.38.18-.64,0s-.47-.23-.64-.14v.54c0,.27,0,.4-.13.4a.4.4,0,0,1-.51-.13.38.38,0,0,1-.13-.27c-.26.18-.36.33-.32.47s0,.29-.19.47a1,1,0,0,1-.39-.14c-.19-.09-.32-.09-.41,0a1.51,1.51,0,0,1-1,.73,16.68,16.68,0,0,0-2.21.45.49.49,0,0,0-.13.33c0,.14-.08.2-.25.2s-.39,0-.39-.13c-.17.09-.25.18-.25.27a.12.12,0,0,1-.13.13,1.74,1.74,0,0,1-1,.2,1,1,0,0,0-.71.2c-.25.18-.36.34-.32.47s0,.29-.19.47-.3.18-.38,0a.25.25,0,0,0-.39-.13,3.36,3.36,0,0,0-.45.6,1.2,1.2,0,0,1-.45.47,2.45,2.45,0,0,1-.83.13,1.57,1.57,0,0,0-.71.14l-.57.33a.77.77,0,0,1-.71.07c-.25-.09-.34,0-.25.27s.17.36.25.27l-.77.8a.52.52,0,0,1-.51,0c-.17-.09-.26-.09-.26,0a3.31,3.31,0,0,0-.89.67c-.52.54-.77.76-.77.67-.26-.45-.37-.54-.32-.27s.15.36.32.27a5.14,5.14,0,0,1-1.54.74c-.69.22-1.07.56-1.15,1,0,.27-.26.52-.77.74a6.65,6.65,0,0,0-1.16.6c-.08-.09-.17,0-.25.34s-.18.47-.26.47q.12,0-.51-.27c-.43-.18-.52-.09-.26.27s.15.44-.06.53-.47.18-.77.27a2.09,2.09,0,0,0-.77.4c-.22.18-.28.54-.19,1.07a1.07,1.07,0,0,0-1.09.27,1.17,1.17,0,0,1-1,.4c-.25,0-.34.12-.25.34s.17.29.25.2a2.38,2.38,0,0,1-.77.74c-.34.22-.64.42-.89.6a15.39,15.39,0,0,0-1.16,1.34,1.38,1.38,0,0,1-1.41.54,1.92,1.92,0,0,1,.52-.74,1.35,1.35,0,0,0,.38-.74.68.68,0,0,0-.77.2c-.17.23-.3.12-.38-.33a2.38,2.38,0,0,0-1.67,1c-.43.58-.86,1.14-1.28,1.68a.66.66,0,0,0-1,.2,5.11,5.11,0,0,1-1,1.14.56.56,0,0,1-.07-.81c.22-.26.41-.49.58-.67.68-.8,1.54-1.69,2.56-2.68l.64-.67.65-.67c.08-.08.21-.08.38,0s.3.09.39,0a4,4,0,0,1,.76-.67,5.68,5.68,0,0,0,.9-.67.38.38,0,0,0,.26-.33c0-.14.08-.16.25-.07q.65,0,.84-.33a11.68,11.68,0,0,1,.7-1Zm-4,5.68a1.21,1.21,0,0,1,.38-.8l.76-.8a2.53,2.53,0,0,0,.5-.74.5.5,0,0,0-.25-.6,1,1,0,0,1-.38.73c-.25.23-.48.45-.69.67a3.06,3.06,0,0,0-.51.74A.69.69,0,0,0,362.62,106.45ZM367.53,128a1.4,1.4,0,0,1-1.63.67C366,128,366.53,127.76,367.53,128Zm2.27-.4a1.67,1.67,0,0,1,.76.13c0,.36-.15.54-.44.54a1.33,1.33,0,0,1-.76-.21c-.21-.13-.31-.26-.31-.4S369.3,127.54,369.8,127.63Zm38.42-47c.25-.53.52-.82.82-.87a1.87,1.87,0,0,1,.94.13l1.07.41a3.68,3.68,0,0,0,1.2.2c0,.45.17.71.5.8s.34.49,0,1.21a1.28,1.28,0,0,1-.75-.27,3,3,0,0,1-.63-.6,2.68,2.68,0,0,0-.51-.54c-.16-.13-.37-.11-.63.07-.33.45-.44.53-.31.27s.23-.36.31-.27c-.16-.36-.44-.43-.81-.2S408.64,81,408.22,80.59Zm11.46,20.77a1.77,1.77,0,0,0,.13-1.14c-.09-.4-.21-.38-.38.07a2.44,2.44,0,0,0,0,1.14C419.51,101.83,419.6,101.81,419.68,101.36Z" transform="translate(-61.74 -65.88)"/>
<path class="cls-2" d="M436.56,124.88c.25-.19.32-.32.19-.41a.47.47,0,0,1-.19-.41,2.92,2.92,0,0,1,1.35,1.16,6.4,6.4,0,0,0,1.22,1.44.51.51,0,0,0,.52.2.53.53,0,0,1,.51.21.45.45,0,0,1,.26.41.56.56,0,0,0,.13.41,3,3,0,0,0,.77.55,2.78,2.78,0,0,1,.77.55,2.37,2.37,0,0,1,.13.75,2.69,2.69,0,0,0,.13.75,1.2,1.2,0,0,0,.39.48,3.73,3.73,0,0,1,.38.34,1.26,1.26,0,0,1,.13.55.81.81,0,0,0,.26.55,2,2,0,0,0,.32.48l.32.34a6,6,0,0,1,.33,2.33,4.66,4.66,0,0,0,.45,2.33q-1,.13-.84-1a5,5,0,0,0,.06-1.78,4.64,4.64,0,0,1-.25-.75,1.88,1.88,0,0,0-.39-.76.92.92,0,0,0-.39-.13c-.08,0-.08-.09,0-.28q-.37-2.46-1.8-3.15l.77,2.4a4.65,4.65,0,0,1,0,2.67c-.43.09-.56-.09-.38-.55s.17-.77,0-1a.7.7,0,0,1-.26-.82.88.88,0,0,0-.13-.82h-.51c-.09-.46-.18-1-.26-1.51a7.81,7.81,0,0,0-.39-1.5c-.51.18-.79.11-.83-.21a.52.52,0,0,0-.58-.48c.25.64.49,1.33.7,2.06s.46,1.41.71,2a14.66,14.66,0,0,1,.65,2.06,2.45,2.45,0,0,1,.45,1c.13.51.4.67.83.48a8.15,8.15,0,0,0-.13,3.29,19.75,19.75,0,0,1,.13,4c-.08.73-.19,1.44-.32,2.13a11,11,0,0,1-.45,1.71,3.12,3.12,0,0,1,2.13.14,4.7,4.7,0,0,0,1.73.54l.13-.13a.38.38,0,0,1,.26-.14c0,.09,0,.14.13.14s.08.13.26.13a5.38,5.38,0,0,1,.9.14q.64.13.51.27c.17-.18.28-.25.33-.2a1.38,1.38,0,0,0,.45.2c-.09.46-.43.6-1,.41a2.28,2.28,0,0,0-1.55,0,2.27,2.27,0,0,0,1.74.62,17.43,17.43,0,0,1,2.51.07c.43.09.71.05.84-.14s.27-.13.45.14c.17,0,.23,0,.19-.14a2.45,2.45,0,0,1-.13-.34.72.72,0,0,1,0-.41c0-.14.24-.21.58-.21a3.33,3.33,0,0,1,2.45.28,5.51,5.51,0,0,0,1.8.82v1.41c.34-.18.55-.24.63-.2s.09.18,0,.41-.17.49-.25.8a1.64,1.64,0,0,0,0,.88.46.46,0,0,0-.76,0c-.25.27-.46,0-.63-.68a1.21,1.21,0,0,1-1.08.34c-.46,0-.91-.07-1.33-.07-.67-.08-1.05.12-1.14.61a1.24,1.24,0,0,1-.75,1,52,52,0,0,0-6.08.87,30.6,30.6,0,0,1-6.32.61,3.87,3.87,0,0,1-.7.54,2,2,0,0,0-.7.67.58.58,0,0,0-.19.54.58.58,0,0,1-.19.54c0,.09-.08.16-.25.2a.8.8,0,0,0-.38.2.79.79,0,0,0-.25.54,1.34,1.34,0,0,1-.13.54,5.22,5.22,0,0,0-.44.54.91.91,0,0,0-.19.54,1.58,1.58,0,0,1-.76,1.27,2.58,2.58,0,0,0-1,1,.46.46,0,0,0,0,.48.26.26,0,0,1,0,.33,6.74,6.74,0,0,0-1.08.74,13.89,13.89,0,0,0-1.2,1.15,2,2,0,0,0,.06.4.43.43,0,0,1-.06.4,2.9,2.9,0,0,1-.57.48,8,8,0,0,0-.82.6,1.2,1.2,0,0,1-.32.14s-.06.09-.06.27-.09.2-.26.33-.29.25-.38.34-.27.31-.56.67a4.42,4.42,0,0,1-.83.81.37.37,0,0,1-.38.07,1.4,1.4,0,0,0-.38-.07,1.14,1.14,0,0,0-.25.81c-.08.09-.21.09-.38,0s-.3-.09-.38,0a2.59,2.59,0,0,0-.44.67.61.61,0,0,1-.57.4c-.17.09-.4.21-.7.34a2.32,2.32,0,0,0-.69.47,7,7,0,0,1-.64.41,5.54,5.54,0,0,0-.63.4l-.25.4a5.31,5.31,0,0,1-1.77.27,3,3,0,0,0-1.77.54.55.55,0,0,0-.45.27,1,1,0,0,0-.19.4.94.94,0,0,1-.38-.06c-.08-.05-.21,0-.38.06a1.05,1.05,0,0,0-.5.14l-.51.27c-.25.27-.38.29-.38.06s-.12-.24-.38-.06c-.08,0-.12,0-.12.13s-.09.18-.26.27a1.07,1.07,0,0,1-.95-.13,1.21,1.21,0,0,0-.82-.27.4.4,0,0,0-.38.27.24.24,0,0,1-.38.13c-.08,0-.13-.09-.13-.27s-.08-.22-.25-.13c.09,0,0,.13-.25.4a2.07,2.07,0,0,1-1.46-.34,3.05,3.05,0,0,0-1.45-.47c-.17,0-.28-.11-.32-.33s-.15-.34-.31-.34a.38.38,0,0,0-.38-.07,1.47,1.47,0,0,1-.38.07,1.19,1.19,0,0,1-.13-.54c0-.18,0-.27-.13-.27s-.21-.09-.38,0-.29.09-.38,0a3.65,3.65,0,0,1-.18-.47.91.91,0,0,0-.2-.33l-.56-.34a1.25,1.25,0,0,1-.45-.47c-.08-.09-.08-.23,0-.41s.09-.31,0-.4H404q-.12,0-.06-.27a2,2,0,0,0,.06-.4,6.69,6.69,0,0,1-.76-2.56,22.49,22.49,0,0,1-.25-3.3,28.49,28.49,0,0,1,.25-3.57,10.08,10.08,0,0,0,.38-1.14c.09-.31.21-.69.38-1.14a4.71,4.71,0,0,0,.13-1.15,1.87,1.87,0,0,1,.25-1,.12.12,0,0,1,.13-.13c.08,0,.17-.09.25-.27a22.35,22.35,0,0,1,2-5.66q1.46-3,2.6-4.84a20.43,20.43,0,0,1,1.39-9.43l.38-1.21a.42.42,0,0,1,.25-.4,1.38,1.38,0,0,0,.38-.27.67.67,0,0,0,.19-.61.66.66,0,0,1,.19-.6c.42-.18.63-.31.63-.41a.63.63,0,0,0,.19-.6.68.68,0,0,1,.19-.61,5.13,5.13,0,0,0,.89-.67,12.13,12.13,0,0,1,1.2-1.35c.46-.44,1-1,1.58-1.61a2.46,2.46,0,0,0,.45-.74,1.52,1.52,0,0,1,.57-.74c.08-.09.21-.09.37,0s.3.09.38,0a3.53,3.53,0,0,1,.07-.47c0-.23.1-.34.19-.34s.21-.09.38,0,.29.09.38,0a1,1,0,0,0,.19-.4c0-.18.1-.27.19-.27a.67.67,0,0,1,.63-.21,1,1,0,0,0,.76-.2c.17-.09.21-.18.13-.27s0-.13.12-.13a7.89,7.89,0,0,0,1.58-.74c.72-.4,1.29-.7,1.71-.88a3.84,3.84,0,0,1,.76-.13,1.17,1.17,0,0,0,.63-.27,13.82,13.82,0,0,1,3.23-.27,19.61,19.61,0,0,1,3.61.27h.24a.82.82,0,0,1,.38.48.87.87,0,0,0,.39.48,2,2,0,0,0,1,.34,1.36,1.36,0,0,1,.83.34,1.24,1.24,0,0,1,.32.62A1.26,1.26,0,0,0,436.56,124.88Zm-23.43,40.67a2,2,0,0,0,1-.14,1.89,1.89,0,0,1,.75-.26c.34-.18.61-.34.82-.47a6.51,6.51,0,0,1,.57-.34,4.61,4.61,0,0,0,1.26-.53,7.53,7.53,0,0,1,.88-.54c.42-.27.76-.47,1-.6a3.1,3.1,0,0,0,.75-.61,2.23,2.23,0,0,1,.51-.4,2,2,0,0,0,.5-.4,2.49,2.49,0,0,0,.82-.67c.21-.27.4-.54.57-.8a1.13,1.13,0,0,1,.56-.14,1.2,1.2,0,0,0,.57-.13,1.84,1.84,0,0,0,.38-.61,1.74,1.74,0,0,1,.38-.6,5,5,0,0,1,.82-.47,4.54,4.54,0,0,0,.94-.6,9.28,9.28,0,0,1,.63-.87c.25-.31.5-.65.76-1a13.34,13.34,0,0,1-2.78-.26,20.84,20.84,0,0,1-2.39-.67c-.75-.27-1.51-.52-2.27-.74a13.67,13.67,0,0,0-2.39-.47c0-.36-.12-.49-.38-.4a39,39,0,0,0-2.83,5.63A22.5,22.5,0,0,0,413.13,165.55ZM423,146.79a15.94,15.94,0,0,0,5.66.6c2-.13,4-.24,6.05-.33.42-.81.94-1.77,1.57-2.89a10,10,0,0,0,1.2-3.81,10.77,10.77,0,0,0-.38-4.36,12.67,12.67,0,0,0-1.64-3.55,14.29,14.29,0,0,1-1.95-.47,6.13,6.13,0,0,0-1.7-.33c-.17.09-.25.18-.25.26s0,.14-.13.14a.92.92,0,0,1-.63.06,4.74,4.74,0,0,0-.75-.06l-2.08.73a7,7,0,0,0-1.7.88,1.2,1.2,0,0,1-.57.13.73.73,0,0,0-.56.27,2.37,2.37,0,0,0-.26.33.94.94,0,0,1-.37.34,14.59,14.59,0,0,1-1.64,1,6.52,6.52,0,0,0-1.64,1.28,14.88,14.88,0,0,0-1.26,1.54,1.58,1.58,0,0,0-.12,1.81c.08.26.19.33.31.2a.57.57,0,0,1,.44-.2,1.31,1.31,0,0,1,1,.4A1.27,1.27,0,0,1,422,142c-.13.4.06.74.57,1,.58,0,.88.49.88,1.47a.44.44,0,0,0,0,.47l.19.33a.13.13,0,0,1-.07.2,1.54,1.54,0,0,1-.62.07.23.23,0,0,0-.13-.2c-.09,0-.17,0-.25.2a.42.42,0,0,1,.44.4A1.86,1.86,0,0,1,423,146.79ZM441,128a3.34,3.34,0,0,1,.75.73c.34.41.59.39.76-.06a.85.85,0,0,1-.51-.2,2.82,2.82,0,0,1-.44-.47,1.18,1.18,0,0,0-.31-.34C441.13,127.65,441.05,127.76,441,128Zm10.2,18.36c.25-.36.5-.52.76-.47a.71.71,0,0,1,.5.26c.08.14,0,.25-.13.34A1.84,1.84,0,0,1,451.17,146.39Z" transform="translate(-61.74 -65.88)"/>
<path class="cls-2" d="M537.11,90a1.73,1.73,0,0,0,.7.8c.3.18.57.36.83.54a2.37,2.37,0,0,1,.63.67,2.29,2.29,0,0,1,.26,1.21c-.43.26-.81.51-1.15.73a14,14,0,0,1-1.27.74c-.43.18-.64.11-.64-.2s-.17-.25-.51.2c-.25.18-.38.63-.38,1.34-.08.27.11.42.58.47a2.74,2.74,0,0,0,1.33-.2,7,7,0,0,1,1.15-.2,4.63,4.63,0,0,1,1.65.2c.17.62.42.94.76.94.09.35-.06.49-.44.4a.83.83,0,0,0-.83.13q-.12.14.06.6a.64.64,0,0,1-.06.74.29.29,0,0,1-.32.07.84.84,0,0,0-.31-.07.58.58,0,0,0-.51.61c0,.31-.22.55-.64.73a3.56,3.56,0,0,1-1.27-.2,7.57,7.57,0,0,1-.77-.33c.17.09.17.24,0,.46s-.29.25-.38.07a.64.64,0,0,1-.13-.67c.09-.27,0-.4-.25-.4q-3,0-6.11-.13a55.31,55.31,0,0,0-6.61.13c-1.28.18-2.8.36-4.58.54l-5.22.53-3,.34c-1.28.13-2.42.29-3.44.47a1.1,1.1,0,0,1-.76,0,1.13,1.13,0,0,0-.77,0,1.64,1.64,0,0,0-.38.26,1.28,1.28,0,0,1-.51.27,9.38,9.38,0,0,1-1.21-.07,5.89,5.89,0,0,0-1.46.07q-1.65.27-4.2.6l-4.71.61c-2.2.36-4.39.65-6.55.87s-4.35.56-6.55,1a1.13,1.13,0,0,1-.77,0,1.23,1.23,0,0,0-.76,0,1.38,1.38,0,0,0-.38.27,1.78,1.78,0,0,1-.38.27,5.7,5.7,0,0,1-2-.07,1.79,1.79,0,0,0-1.59.34,6.61,6.61,0,0,0-1.59,3,21.89,21.89,0,0,1-1.08,3.29c-.42,1.25-1,2.86-1.78,4.82s-1.55,4-2.35,6.23-1.57,4.31-2.29,6.37-1.34,3.75-1.85,5.09a4.82,4.82,0,0,0-.38,1.2,8.13,8.13,0,0,1-.38,1.34.76.76,0,0,1-.26.34.21.21,0,0,0-.12.2,14,14,0,0,0-.39,1.88,19.94,19.94,0,0,1-.38,2c0,.18-.06.26-.19.26s-.19.09-.19.27v.4a1.5,1.5,0,0,0-.25.81,4.47,4.47,0,0,1-.13.94c-.17.8-.47,2-.89,3.55s-.77,3-1,4.22c-.43,2.05-.87,4.06-1.34,6s-.95,4.11-1.46,6.43a19.6,19.6,0,0,0-.32,3.35c0,1.43-.06,2.93-.06,4.49s0,3.13.06,4.69a30.73,30.73,0,0,0,.32,3.95c0,.45.08.69.26.74a1.65,1.65,0,0,0,.63,0,3.68,3.68,0,0,1,.7-.07.47.47,0,0,1,.45.27c.17.36.12.6-.13.74a.63.63,0,0,0-.38.6,2.65,2.65,0,0,1,1.72.2c.29.22.78.16,1.46-.2.08-.09.15,0,.19.2a2.66,2.66,0,0,1,0,.8c0,.32-.09.61-.13.88s-.06.35-.06.26a.4.4,0,0,0,.51.14,1,1,0,0,0,.38-.34c.08-.13.15-.18.19-.13a2.86,2.86,0,0,1,.06.87,1.38,1.38,0,0,0,.19.87,1.32,1.32,0,0,1,.2.87,4.86,4.86,0,0,0,.38,1.88l.44.94a2.69,2.69,0,0,1,.07,1.74,13.32,13.32,0,0,1-2.23,1.4c-.81.41-1.64.79-2.48,1.14a2.64,2.64,0,0,1-1.34-.33,3.81,3.81,0,0,0-1.33-.47,1.29,1.29,0,0,0-1.47-.34c-.46.23-.78.16-.95-.2a2.19,2.19,0,0,1-1.27-.67l-1-1.07a10.41,10.41,0,0,1-1.53-1.67,12.27,12.27,0,0,1-1.14-2.35,7.61,7.61,0,0,1-.7-1.61c-.13-.44-.32-1.11-.58-2a2.39,2.39,0,0,1,.07-.4.4.4,0,0,0-.07-.4,1,1,0,0,1-.19-.74,2.82,2.82,0,0,0-.06-1,2.92,2.92,0,0,0-.26-.47,1.22,1.22,0,0,1-.12-.6,4.31,4.31,0,0,1-.07-1.28,10.24,10.24,0,0,0,.07-1.27c-.09-.71-.17-1.63-.26-2.75s-.17-2.28-.25-3.48-.13-2.43-.13-3.69,0-2.41.13-3.48a81.88,81.88,0,0,1,1.46-10.79q1.08-5.3,2.48-10.25c.09-.44.19-1,.32-1.54a11.44,11.44,0,0,1,.45-1.54c0-.18.06-.24.19-.2s.19-.07.19-.34a3.8,3.8,0,0,0-.07-.67,1.12,1.12,0,0,1,.07-.67,1.27,1.27,0,0,1,.38-.46,3.73,3.73,0,0,0,.38-.34q.26-1.06.45-2.28a8.15,8.15,0,0,1,.7-2.28.75.75,0,0,0,.25-.53,3.62,3.62,0,0,1,.13-.81c.08-.17.17-.26.25-.26s.13,0,.13-.14a10.16,10.16,0,0,0,.38-1.61,7.9,7.9,0,0,1,.38-1.47c0-.18.07-.24.19-.2s.2-.07.2-.34a2.67,2.67,0,0,1,.31-.93c.21-.45.41-.9.58-1.34s.36-1.21.57-2a4.27,4.27,0,0,1,.95-1.88,5.73,5.73,0,0,0,.51-1.34c.26-.8.55-1.68.89-2.61s.64-1.81.89-2.62a7.12,7.12,0,0,0,.38-1.47c.09-.27.17-.38.26-.34s.17,0,.25-.2c.43-1,.85-1.89,1.28-2.74a14.91,14.91,0,0,0,1-2.62,1.12,1.12,0,0,0-1.27-.33c-.59.13-1.1.25-1.53.33a5.34,5.34,0,0,1-.69-.06,1.75,1.75,0,0,0-.83.06.74.74,0,0,0-.57.2.75.75,0,0,1-.58.21,18.2,18.2,0,0,1-3.18.26,20.53,20.53,0,0,0-3.31.27c-.93.09-2.37.23-4.32.4a2.39,2.39,0,0,0-1,.2,2.17,2.17,0,0,1-1,.21,19.59,19.59,0,0,1-3.25,0,16.57,16.57,0,0,0-3,0,8.24,8.24,0,0,0-1.59.46,1.83,1.83,0,0,1-1.46.07,4.1,4.1,0,0,1-1.65-1,2.94,2.94,0,0,1-.77-2.21c-.76.62-1.29.58-1.59-.14a12.7,12.7,0,0,1-.7-2.41,116.44,116.44,0,0,0,17.18-.67q7.89-.93,16.16-1.61a2,2,0,0,0-1.91-.94,2.72,2.72,0,0,1,1.66-.8,16.39,16.39,0,0,1,2.16-.13,1.2,1.2,0,0,0-.89-.67,6.78,6.78,0,0,0-1.4-.14c-.51,0-1,0-1.59-.07a3.22,3.22,0,0,1-1.47-.46c.09-.45.45-.58,1.09-.41s1,0,1.2-.4c-.08-.35-.21-.44-.38-.27a1.18,1.18,0,0,1-.89.27c-.08-.8.21-1.16.89-1.07a1.68,1.68,0,0,0,1.53-.4c-.09-.27-.21-.38-.38-.34l-.64.2-.76.27a1.09,1.09,0,0,1-.89-.13c-.34-.09-.43-.18-.26-.27a.52.52,0,0,1,.51,0h1.05A6.14,6.14,0,0,1,464,94.53c.93-.27,1.91-.58,2.93-.94a8.8,8.8,0,0,0,2.1-3.08,33.29,33.29,0,0,1,1.71-3.62.21.21,0,0,1,.26-.07c.08.05.12,0,.12-.2a6.73,6.73,0,0,1,.13-.74,1.65,1.65,0,0,1,.26-.73l.57-.61a5.1,5.1,0,0,0,.57-.73,2.33,2.33,0,0,0,.45-.81,10.52,10.52,0,0,1,.44-1.07,2,2,0,0,1,.51-.6,3.7,3.7,0,0,0,.64-.74,2.23,2.23,0,0,0-.07-.4.4.4,0,0,1,.07-.4,2.59,2.59,0,0,0,.51-.74,4.59,4.59,0,0,1,.63-1c.09-.17.17-.24.26-.2s.12-.06.12-.33a2.89,2.89,0,0,1,.64-1.14,6.92,6.92,0,0,0,.89-1.54c.08-.18.15-.22.19-.14s.06,0,.06-.26.17-.45.51-.81a4.28,4.28,0,0,0,.77-1.07c.17-.18.33-.38.51-.6a1.24,1.24,0,0,0,.25-.74v-.27c.17-.18.38-.42.64-.74a3.8,3.8,0,0,0,.5-.73,1.8,1.8,0,0,0,.39-.81,2.88,2.88,0,0,1,.38-.93c.34-.36.65-.43.95-.21s.53,0,.7-.73a.5.5,0,0,0,.57-.07l.39-.4A1.67,1.67,0,0,1,485,66a1.2,1.2,0,0,1,.76,0c.6-.17.92-.13,1,.14s.27.49.7.67.65.33.7.47a3.8,3.8,0,0,1,.06.87c0,.27.07.4.19.4a.62.62,0,0,0,.38-.13.77.77,0,0,1,.45-.14c.17,0,.34.14.51.4a2.8,2.8,0,0,1-.38,2.28.63.63,0,0,0,.76.6c.42,0,.55.3.38,1-.17,0-.25.13-.25.4a1.63,1.63,0,0,1-.13.67c0,.18,0,.27-.13.27a.38.38,0,0,0-.25.13,1.33,1.33,0,0,0-.13.61,1.36,1.36,0,0,1-.25.73.87.87,0,0,1-.45.41.44.44,0,0,0-.32.4,1,1,0,0,0-.19.73.67.67,0,0,1-.19.61,1.3,1.3,0,0,1-.38.47,1.22,1.22,0,0,0-.38.47.94.94,0,0,0-.26.67,1.67,1.67,0,0,1-.12.67,1.4,1.4,0,0,1-.38.46,4.07,4.07,0,0,0-.39.34,2.14,2.14,0,0,0-.25.8.8.8,0,0,1-.26.54,3.73,3.73,0,0,1-.31.54,3,3,0,0,0-.32.53.86.86,0,0,0-.26.6.85.85,0,0,1-.25.61,1.41,1.41,0,0,1-.38.47.59.59,0,0,0-.26.47.76.76,0,0,0-.19.67,1.15,1.15,0,0,1-.19.8,3,3,0,0,0-.89.8,2.69,2.69,0,0,0-.13.74,1.43,1.43,0,0,1-.12.6,4.36,4.36,0,0,1-.51.47,1.3,1.3,0,0,0-.38.47.64.64,0,0,0-.19.6,1,1,0,0,1-.2.74,1.25,1.25,0,0,0,1.53.47A11,11,0,0,1,484.2,91c1-.18,2.08-.35,3.18-.53l3.43-.54a5.86,5.86,0,0,1,1,.07,3.22,3.22,0,0,0,1.08-.07c1.53-.18,3.41-.36,5.66-.54s4.35-.4,6.3-.67a9.43,9.43,0,0,1,2.29-.26c.84,0,1.73,0,2.67-.14.59-.09,1.33-.15,2.23-.2a22.24,22.24,0,0,0,2.86-.33c1.69-.18,3.9-.32,6.61-.41a2.13,2.13,0,0,0,.58-.26,2.17,2.17,0,0,1,.57-.27q-.14,0,0,.27a.39.39,0,0,0,.38.26v-.3q0-.27.39-.27a50.33,50.33,0,0,1,7.37,0,39.44,39.44,0,0,1,4.07.76,6.42,6.42,0,0,1,3.43,2.13c.34.09.43.18.26.27a.49.49,0,0,1-.52,0V89.7a2.73,2.73,0,0,1-.45.2A1.16,1.16,0,0,1,537.11,90ZM459,98.86c0,.26-.12.38-.37.33a4.4,4.4,0,0,0-.73-.07,2.32,2.32,0,0,0-.3.54,2.26,2.26,0,0,1-.31.54,1.19,1.19,0,0,1-.79,0,.85.85,0,0,0-.67,0c-.24,0-.36.06-.36.2s0,.2-.12.2c-.25.18-.37.13-.37-.14v-.26c-.16,0-.24.06-.24.2s-.05.2-.13.2c-.16.18-.24.13-.24-.14a.37.37,0,0,1-.12-.26.4.4,0,0,0-.37.2.4.4,0,0,1-.36.2,14.65,14.65,0,0,1-2,.13,8.88,8.88,0,0,0-2.13.27h-.88s-.19.32-.31.5-.15.26-.06.26a.55.55,0,0,1-.45-.33c-.12-.22-.27-.29-.44-.2.09,0,.09.06,0,.2a1.5,1.5,0,0,1-.25.33,4,4,0,0,1-.82-.13.84.84,0,0,0-.82.13c-.16.27-.23.34-.18.2s0-.2-.19-.2-.38,0,0,.14v.27c-.55,0-.67-.07-.76-.21a.6.6,0,0,0-.24-.2V102s-.26.4-.51.14c-.09,0-.13-.09-.13-.27s-.08-.22-.25-.14-.13.07-.13.2-.08.21-.25.21l-.88.06a4.51,4.51,0,0,1-1.39-.06c-.25,0-.38-.07-.38-.21s0-.2-.12-.2-.46,0-1.39.27a2.86,2.86,0,0,1-1.89.14A4.37,4.37,0,0,1,434.6,101a6,6,0,0,1-1.44-2.41,1,1,0,0,0,.56-.47.63.63,0,0,1,.57-.34,1.87,1.87,0,0,1,1.64-.4c.75.09,1.59.23,2.52.4a2,2,0,0,1,.88.14,4.94,4.94,0,0,0,.63.27c-.25-.27,1-.41,1-.41v-.09c0,.18.12.27.37.27a17.46,17.46,0,0,0,3.46-.07,10.21,10.21,0,0,1,3.11.07.58.58,0,0,0,.12.4c.16.18.28.18.37,0,.24-.45.6-.42,1.09.07a2.11,2.11,0,0,0,1.46.73,31.37,31.37,0,0,1,4-.46A27.12,27.12,0,0,1,459,98.86Zm13.24,7.67c.16,0,.24-.18.24-.53h-1.39a8.42,8.42,0,0,0-.83.67,1.29,1.29,0,0,0-.31,1.22c-.43.45-.68.54-.76.27s-.34-.23-.76.13a8.59,8.59,0,0,1-.76,2c-.34.63-.64,1.17-.89,1.62a1,1,0,0,1-.32.4,1,1,0,0,0-.31.41c-.09.27-.3.87-.64,1.82s-.67,2-1,3-.68,2.09-1,3-.55,1.51-.64,1.68-.19.21-.31.34a1.7,1.7,0,0,0-.32.47,10.84,10.84,0,0,0-.51,1.35,8.53,8.53,0,0,0-.38,1.35,7.58,7.58,0,0,1-.38,1.35.59.59,0,0,1-.31.47,1.12,1.12,0,0,0-.45.47,1.42,1.42,0,0,0-.25.74,1.33,1.33,0,0,1-.13.61,9.1,9.1,0,0,0-.38,1.28,14,14,0,0,1-.38,1.41,6.74,6.74,0,0,1-.44,1.42,1.18,1.18,0,0,0,.44,1.41,6.81,6.81,0,0,1,.95-3.5,5.73,5.73,0,0,0,1-2.83c0-.27,0-.38.13-.34s.17,0,.25-.2a11.61,11.61,0,0,0,.45-1.55,10.34,10.34,0,0,1,.44-1.55h.26a.58.58,0,0,0,.07-.5,2.7,2.7,0,0,1-.07-.5h.39a.43.43,0,0,0,.06-.43,2.76,2.76,0,0,1-.06-.57h.37a1.26,1.26,0,0,0,.06-.67l-.06-.33h.5c.09-.09.09-.26,0-.5s-.09-.4,0-.5h.33a8,8,0,0,0,.56-1.51l.93-3c.33-1.06.63-2,.92-2.77s.56-1.18.81-1.18c-.08.44-.23,1.16-.43,2.17s-.42,2-.62,3.09-.35,2-.44,2.83,0,1.25.25,1.25c.25-.79.66-1.86,1.24-3.22s1.19-2.81,1.85-4.34,1.28-3,1.86-4.41S472,107.4,472.26,106.53Zm-11.14,5.82c-.17.09-.13-.07.13-.47s.33-.51.25-.33c.16-.72,0-1.16-.38-1.34a7,7,0,0,0-.38,1.6C460.66,112.44,460.78,112.62,461.12,112.35Zm17.63-20.5a1,1,0,0,0,1.33-.67l.56-1.21c.42-.53.3-.94-.37-1.2a6.7,6.7,0,0,1-.89,1.4A3.22,3.22,0,0,0,478.75,91.85Zm57.19,5.89a3.87,3.87,0,0,0,1.13-.4c.34-.18.67,0,1,.4.17-.35.13-.62-.12-.8a1.61,1.61,0,0,0-1-.27,1.56,1.56,0,0,0-.94.27C535.81,97.12,535.77,97.39,535.94,97.74Z" transform="translate(-61.74 -65.88)"/>
<path class="cls-2" d="M498.56,124.88c.25-.19.32-.32.19-.41a.47.47,0,0,1-.19-.41,2.92,2.92,0,0,1,1.35,1.16,6.4,6.4,0,0,0,1.22,1.44.51.51,0,0,0,.52.2.53.53,0,0,1,.51.21.45.45,0,0,1,.26.41.56.56,0,0,0,.13.41,3,3,0,0,0,.77.55,2.78,2.78,0,0,1,.77.55,2.37,2.37,0,0,1,.13.75,2.69,2.69,0,0,0,.13.75,1.2,1.2,0,0,0,.39.48,3.73,3.73,0,0,1,.38.34,1.26,1.26,0,0,1,.13.55.81.81,0,0,0,.26.55,2,2,0,0,0,.32.48l.32.34a6,6,0,0,1,.33,2.33,4.66,4.66,0,0,0,.45,2.33q-1,.13-.84-1a5,5,0,0,0,.06-1.78,4.64,4.64,0,0,1-.25-.75,1.88,1.88,0,0,0-.39-.76.92.92,0,0,0-.39-.13c-.08,0-.08-.09,0-.28q-.37-2.46-1.8-3.15l.77,2.4a4.65,4.65,0,0,1,0,2.67c-.43.09-.56-.09-.38-.55s.17-.77,0-1a.7.7,0,0,1-.26-.82.88.88,0,0,0-.13-.82h-.51c-.09-.46-.18-1-.26-1.51a7.81,7.81,0,0,0-.39-1.5c-.51.18-.79.11-.83-.21a.52.52,0,0,0-.58-.48c.25.64.49,1.33.7,2.06s.46,1.41.71,2a14.66,14.66,0,0,1,.65,2.06,2.45,2.45,0,0,1,.45,1c.13.51.4.67.83.48a8.15,8.15,0,0,0-.13,3.29,19.75,19.75,0,0,1,.13,4c-.08.73-.19,1.44-.32,2.13a11,11,0,0,1-.45,1.71,3.12,3.12,0,0,1,2.13.14,4.7,4.7,0,0,0,1.73.54l.13-.13a.38.38,0,0,1,.26-.14c0,.09,0,.14.13.14s.08.13.26.13a5.38,5.38,0,0,1,.9.14q.64.13.51.27c.17-.18.28-.25.33-.2a1.38,1.38,0,0,0,.45.2c-.09.46-.43.6-1,.41a2.28,2.28,0,0,0-1.55,0,2.27,2.27,0,0,0,1.74.62,17.43,17.43,0,0,1,2.51.07c.43.09.71.05.84-.14s.27-.13.45.14c.17,0,.23,0,.19-.14a2.45,2.45,0,0,1-.13-.34.72.72,0,0,1,0-.41c0-.14.24-.21.58-.21a3.33,3.33,0,0,1,2.45.28,5.51,5.51,0,0,0,1.8.82v1.41c.34-.18.55-.24.63-.2s.09.18,0,.41-.17.49-.25.8a1.64,1.64,0,0,0,0,.88.46.46,0,0,0-.76,0c-.25.27-.46,0-.63-.68a1.21,1.21,0,0,1-1.08.34c-.46,0-.91-.07-1.33-.07-.67-.08-1.05.12-1.14.61a1.24,1.24,0,0,1-.75,1,52,52,0,0,0-6.08.87,30.6,30.6,0,0,1-6.32.61,3.87,3.87,0,0,1-.7.54,2,2,0,0,0-.7.67.58.58,0,0,0-.19.54.58.58,0,0,1-.19.54c0,.09-.08.16-.25.2a.8.8,0,0,0-.38.2.79.79,0,0,0-.25.54,1.34,1.34,0,0,1-.13.54,5.22,5.22,0,0,0-.44.54.91.91,0,0,0-.19.54,1.58,1.58,0,0,1-.76,1.27,2.58,2.58,0,0,0-1,1,.46.46,0,0,0,0,.48.26.26,0,0,1,0,.33,6.74,6.74,0,0,0-1.08.74,13.89,13.89,0,0,0-1.2,1.15,2,2,0,0,0,.06.4.43.43,0,0,1-.06.4,2.9,2.9,0,0,1-.57.48,8,8,0,0,0-.82.6,1.2,1.2,0,0,1-.32.14s-.06.09-.06.27-.09.2-.26.33-.29.25-.38.34-.27.31-.56.67a4.42,4.42,0,0,1-.83.81.37.37,0,0,1-.38.07,1.4,1.4,0,0,0-.38-.07,1.14,1.14,0,0,0-.25.81c-.08.09-.21.09-.38,0s-.3-.09-.38,0a2.59,2.59,0,0,0-.44.67.61.61,0,0,1-.57.4c-.17.09-.4.21-.7.34a2.32,2.32,0,0,0-.69.47,7,7,0,0,1-.64.41,5.54,5.54,0,0,0-.63.4l-.25.4a5.31,5.31,0,0,1-1.77.27,3,3,0,0,0-1.77.54.55.55,0,0,0-.45.27,1,1,0,0,0-.19.4.94.94,0,0,1-.38-.06c-.08-.05-.21,0-.38.06a1.05,1.05,0,0,0-.5.14l-.51.27c-.25.27-.38.29-.38.06s-.12-.24-.38-.06c-.08,0-.12,0-.12.13s-.09.18-.26.27a1.07,1.07,0,0,1-.95-.13,1.21,1.21,0,0,0-.82-.27.4.4,0,0,0-.38.27.24.24,0,0,1-.38.13c-.08,0-.13-.09-.13-.27s-.08-.22-.25-.13c.09,0,0,.13-.25.4a2.07,2.07,0,0,1-1.46-.34,3.05,3.05,0,0,0-1.45-.47c-.17,0-.28-.11-.32-.33s-.15-.34-.31-.34a.38.38,0,0,0-.38-.07,1.47,1.47,0,0,1-.38.07,1.19,1.19,0,0,1-.13-.54c0-.18,0-.27-.13-.27s-.21-.09-.38,0-.29.09-.38,0a3.65,3.65,0,0,1-.18-.47.91.91,0,0,0-.2-.33l-.56-.34a1.25,1.25,0,0,1-.45-.47c-.08-.09-.08-.23,0-.41s.09-.31,0-.4H466q-.12,0-.06-.27a2,2,0,0,0,.06-.4,6.69,6.69,0,0,1-.76-2.56,22.49,22.49,0,0,1-.25-3.3,28.49,28.49,0,0,1,.25-3.57,10.08,10.08,0,0,0,.38-1.14c.09-.31.21-.69.38-1.14a4.71,4.71,0,0,0,.13-1.15,1.87,1.87,0,0,1,.25-1,.12.12,0,0,1,.13-.13c.08,0,.17-.09.25-.27a22.35,22.35,0,0,1,2-5.66q1.46-3,2.6-4.84a20.43,20.43,0,0,1,1.39-9.43l.38-1.21a.42.42,0,0,1,.25-.4,1.38,1.38,0,0,0,.38-.27.67.67,0,0,0,.19-.61.66.66,0,0,1,.19-.6c.42-.18.63-.31.63-.41a.63.63,0,0,0,.19-.6.68.68,0,0,1,.19-.61,5.13,5.13,0,0,0,.89-.67,12.13,12.13,0,0,1,1.2-1.35c.46-.44,1-1,1.58-1.61a2.46,2.46,0,0,0,.45-.74,1.52,1.52,0,0,1,.57-.74c.08-.09.21-.09.37,0s.3.09.38,0a3.53,3.53,0,0,1,.07-.47c0-.23.1-.34.19-.34s.21-.09.38,0,.29.09.38,0a1,1,0,0,0,.19-.4c0-.18.1-.27.19-.27a.67.67,0,0,1,.63-.21,1,1,0,0,0,.76-.2c.17-.09.21-.18.13-.27s0-.13.12-.13a7.89,7.89,0,0,0,1.58-.74c.72-.4,1.29-.7,1.71-.88a3.84,3.84,0,0,1,.76-.13,1.17,1.17,0,0,0,.63-.27,13.82,13.82,0,0,1,3.23-.27,19.61,19.61,0,0,1,3.61.27h.24a.82.82,0,0,1,.38.48.87.87,0,0,0,.39.48,2,2,0,0,0,1,.34,1.36,1.36,0,0,1,.83.34,1.24,1.24,0,0,1,.32.62A1.26,1.26,0,0,0,498.56,124.88Zm-24.22,40.67c.59,0,.93-.05,1-.14a2,2,0,0,1,.76-.26l.82-.47a5.25,5.25,0,0,1,.56-.34,4.61,4.61,0,0,0,1.26-.53,8.48,8.48,0,0,1,.88-.54c.42-.27.76-.47,1-.6a3.13,3.13,0,0,0,.76-.61,2.19,2.19,0,0,1,.5-.4,2,2,0,0,0,.51-.4,2.55,2.55,0,0,0,.81-.67c.21-.27.4-.54.57-.8a1.2,1.2,0,0,1,.57-.14,1.16,1.16,0,0,0,.56-.13,1.69,1.69,0,0,0,.38-.61,1.74,1.74,0,0,1,.38-.6,5,5,0,0,1,.82-.47,4.29,4.29,0,0,0,.94-.6,9.28,9.28,0,0,1,.63-.87c.26-.31.51-.65.76-1a13.24,13.24,0,0,1-2.77-.26,20.28,20.28,0,0,1-2.39-.67c-.76-.27-1.52-.52-2.27-.74a14,14,0,0,0-2.4-.47c0-.36-.12-.49-.37-.4a38.05,38.05,0,0,0-2.84,5.63A22.5,22.5,0,0,0,474.34,165.55Zm9.83-18.76a16,16,0,0,0,5.67.6c2-.13,4-.24,6-.33.42-.81.95-1.77,1.58-2.89a9.85,9.85,0,0,0,1.19-3.81,10.77,10.77,0,0,0-.37-4.36,13,13,0,0,0-1.64-3.55,13.63,13.63,0,0,1-1.95-.47,6.19,6.19,0,0,0-1.7-.33c-.17.09-.26.18-.26.26s0,.14-.12.14a.93.93,0,0,1-.63.06,4.87,4.87,0,0,0-.76-.06l-2.08.73a7.19,7.19,0,0,0-1.7.88,1.16,1.16,0,0,1-.56.13.77.77,0,0,0-.57.27,2.36,2.36,0,0,0-.25.33,1,1,0,0,1-.38.34,13.75,13.75,0,0,1-1.64,1,6.3,6.3,0,0,0-1.63,1.28,13.69,13.69,0,0,0-1.26,1.54,1.57,1.57,0,0,0-.13,1.81c.08.26.19.33.31.2a.59.59,0,0,1,.45-.2,1.3,1.3,0,0,1,1,.4,1.27,1.27,0,0,1,.44,1.27c-.12.4.07.74.57,1,.59,0,.88.49.88,1.47a.49.49,0,0,0,0,.47c.08.13.15.25.19.33a.14.14,0,0,1-.06.2,1.64,1.64,0,0,1-.63.07.21.21,0,0,0-.13-.2c-.08,0-.17,0-.25.2a.42.42,0,0,1,.44.4A1.86,1.86,0,0,1,484.17,146.79Zm18-18.76a3.32,3.32,0,0,1,.76.73q.49.62.75-.06a.82.82,0,0,1-.5-.2,2.18,2.18,0,0,1-.44-.47,1.18,1.18,0,0,0-.32-.34C502.35,127.65,502.26,127.76,502.18,128Zm10.2,18.36c.26-.36.51-.52.76-.47a.69.69,0,0,1,.5.26c.09.14,0,.25-.12.34A1.87,1.87,0,0,1,512.38,146.39Z" transform="translate(-61.74 -65.88)"/>
</svg>